<ttFont>
    <TTGlyph name=".notdef" xMin="123" yMin="0" xMax="543" yMax="693">
      <contour>
        <pt x="123" y="693" on="1"/>
        <pt x="543" y="693" on="1"/>
        <pt x="543" y="0" on="1"/>
        <pt x="123" y="0" on="1"/>
      </contour>
      <contour>
        <pt x="489" y="52" on="1"/>
        <pt x="489" y="641" on="1"/>
        <pt x="178" y="641" on="1"/>
        <pt x="178" y="52" on="1"/>
      </contour>
      <contour>
        <pt x="340" y="255" on="1"/>
        <pt x="340" y="244" on="0"/>
        <pt x="324" y="231" on="0"/>
        <pt x="315" y="231" on="1"/>
        <pt x="305" y="231" on="0"/>
        <pt x="290" y="244" on="0"/>
        <pt x="290" y="255" on="1"/>
        <pt x="290" y="339" on="1"/>
        <pt x="344" y="342" on="0"/>
        <pt x="381" y="376" on="0"/>
        <pt x="381" y="416" on="1"/>
        <pt x="381" y="445" on="0"/>
        <pt x="358" y="485" on="0"/>
        <pt x="320" y="485" on="1"/>
        <pt x="291" y="485" on="0"/>
        <pt x="268" y="474" on="1"/>
        <pt x="260" y="471" on="0"/>
        <pt x="255" y="471" on="1"/>
        <pt x="244" y="471" on="0"/>
        <pt x="231" y="484" on="0"/>
        <pt x="231" y="494" on="1"/>
        <pt x="231" y="504" on="0"/>
        <pt x="249" y="519" on="0"/>
        <pt x="277" y="528" on="0"/>
        <pt x="309" y="533" on="0"/>
        <pt x="324" y="533" on="1"/>
        <pt x="356" y="533" on="0"/>
        <pt x="399" y="514" on="0"/>
        <pt x="424" y="482" on="0"/>
        <pt x="435" y="440" on="0"/>
        <pt x="435" y="418" on="1"/>
        <pt x="435" y="365" on="0"/>
        <pt x="391" y="308" on="0"/>
        <pt x="340" y="300" on="1"/>
      </contour>
      <contour>
        <pt x="280" y="167" on="1"/>
        <pt x="280" y="182" on="0"/>
        <pt x="300" y="202" on="0"/>
        <pt x="315" y="202" on="1"/>
        <pt x="330" y="202" on="0"/>
        <pt x="350" y="182" on="0"/>
        <pt x="350" y="167" on="1"/>
        <pt x="350" y="151" on="0"/>
        <pt x="330" y="130" on="0"/>
        <pt x="315" y="130" on="1"/>
        <pt x="300" y="130" on="0"/>
        <pt x="280" y="151" on="0"/>
      </contour>
    </TTGlyph>
    <TTGlyph name="A" xMin="-14" yMin="0" xMax="612" yMax="693">
      <contour>
        <pt x="398" y="149" on="1"/>
        <pt x="197" y="149" on="1"/>
        <pt x="161" y="0" on="1"/>
        <pt x="-14" y="0" on="1"/>
        <pt x="199" y="693" on="1"/>
        <pt x="400" y="693" on="1"/>
        <pt x="612" y="0" on="1"/>
        <pt x="434" y="0" on="1"/>
      </contour>
      <contour>
        <pt x="223" y="269" on="1"/>
        <pt x="371" y="269" on="1"/>
        <pt x="300" y="562" on="1"/>
        <pt x="295" y="562" on="1"/>
      </contour>
    </TTGlyph>
    <TTGlyph name="AE" xMin="-24" yMin="0" xMax="814" yMax="693">
      <contour>
        <pt x="418" y="149" on="1"/>
        <pt x="204" y="149" on="1"/>
        <pt x="155" y="0" on="1"/>
        <pt x="-24" y="0" on="1"/>
        <pt x="249" y="693" on="1"/>
        <pt x="777" y="693" on="1"/>
        <pt x="759" y="575" on="1"/>
        <pt x="490" y="575" on="1"/>
        <pt x="524" y="410" on="1"/>
        <pt x="768" y="410" on="1"/>
        <pt x="768" y="292" on="1"/>
        <pt x="547" y="292" on="1"/>
        <pt x="583" y="119" on="1"/>
        <pt x="814" y="119" on="1"/>
        <pt x="814" y="0" on="1"/>
        <pt x="444" y="0" on="1"/>
      </contour>
      <contour>
        <pt x="243" y="269" on="1"/>
        <pt x="399" y="269" on="1"/>
        <pt x="347" y="561" on="1"/>
        <pt x="342" y="561" on="1"/>
      </contour>
    </TTGlyph>
    <TTGlyph name="AEacute" xMin="-24" yMin="0" xMax="814" yMax="971">
      <component glyphName="AE" x="0" y="0" flags="0x204"/>
      <component glyphName="glyph00860" x="720" y="0" flags="0x4"/>
    </TTGlyph>
    <TTGlyph name="Aacute" xMin="-14" yMin="0" xMax="612" yMax="972">
      <component glyphName="A" x="0" y="0" flags="0x204"/>
      <component glyphName="glyph00860" x="513" y="1" flags="0x4"/>
    </TTGlyph>
    <TTGlyph name="Abreve" xMin="-14" yMin="0" xMax="612" yMax="933">
      <component glyphName="A" x="0" y="0" flags="0x204"/>
      <component glyphName="glyph00864" x="544" y="0" flags="0x4"/>
    </TTGlyph>
    <TTGlyph name="Acircumflex" xMin="-14" yMin="0" xMax="612" yMax="944">
      <component glyphName="A" x="0" y="0" flags="0x204"/>
      <component glyphName="glyph00861" x="560" y="0" flags="0x4"/>
    </TTGlyph>
    <TTGlyph name="Adieresis" xMin="-14" yMin="0" xMax="612" yMax="918">
      <component glyphName="A" x="0" y="0" flags="0x204"/>
      <component glyphName="glyph00866" x="655" y="0" flags="0x4"/>
    </TTGlyph>
    <TTGlyph name="Agrave" xMin="-14" yMin="0" xMax="612" yMax="971">
      <component glyphName="A" x="0" y="0" flags="0x204"/>
      <component glyphName="glyph00859" x="516" y="0" flags="0x4"/>
    </TTGlyph>
    <TTGlyph name="Alpha" xMin="-14" yMin="0" xMax="612" yMax="693">
      <component glyphName="A" x="0" y="0" flags="0x204"/>
    </TTGlyph>
    <TTGlyph name="Alphatonos" xMin="0" yMin="0" xMax="661" yMax="720">
      <component glyphName="A" x="49" y="0" flags="0x4"/>
      <component glyphName="glyph00884" x="153" y="0" flags="0x4"/>
    </TTGlyph>
    <TTGlyph name="Amacron" xMin="-14" yMin="0" xMax="612" yMax="894">
      <component glyphName="A" x="0" y="0" flags="0x204"/>
      <component glyphName="glyph00863" x="528" y="0" flags="0x4"/>
    </TTGlyph>
    <TTGlyph name="Aogonek" xMin="-14" yMin="-258" xMax="669" yMax="693">
      <contour>
        <pt x="398" y="149" on="1"/>
        <pt x="197" y="149" on="1"/>
        <pt x="161" y="0" on="1"/>
        <pt x="-14" y="0" on="1"/>
        <pt x="199" y="693" on="1"/>
        <pt x="400" y="693" on="1"/>
        <pt x="612" y="0" on="1"/>
        <pt x="583" y="-16" on="0"/>
        <pt x="547" y="-48" on="0"/>
        <pt x="527" y="-78" on="0"/>
        <pt x="519" y="-106" on="0"/>
        <pt x="519" y="-119" on="1"/>
        <pt x="519" y="-140" on="0"/>
        <pt x="546" y="-168" on="0"/>
        <pt x="572" y="-168" on="1"/>
        <pt x="592" y="-168" on="0"/>
        <pt x="626" y="-159" on="0"/>
        <pt x="637" y="-154" on="1"/>
        <pt x="669" y="-231" on="1"/>
        <pt x="645" y="-244" on="0"/>
        <pt x="587" y="-258" on="0"/>
        <pt x="556" y="-258" on="1"/>
        <pt x="490" y="-258" on="0"/>
        <pt x="410" y="-193" on="0"/>
        <pt x="410" y="-136" on="1"/>
        <pt x="410" y="-96" on="0"/>
        <pt x="465" y="-26" on="0"/>
        <pt x="515" y="0" on="1"/>
        <pt x="434" y="0" on="1"/>
      </contour>
      <contour>
        <pt x="223" y="269" on="1"/>
        <pt x="371" y="269" on="1"/>
        <pt x="300" y="562" on="1"/>
        <pt x="295" y="562" on="1"/>
      </contour>
    </TTGlyph>
    <TTGlyph name="Aring" xMin="-14" yMin="0" xMax="612" yMax="1002">
      <component glyphName="A" x="0" y="0" flags="0x204"/>
      <component glyphName="glyph00867" x="529" y="0" flags="0x4"/>
    </TTGlyph>
    <TTGlyph name="Atilde" xMin="-14" yMin="0" xMax="612" yMax="929">
      <component glyphName="A" x="0" y="0" flags="0x204"/>
      <component glyphName="glyph00862" x="560" y="0" flags="0x4"/>
    </TTGlyph>
    <TTGlyph name="B" xMin="65" yMin="0" xMax="593" yMax="693">
      <contour>
        <pt x="421" y="210" on="1"/>
        <pt x="421" y="264" on="0"/>
        <pt x="359" y="307" on="0"/>
        <pt x="307" y="307" on="1"/>
        <pt x="231" y="307" on="1"/>
        <pt x="231" y="120" on="1"/>
        <pt x="300" y="120" on="1"/>
        <pt x="324" y="120" on="0"/>
        <pt x="368" y="127" on="0"/>
        <pt x="401" y="147" on="0"/>
        <pt x="421" y="182" on="0"/>
      </contour>
      <contour>
        <pt x="395" y="499" on="1"/>
        <pt x="395" y="540" on="0"/>
        <pt x="344" y="576" on="0"/>
        <pt x="290" y="576" on="1"/>
        <pt x="231" y="576" on="1"/>
        <pt x="231" y="416" on="1"/>
        <pt x="295" y="416" on="1"/>
        <pt x="348" y="416" on="0"/>
        <pt x="395" y="455" on="0"/>
      </contour>
      <contour>
        <pt x="593" y="203" on="1"/>
        <pt x="593" y="143" on="0"/>
        <pt x="546" y="65" on="0"/>
        <pt x="467" y="18" on="0"/>
        <pt x="364" y="0" on="0"/>
        <pt x="307" y="0" on="1"/>
        <pt x="65" y="0" on="1"/>
        <pt x="65" y="693" on="1"/>
        <pt x="297" y="693" on="1"/>
        <pt x="351" y="693" on="0"/>
        <pt x="448" y="676" on="0"/>
        <pt x="521" y="635" on="0"/>
        <pt x="564" y="567" on="0"/>
        <pt x="564" y="516" on="1"/>
        <pt x="564" y="485" on="0"/>
        <pt x="542" y="435" on="0"/>
        <pt x="508" y="398" on="0"/>
        <pt x="465" y="375" on="0"/>
        <pt x="444" y="370" on="1"/>
        <pt x="444" y="366" on="1"/>
        <pt x="469" y="361" on="0"/>
        <pt x="522" y="339" on="0"/>
        <pt x="566" y="301" on="0"/>
        <pt x="593" y="244" on="0"/>
      </contour>
    </TTGlyph>
    <TTGlyph name="Beta" xMin="65" yMin="0" xMax="593" yMax="693">
      <component glyphName="B" x="0" y="0" flags="0x204"/>
    </TTGlyph>
    <TTGlyph name="C" xMin="35" yMin="-17" xMax="572" yMax="711">
      <contour>
        <pt x="354" y="111" on="1"/>
        <pt x="402" y="111" on="0"/>
        <pt x="468" y="146" on="0"/>
        <pt x="497" y="169" on="1"/>
        <pt x="572" y="73" on="1"/>
        <pt x="536" y="37" on="0"/>
        <pt x="423" y="-17" on="0"/>
        <pt x="345" y="-17" on="1"/>
        <pt x="276" y="-17" on="0"/>
        <pt x="162" y="30" on="0"/>
        <pt x="80" y="122" on="0"/>
        <pt x="35" y="259" on="0"/>
        <pt x="35" y="348" on="1"/>
        <pt x="35" y="435" on="0"/>
        <pt x="83" y="570" on="0"/>
        <pt x="167" y="663" on="0"/>
        <pt x="281" y="711" on="0"/>
        <pt x="348" y="711" on="1"/>
        <pt x="419" y="711" on="0"/>
        <pt x="521" y="670" on="0"/>
        <pt x="564" y="634" on="1"/>
        <pt x="482" y="538" on="1"/>
        <pt x="455" y="562" on="0"/>
        <pt x="394" y="588" on="0"/>
        <pt x="358" y="588" on="1"/>
        <pt x="325" y="588" on="0"/>
        <pt x="270" y="561" on="0"/>
        <pt x="230" y="502" on="0"/>
        <pt x="208" y="411" on="0"/>
        <pt x="208" y="348" on="1"/>
        <pt x="208" y="286" on="0"/>
        <pt x="229" y="196" on="0"/>
        <pt x="268" y="138" on="0"/>
        <pt x="322" y="111" on="0"/>
      </contour>
    </TTGlyph>
    <TTGlyph name="Cacute" xMin="35" yMin="-17" xMax="572" yMax="971">
      <component glyphName="C" x="0" y="0" flags="0x204"/>
      <component glyphName="glyph00860" x="553" y="0" flags="0x4"/>
    </TTGlyph>
    <TTGlyph name="Ccaron" xMin="35" yMin="-17" xMax="572" yMax="947">
      <component glyphName="C" x="0" y="0" flags="0x204"/>
      <component glyphName="glyph00869" x="595" y="0" flags="0x4"/>
    </TTGlyph>
    <TTGlyph name="Ccedilla" xMin="35" yMin="-263" xMax="572" yMax="711">
      <contour>
        <pt x="357" y="-145" on="1"/>
        <pt x="357" y="-125" on="0"/>
        <pt x="311" y="-112" on="0"/>
        <pt x="265" y="-112" on="1"/>
        <pt x="276" y="-11" on="1"/>
        <pt x="221" y="-1" on="0"/>
        <pt x="132" y="56" on="0"/>
        <pt x="69" y="147" on="0"/>
        <pt x="35" y="270" on="0"/>
        <pt x="35" y="348" on="1"/>
        <pt x="35" y="435" on="0"/>
        <pt x="83" y="570" on="0"/>
        <pt x="167" y="663" on="0"/>
        <pt x="281" y="711" on="0"/>
        <pt x="348" y="711" on="1"/>
        <pt x="419" y="711" on="0"/>
        <pt x="521" y="670" on="0"/>
        <pt x="564" y="634" on="1"/>
        <pt x="482" y="538" on="1"/>
        <pt x="455" y="562" on="0"/>
        <pt x="394" y="588" on="0"/>
        <pt x="358" y="588" on="1"/>
        <pt x="325" y="588" on="0"/>
        <pt x="270" y="561" on="0"/>
        <pt x="230" y="502" on="0"/>
        <pt x="208" y="411" on="0"/>
        <pt x="208" y="348" on="1"/>
        <pt x="208" y="286" on="0"/>
        <pt x="229" y="196" on="0"/>
        <pt x="268" y="138" on="0"/>
        <pt x="322" y="111" on="0"/>
        <pt x="354" y="111" on="1"/>
        <pt x="402" y="111" on="0"/>
        <pt x="468" y="146" on="0"/>
        <pt x="497" y="169" on="1"/>
        <pt x="572" y="73" on="1"/>
        <pt x="539" y="40" on="0"/>
        <pt x="437" y="-11" on="0"/>
        <pt x="368" y="-16" on="1"/>
        <pt x="368" y="-48" on="1"/>
        <pt x="421" y="-54" on="0"/>
        <pt x="472" y="-106" on="0"/>
        <pt x="472" y="-147" on="1"/>
        <pt x="472" y="-198" on="0"/>
        <pt x="391" y="-263" on="0"/>
        <pt x="322" y="-263" on="1"/>
        <pt x="286" y="-263" on="0"/>
        <pt x="224" y="-244" on="0"/>
        <pt x="204" y="-232" on="1"/>
        <pt x="242" y="-159" on="1"/>
        <pt x="256" y="-167" on="0"/>
        <pt x="288" y="-176" on="0"/>
        <pt x="305" y="-176" on="1"/>
        <pt x="329" y="-176" on="0"/>
        <pt x="357" y="-162" on="0"/>
      </contour>
    </TTGlyph>
    <TTGlyph name="Ccircumflex" xMin="35" yMin="-17" xMax="572" yMax="944">
      <component glyphName="C" x="0" y="0" flags="0x204"/>
      <component glyphName="glyph00861" x="599" y="0" flags="0x4"/>
    </TTGlyph>
    <TTGlyph name="Cdotaccent" xMin="35" yMin="-17" xMax="572" yMax="937">
      <component glyphName="C" x="0" y="0" flags="0x204"/>
      <component glyphName="glyph00865" x="536" y="0" flags="0x4"/>
    </TTGlyph>
    <TTGlyph name="Chi" xMin="-5" yMin="0" xMax="592" yMax="693">
      <component glyphName="X" x="0" y="0" flags="0x204"/>
    </TTGlyph>
    <TTGlyph name="D" xMin="65" yMin="0" xMax="621" yMax="693">
      <contour>
        <pt x="449" y="350" on="1"/>
        <pt x="449" y="419" on="0"/>
        <pt x="424" y="506" on="0"/>
        <pt x="380" y="555" on="0"/>
        <pt x="321" y="573" on="0"/>
        <pt x="287" y="573" on="1"/>
        <pt x="231" y="573" on="1"/>
        <pt x="231" y="120" on="1"/>
        <pt x="287" y="120" on="1"/>
        <pt x="323" y="120" on="0"/>
        <pt x="383" y="141" on="0"/>
        <pt x="425" y="193" on="0"/>
        <pt x="449" y="282" on="0"/>
      </contour>
      <contour>
        <pt x="621" y="350" on="1"/>
        <pt x="621" y="245" on="0"/>
        <pt x="563" y="109" on="0"/>
        <pt x="467" y="30" on="0"/>
        <pt x="342" y="0" on="0"/>
        <pt x="275" y="0" on="1"/>
        <pt x="65" y="0" on="1"/>
        <pt x="65" y="693" on="1"/>
        <pt x="263" y="693" on="1"/>
        <pt x="331" y="693" on="0"/>
        <pt x="460" y="666" on="0"/>
        <pt x="560" y="591" on="0"/>
        <pt x="621" y="457" on="0"/>
      </contour>
    </TTGlyph>
    <TTGlyph name="Dcaron" xMin="65" yMin="0" xMax="621" yMax="947">
      <component glyphName="D" x="0" y="0" flags="0x204"/>
      <component glyphName="glyph00869" x="555" y="0" flags="0x4"/>
    </TTGlyph>
    <TTGlyph name="Dcroat" xMin="8" yMin="0" xMax="625" yMax="693">
      <contour>
        <pt x="625" y="350" on="1"/>
        <pt x="625" y="245" on="0"/>
        <pt x="567" y="109" on="0"/>
        <pt x="471" y="30" on="0"/>
        <pt x="346" y="0" on="0"/>
        <pt x="280" y="0" on="1"/>
        <pt x="70" y="0" on="1"/>
        <pt x="70" y="303" on="1"/>
        <pt x="8" y="303" on="1"/>
        <pt x="8" y="403" on="1"/>
        <pt x="70" y="403" on="1"/>
        <pt x="70" y="693" on="1"/>
        <pt x="268" y="693" on="1"/>
        <pt x="336" y="693" on="0"/>
        <pt x="465" y="666" on="0"/>
        <pt x="565" y="591" on="0"/>
        <pt x="625" y="457" on="0"/>
      </contour>
      <contour>
        <pt x="453" y="350" on="1"/>
        <pt x="453" y="419" on="0"/>
        <pt x="428" y="506" on="0"/>
        <pt x="385" y="555" on="0"/>
        <pt x="326" y="573" on="0"/>
        <pt x="292" y="573" on="1"/>
        <pt x="236" y="573" on="1"/>
        <pt x="236" y="403" on="1"/>
        <pt x="374" y="403" on="1"/>
        <pt x="374" y="303" on="1"/>
        <pt x="236" y="303" on="1"/>
        <pt x="236" y="120" on="1"/>
        <pt x="291" y="120" on="1"/>
        <pt x="327" y="120" on="0"/>
        <pt x="387" y="141" on="0"/>
        <pt x="429" y="193" on="0"/>
        <pt x="453" y="282" on="0"/>
      </contour>
    </TTGlyph>
    <TTGlyph name="Delta" xMin="-14" yMin="0" xMax="612" yMax="693">
      <contour>
        <pt x="199" y="693" on="1"/>
        <pt x="400" y="693" on="1"/>
        <pt x="612" y="0" on="1"/>
        <pt x="-14" y="0" on="1"/>
      </contour>
      <contour>
        <pt x="186" y="122" on="1"/>
        <pt x="408" y="122" on="1"/>
        <pt x="300" y="562" on="1"/>
        <pt x="295" y="562" on="1"/>
      </contour>
    </TTGlyph>
    <TTGlyph name="E" xMin="65" yMin="0" xMax="492" yMax="693">
      <contour>
        <pt x="231" y="575" on="1"/>
        <pt x="231" y="410" on="1"/>
        <pt x="444" y="410" on="1"/>
        <pt x="444" y="294" on="1"/>
        <pt x="231" y="294" on="1"/>
        <pt x="231" y="120" on="1"/>
        <pt x="492" y="120" on="1"/>
        <pt x="492" y="0" on="1"/>
        <pt x="65" y="0" on="1"/>
        <pt x="65" y="693" on="1"/>
        <pt x="492" y="693" on="1"/>
        <pt x="475" y="575" on="1"/>
      </contour>
    </TTGlyph>
    <TTGlyph name="Eacute" xMin="65" yMin="0" xMax="492" yMax="971">
      <component glyphName="E" x="0" y="0" flags="0x204"/>
      <component glyphName="glyph00860" x="501" y="0" flags="0x4"/>
    </TTGlyph>
    <TTGlyph name="Ebreve" xMin="65" yMin="0" xMax="492" yMax="933">
      <component glyphName="E" x="0" y="0" flags="0x204"/>
      <component glyphName="glyph00864" x="523" y="0" flags="0x4"/>
    </TTGlyph>
    <TTGlyph name="Ecaron" xMin="65" yMin="0" xMax="492" yMax="947">
      <component glyphName="E" x="0" y="0" flags="0x204"/>
      <component glyphName="glyph00869" x="536" y="0" flags="0x4"/>
    </TTGlyph>
    <TTGlyph name="Ecircumflex" xMin="65" yMin="0" xMax="492" yMax="944">
      <component glyphName="E" x="0" y="0" flags="0x204"/>
      <component glyphName="glyph00861" x="539" y="0" flags="0x4"/>
    </TTGlyph>
    <TTGlyph name="Edieresis" xMin="65" yMin="0" xMax="492" yMax="918">
      <component glyphName="E" x="0" y="0" flags="0x204"/>
      <component glyphName="glyph00866" x="632" y="0" flags="0x4"/>
    </TTGlyph>
    <TTGlyph name="Edotaccent" xMin="65" yMin="0" xMax="492" yMax="937">
      <component glyphName="E" x="0" y="0" flags="0x204"/>
      <component glyphName="glyph00865" x="474" y="0" flags="0x4"/>
    </TTGlyph>
    <TTGlyph name="Egrave" xMin="65" yMin="0" xMax="492" yMax="971">
      <component glyphName="E" x="0" y="0" flags="0x204"/>
      <component glyphName="glyph00859" x="500" y="0" flags="0x4"/>
    </TTGlyph>
    <TTGlyph name="Emacron" xMin="65" yMin="0" xMax="492" yMax="894">
      <component glyphName="E" x="0" y="0" flags="0x204"/>
      <component glyphName="glyph00863" x="506" y="0" flags="0x4"/>
    </TTGlyph>
    <TTGlyph name="Eng" xMin="65" yMin="-222" xMax="599" yMax="693">
      <contour>
        <pt x="599" y="46" on="1"/>
        <pt x="599" y="-16" on="0"/>
        <pt x="562" y="-104" on="0"/>
        <pt x="501" y="-166" on="0"/>
        <pt x="420" y="-207" on="0"/>
        <pt x="376" y="-222" on="1"/>
        <pt x="335" y="-110" on="1"/>
        <pt x="390" y="-89" on="0"/>
        <pt x="438" y="-40" on="0"/>
        <pt x="443" y="0" on="1"/>
        <pt x="388" y="0" on="1"/>
        <pt x="193" y="529" on="1"/>
        <pt x="189" y="529" on="1"/>
        <pt x="192" y="513" on="0"/>
        <pt x="201" y="457" on="0"/>
        <pt x="209" y="385" on="0"/>
        <pt x="214" y="299" on="0"/>
        <pt x="214" y="253" on="1"/>
        <pt x="214" y="0" on="1"/>
        <pt x="65" y="0" on="1"/>
        <pt x="65" y="693" on="1"/>
        <pt x="273" y="693" on="1"/>
        <pt x="471" y="164" on="1"/>
        <pt x="475" y="164" on="1"/>
        <pt x="467" y="202" on="0"/>
        <pt x="450" y="340" on="0"/>
        <pt x="450" y="436" on="1"/>
        <pt x="450" y="693" on="1"/>
        <pt x="599" y="693" on="1"/>
      </contour>
    </TTGlyph>
    <TTGlyph name="Eogonek" xMin="65" yMin="-258" xMax="549" yMax="693">
      <contour>
        <pt x="231" y="575" on="1"/>
        <pt x="231" y="410" on="1"/>
        <pt x="444" y="410" on="1"/>
        <pt x="444" y="294" on="1"/>
        <pt x="231" y="294" on="1"/>
        <pt x="231" y="119" on="1"/>
        <pt x="492" y="119" on="1"/>
        <pt x="492" y="0" on="1"/>
        <pt x="463" y="-16" on="0"/>
        <pt x="427" y="-48" on="0"/>
        <pt x="407" y="-78" on="0"/>
        <pt x="399" y="-106" on="0"/>
        <pt x="399" y="-119" on="1"/>
        <pt x="399" y="-140" on="0"/>
        <pt x="425" y="-168" on="0"/>
        <pt x="452" y="-168" on="1"/>
        <pt x="471" y="-168" on="0"/>
        <pt x="506" y="-159" on="0"/>
        <pt x="517" y="-154" on="1"/>
        <pt x="549" y="-231" on="1"/>
        <pt x="524" y="-244" on="0"/>
        <pt x="466" y="-258" on="0"/>
        <pt x="436" y="-258" on="1"/>
        <pt x="369" y="-258" on="0"/>
        <pt x="290" y="-193" on="0"/>
        <pt x="290" y="-136" on="1"/>
        <pt x="290" y="-96" on="0"/>
        <pt x="344" y="-26" on="0"/>
        <pt x="395" y="0" on="1"/>
        <pt x="65" y="0" on="1"/>
        <pt x="65" y="693" on="1"/>
        <pt x="492" y="693" on="1"/>
        <pt x="475" y="575" on="1"/>
      </contour>
    </TTGlyph>
    <TTGlyph name="Epsilon" xMin="65" yMin="0" xMax="492" yMax="693">
      <component glyphName="E" x="0" y="0" flags="0x204"/>
    </TTGlyph>
    <TTGlyph name="Epsilontonos" xMin="-21" yMin="0" xMax="642" yMax="720">
      <component glyphName="E" x="150" y="0" flags="0x4"/>
      <component glyphName="glyph00884" x="132" y="0" flags="0x4"/>
    </TTGlyph>
    <TTGlyph name="Eta" xMin="65" yMin="0" xMax="600" yMax="693">
      <component glyphName="H" x="0" y="0" flags="0x204"/>
    </TTGlyph>
    <TTGlyph name="Etatonos" xMin="-21" yMin="0" xMax="750" yMax="720">
      <component glyphName="H" x="150" y="0" flags="0x4"/>
      <component glyphName="glyph00884" x="132" y="0" flags="0x4"/>
    </TTGlyph>
    <TTGlyph name="Eth" xMin="8" yMin="0" xMax="625" yMax="693">
      <contour>
        <pt x="625" y="350" on="1"/>
        <pt x="625" y="245" on="0"/>
        <pt x="567" y="109" on="0"/>
        <pt x="471" y="30" on="0"/>
        <pt x="346" y="0" on="0"/>
        <pt x="280" y="0" on="1"/>
        <pt x="70" y="0" on="1"/>
        <pt x="70" y="303" on="1"/>
        <pt x="8" y="303" on="1"/>
        <pt x="8" y="403" on="1"/>
        <pt x="70" y="403" on="1"/>
        <pt x="70" y="693" on="1"/>
        <pt x="268" y="693" on="1"/>
        <pt x="336" y="693" on="0"/>
        <pt x="465" y="666" on="0"/>
        <pt x="565" y="591" on="0"/>
        <pt x="625" y="457" on="0"/>
      </contour>
      <contour>
        <pt x="453" y="350" on="1"/>
        <pt x="453" y="419" on="0"/>
        <pt x="428" y="506" on="0"/>
        <pt x="385" y="555" on="0"/>
        <pt x="326" y="573" on="0"/>
        <pt x="292" y="573" on="1"/>
        <pt x="236" y="573" on="1"/>
        <pt x="236" y="403" on="1"/>
        <pt x="374" y="403" on="1"/>
        <pt x="374" y="303" on="1"/>
        <pt x="236" y="303" on="1"/>
        <pt x="236" y="120" on="1"/>
        <pt x="291" y="120" on="1"/>
        <pt x="327" y="120" on="0"/>
        <pt x="387" y="141" on="0"/>
        <pt x="429" y="193" on="0"/>
        <pt x="453" y="282" on="0"/>
      </contour>
    </TTGlyph>
    <TTGlyph name="Euro" xMin="16" yMin="-17" xMax="564" yMax="711">
      <contour>
        <pt x="259" y="313" on="1"/>
        <pt x="439" y="313" on="1"/>
        <pt x="417" y="229" on="1"/>
        <pt x="266" y="229" on="1"/>
        <pt x="278" y="161" on="0"/>
        <pt x="340" y="101" on="0"/>
        <pt x="396" y="101" on="1"/>
        <pt x="437" y="101" on="0"/>
        <pt x="506" y="127" on="0"/>
        <pt x="535" y="147" on="1"/>
        <pt x="535" y="20" on="1"/>
        <pt x="498" y="2" on="0"/>
        <pt x="425" y="-17" on="0"/>
        <pt x="384" y="-17" on="1"/>
        <pt x="268" y="-17" on="0"/>
        <pt x="130" y="110" on="0"/>
        <pt x="107" y="229" on="1"/>
        <pt x="16" y="229" on="1"/>
        <pt x="37" y="313" on="1"/>
        <pt x="99" y="313" on="1"/>
        <pt x="99" y="383" on="1"/>
        <pt x="17" y="383" on="1"/>
        <pt x="38" y="466" on="1"/>
        <pt x="110" y="466" on="1"/>
        <pt x="135" y="581" on="0"/>
        <pt x="281" y="711" on="0"/>
        <pt x="393" y="711" on="1"/>
        <pt x="454" y="711" on="0"/>
        <pt x="530" y="682" on="0"/>
        <pt x="564" y="659" on="1"/>
        <pt x="505" y="560" on="1"/>
        <pt x="477" y="579" on="0"/>
        <pt x="433" y="594" on="0"/>
        <pt x="401" y="594" on="1"/>
        <pt x="351" y="594" on="0"/>
        <pt x="284" y="535" on="0"/>
        <pt x="269" y="466" on="1"/>
        <pt x="475" y="466" on="1"/>
        <pt x="454" y="383" on="1"/>
        <pt x="259" y="383" on="1"/>
      </contour>
    </TTGlyph>
    <TTGlyph name="F" xMin="65" yMin="0" xMax="480" yMax="693">
      <contour>
        <pt x="231" y="575" on="1"/>
        <pt x="231" y="393" on="1"/>
        <pt x="433" y="393" on="1"/>
        <pt x="433" y="274" on="1"/>
        <pt x="231" y="274" on="1"/>
        <pt x="231" y="0" on="1"/>
        <pt x="65" y="0" on="1"/>
        <pt x="65" y="693" on="1"/>
        <pt x="480" y="693" on="1"/>
        <pt x="463" y="575" on="1"/>
      </contour>
    </TTGlyph>
    <TTGlyph name="G" xMin="35" yMin="-17" xMax="603" yMax="711">
      <contour>
        <pt x="347" y="-17" on="1"/>
        <pt x="196" y="-17" on="0"/>
        <pt x="35" y="168" on="0"/>
        <pt x="35" y="348" on="1"/>
        <pt x="35" y="436" on="0"/>
        <pt x="87" y="572" on="0"/>
        <pt x="178" y="664" on="0"/>
        <pt x="299" y="711" on="0"/>
        <pt x="368" y="711" on="1"/>
        <pt x="444" y="711" on="0"/>
        <pt x="558" y="663" on="0"/>
        <pt x="600" y="625" on="1"/>
        <pt x="513" y="535" on="1"/>
        <pt x="481" y="563" on="0"/>
        <pt x="418" y="590" on="0"/>
        <pt x="376" y="590" on="1"/>
        <pt x="339" y="590" on="0"/>
        <pt x="277" y="563" on="0"/>
        <pt x="232" y="504" on="0"/>
        <pt x="207" y="412" on="0"/>
        <pt x="207" y="347" on="1"/>
        <pt x="207" y="279" on="0"/>
        <pt x="225" y="186" on="0"/>
        <pt x="260" y="129" on="0"/>
        <pt x="314" y="104" on="0"/>
        <pt x="350" y="104" on="1"/>
        <pt x="402" y="104" on="0"/>
        <pt x="442" y="127" on="1"/>
        <pt x="442" y="282" on="1"/>
        <pt x="351" y="282" on="1"/>
        <pt x="335" y="398" on="1"/>
        <pt x="603" y="398" on="1"/>
        <pt x="603" y="56" on="1"/>
        <pt x="549" y="21" on="0"/>
        <pt x="419" y="-17" on="0"/>
      </contour>
    </TTGlyph>
    <TTGlyph name="Gamma" xMin="65" yMin="0" xMax="505" yMax="693">
      <component glyphName="uni0413" x="0" y="0" flags="0x204"/>
    </TTGlyph>
    <TTGlyph name="Gbreve" xMin="35" yMin="-17" xMax="603" yMax="933">
      <component glyphName="G" x="0" y="0" flags="0x204"/>
      <component glyphName="glyph00864" x="598" y="0" flags="0x4"/>
    </TTGlyph>
    <TTGlyph name="Gcircumflex" xMin="35" yMin="-17" xMax="603" yMax="944">
      <component glyphName="G" x="0" y="0" flags="0x204"/>
      <component glyphName="glyph00861" x="614" y="0" flags="0x4"/>
    </TTGlyph>
    <TTGlyph name="Gdotaccent" xMin="35" yMin="-17" xMax="603" yMax="937">
      <component glyphName="G" x="0" y="0" flags="0x204"/>
      <component glyphName="glyph00865" x="551" y="0" flags="0x4"/>
    </TTGlyph>
    <TTGlyph name="H" xMin="65" yMin="0" xMax="600" yMax="693">
      <contour>
        <pt x="434" y="0" on="1"/>
        <pt x="434" y="296" on="1"/>
        <pt x="231" y="296" on="1"/>
        <pt x="231" y="0" on="1"/>
        <pt x="65" y="0" on="1"/>
        <pt x="65" y="693" on="1"/>
        <pt x="231" y="693" on="1"/>
        <pt x="231" y="425" on="1"/>
        <pt x="434" y="425" on="1"/>
        <pt x="434" y="693" on="1"/>
        <pt x="600" y="693" on="1"/>
        <pt x="600" y="0" on="1"/>
      </contour>
    </TTGlyph>
    <TTGlyph name="Hbar" xMin="13" yMin="0" xMax="667" yMax="693">
      <contour>
        <pt x="441" y="0" on="1"/>
        <pt x="441" y="296" on="1"/>
        <pt x="238" y="296" on="1"/>
        <pt x="238" y="0" on="1"/>
        <pt x="72" y="0" on="1"/>
        <pt x="72" y="500" on="1"/>
        <pt x="13" y="500" on="1"/>
        <pt x="13" y="592" on="1"/>
        <pt x="72" y="592" on="1"/>
        <pt x="72" y="693" on="1"/>
        <pt x="238" y="693" on="1"/>
        <pt x="238" y="592" on="1"/>
        <pt x="441" y="592" on="1"/>
        <pt x="441" y="693" on="1"/>
        <pt x="607" y="693" on="1"/>
        <pt x="607" y="592" on="1"/>
        <pt x="667" y="592" on="1"/>
        <pt x="667" y="500" on="1"/>
        <pt x="607" y="500" on="1"/>
        <pt x="607" y="0" on="1"/>
      </contour>
      <contour>
        <pt x="441" y="425" on="1"/>
        <pt x="441" y="500" on="1"/>
        <pt x="238" y="500" on="1"/>
        <pt x="238" y="425" on="1"/>
      </contour>
    </TTGlyph>
    <TTGlyph name="Hcircumflex" xMin="65" yMin="0" xMax="600" yMax="944">
      <component glyphName="H" x="0" y="0" flags="0x204"/>
      <component glyphName="glyph00861" x="594" y="0" flags="0x4"/>
    </TTGlyph>
    <TTGlyph name="I" xMin="65" yMin="0" xMax="231" yMax="693">
      <contour>
        <pt x="65" y="0" on="1"/>
        <pt x="65" y="693" on="1"/>
        <pt x="231" y="693" on="1"/>
        <pt x="231" y="0" on="1"/>
      </contour>
    </TTGlyph>
    <TTGlyph name="IJ" xMin="65" yMin="-171" xMax="536" yMax="693">
      <component glyphName="I" x="0" y="0" flags="0x4"/>
      <component glyphName="J" x="293" y="0" flags="0x4"/>
    </TTGlyph>
    <TTGlyph name="Iacute" xMin="4" yMin="0" xMax="290" yMax="971">
      <component glyphName="I" x="0" y="0" flags="0x204"/>
      <component glyphName="glyph00860" x="363" y="0" flags="0x4"/>
    </TTGlyph>
    <TTGlyph name="Ibreve" xMin="-24" yMin="0" xMax="321" yMax="933">
      <component glyphName="I" x="0" y="0" flags="0x204"/>
      <component glyphName="glyph00864" x="394" y="0" flags="0x4"/>
    </TTGlyph>
    <TTGlyph name="Icircumflex" xMin="-42" yMin="0" xMax="339" yMax="944">
      <component glyphName="I" x="0" y="0" flags="0x204"/>
      <component glyphName="glyph00861" x="410" y="0" flags="0x4"/>
    </TTGlyph>
    <TTGlyph name="Idieresis" xMin="-51" yMin="0" xMax="347" yMax="918">
      <component glyphName="I" x="0" y="0" flags="0x204"/>
      <component glyphName="glyph00866" x="504" y="0" flags="0x4"/>
    </TTGlyph>
    <TTGlyph name="Idotaccent" xMin="54" yMin="0" xMax="242" yMax="937">
      <component glyphName="I" x="0" y="0" flags="0x204"/>
      <component glyphName="glyph00865" x="347" y="0" flags="0x4"/>
    </TTGlyph>
    <TTGlyph name="Igrave" xMin="1" yMin="0" xMax="287" yMax="971">
      <component glyphName="I" x="0" y="0" flags="0x204"/>
      <component glyphName="glyph00859" x="367" y="0" flags="0x4"/>
    </TTGlyph>
    <TTGlyph name="Imacron" xMin="-6" yMin="0" xMax="301" yMax="894">
      <component glyphName="I" x="0" y="0" flags="0x204"/>
      <component glyphName="glyph00863" x="376" y="0" flags="0x4"/>
    </TTGlyph>
    <TTGlyph name="Iogonek" xMin="30" yMin="-258" xMax="289" yMax="693">
      <contour>
        <pt x="231" y="0" on="1"/>
        <pt x="202" y="-16" on="0"/>
        <pt x="166" y="-48" on="0"/>
        <pt x="146" y="-78" on="0"/>
        <pt x="139" y="-106" on="0"/>
        <pt x="139" y="-119" on="1"/>
        <pt x="139" y="-140" on="0"/>
        <pt x="165" y="-168" on="0"/>
        <pt x="191" y="-168" on="1"/>
        <pt x="211" y="-168" on="0"/>
        <pt x="246" y="-159" on="0"/>
        <pt x="256" y="-154" on="1"/>
        <pt x="289" y="-231" on="1"/>
        <pt x="264" y="-244" on="0"/>
        <pt x="206" y="-258" on="0"/>
        <pt x="176" y="-258" on="1"/>
        <pt x="109" y="-258" on="0"/>
        <pt x="30" y="-193" on="0"/>
        <pt x="30" y="-136" on="1"/>
        <pt x="30" y="-96" on="0"/>
        <pt x="84" y="-26" on="0"/>
        <pt x="135" y="0" on="1"/>
        <pt x="65" y="0" on="1"/>
        <pt x="65" y="693" on="1"/>
        <pt x="231" y="693" on="1"/>
      </contour>
    </TTGlyph>
    <TTGlyph name="Iota" xMin="65" yMin="0" xMax="231" yMax="693">
      <component glyphName="I" x="0" y="0" flags="0x204"/>
    </TTGlyph>
    <TTGlyph name="Iotadieresis" xMin="-51" yMin="0" xMax="347" yMax="918">
      <component glyphName="I" x="0" y="0" flags="0x204"/>
      <component glyphName="glyph00866" x="504" y="0" flags="0x4"/>
    </TTGlyph>
    <TTGlyph name="Iotatonos" xMin="-21" yMin="0" xMax="379" yMax="720">
      <component glyphName="I" x="148" y="0" flags="0x4"/>
      <component glyphName="glyph00884" x="132" y="0" flags="0x4"/>
    </TTGlyph>
    <TTGlyph name="Itilde" xMin="-40" yMin="0" xMax="337" yMax="929">
      <component glyphName="I" x="0" y="0" flags="0x204"/>
      <component glyphName="glyph00862" x="410" y="0" flags="0x4"/>
    </TTGlyph>
    <TTGlyph name="J" xMin="-25" yMin="-171" xMax="243" yMax="693">
      <contour>
        <pt x="-25" y="-52" on="1"/>
        <pt x="8" y="-39" on="0"/>
        <pt x="49" y="-8" on="0"/>
        <pt x="70" y="32" on="0"/>
        <pt x="77" y="81" on="0"/>
        <pt x="77" y="112" on="1"/>
        <pt x="77" y="693" on="1"/>
        <pt x="243" y="693" on="1"/>
        <pt x="243" y="106" on="1"/>
        <pt x="243" y="40" on="0"/>
        <pt x="206" y="-52" on="0"/>
        <pt x="144" y="-116" on="0"/>
        <pt x="63" y="-156" on="0"/>
        <pt x="19" y="-171" on="1"/>
      </contour>
    </TTGlyph>
    <TTGlyph name="Jcircumflex" xMin="-37" yMin="-171" xMax="344" yMax="944">
      <component glyphName="J" x="0" y="0" flags="0x204"/>
      <component glyphName="glyph00861" x="415" y="0" flags="0x4"/>
    </TTGlyph>
    <TTGlyph name="K" xMin="65" yMin="0" xMax="648" yMax="693">
      <contour>
        <pt x="231" y="0" on="1"/>
        <pt x="65" y="0" on="1"/>
        <pt x="65" y="693" on="1"/>
        <pt x="231" y="693" on="1"/>
      </contour>
      <contour>
        <pt x="237" y="370" on="1"/>
        <pt x="455" y="693" on="1"/>
        <pt x="630" y="693" on="1"/>
        <pt x="410" y="382" on="1"/>
        <pt x="648" y="0" on="1"/>
        <pt x="457" y="0" on="1"/>
      </contour>
    </TTGlyph>
    <TTGlyph name="Kappa" xMin="65" yMin="0" xMax="648" yMax="693">
      <component glyphName="K" x="0" y="0" flags="0x204"/>
    </TTGlyph>
    <TTGlyph name="L" xMin="65" yMin="0" xMax="502" yMax="693">
      <contour>
        <pt x="65" y="0" on="1"/>
        <pt x="65" y="693" on="1"/>
        <pt x="231" y="693" on="1"/>
        <pt x="231" y="131" on="1"/>
        <pt x="502" y="131" on="1"/>
        <pt x="484" y="0" on="1"/>
      </contour>
    </TTGlyph>
    <TTGlyph name="Lacute" xMin="20" yMin="0" xMax="502" yMax="971">
      <component glyphName="L" x="0" y="0" flags="0x204"/>
      <component glyphName="glyph00860" x="379" y="0" flags="0x4"/>
    </TTGlyph>
    <TTGlyph name="Lambda" xMin="-14" yMin="0" xMax="602" yMax="693">
      <contour>
        <pt x="161" y="0" on="1"/>
        <pt x="-14" y="0" on="1"/>
        <pt x="194" y="693" on="1"/>
        <pt x="395" y="693" on="1"/>
        <pt x="602" y="0" on="1"/>
        <pt x="424" y="0" on="1"/>
        <pt x="295" y="560" on="1"/>
        <pt x="290" y="560" on="1"/>
      </contour>
    </TTGlyph>
    <TTGlyph name="Lcaron" xMin="65" yMin="0" xMax="502" yMax="709">
      <component glyphName="L" x="0" y="0" flags="0x204"/>
      <component glyphName="uni0313" x="671" y="-170" flags="0x4"/>
    </TTGlyph>
    <TTGlyph name="Ldot" xMin="65" yMin="0" xMax="502" yMax="693">
      <component glyphName="L" x="0" y="0" flags="0x204"/>
      <component glyphName="uni0307" x="573" y="-341" flags="0x4"/>
    </TTGlyph>
    <TTGlyph name="Lslash" xMin="-9" yMin="0" xMax="524" yMax="693">
      <contour>
        <pt x="87" y="0" on="1"/>
        <pt x="87" y="226" on="1"/>
        <pt x="45" y="200" on="1"/>
        <pt x="-9" y="288" on="1"/>
        <pt x="87" y="347" on="1"/>
        <pt x="87" y="693" on="1"/>
        <pt x="253" y="693" on="1"/>
        <pt x="253" y="450" on="1"/>
        <pt x="380" y="528" on="1"/>
        <pt x="435" y="442" on="1"/>
        <pt x="253" y="328" on="1"/>
        <pt x="253" y="131" on="1"/>
        <pt x="524" y="131" on="1"/>
        <pt x="506" y="0" on="1"/>
      </contour>
    </TTGlyph>
    <TTGlyph name="M" xMin="32" yMin="0" xMax="761" yMax="693">
      <contour>
        <pt x="598" y="0" on="1"/>
        <pt x="593" y="86" on="0"/>
        <pt x="585" y="255" on="0"/>
        <pt x="583" y="341" on="1"/>
        <pt x="582" y="366" on="0"/>
        <pt x="582" y="391" on="1"/>
        <pt x="582" y="496" on="1"/>
        <pt x="582" y="523" on="0"/>
        <pt x="584" y="543" on="1"/>
        <pt x="580" y="543" on="1"/>
        <pt x="475" y="71" on="1"/>
        <pt x="316" y="71" on="1"/>
        <pt x="206" y="543" on="1"/>
        <pt x="202" y="543" on="1"/>
        <pt x="205" y="514" on="0"/>
        <pt x="208" y="436" on="0"/>
        <pt x="208" y="394" on="1"/>
        <pt x="208" y="356" on="1"/>
        <pt x="208" y="338" on="0"/>
        <pt x="207" y="319" on="1"/>
        <pt x="194" y="0" on="1"/>
        <pt x="32" y="0" on="1"/>
        <pt x="84" y="693" on="1"/>
        <pt x="293" y="693" on="1"/>
        <pt x="397" y="227" on="1"/>
        <pt x="401" y="227" on="1"/>
        <pt x="499" y="693" on="1"/>
        <pt x="708" y="693" on="1"/>
        <pt x="761" y="0" on="1"/>
      </contour>
    </TTGlyph>
    <TTGlyph name="Mu" xMin="32" yMin="0" xMax="761" yMax="693">
      <component glyphName="M" x="0" y="0" flags="0x204"/>
    </TTGlyph>
    <TTGlyph name="N" xMin="65" yMin="0" xMax="599" yMax="693">
      <contour>
        <pt x="388" y="0" on="1"/>
        <pt x="193" y="529" on="1"/>
        <pt x="189" y="529" on="1"/>
        <pt x="192" y="513" on="0"/>
        <pt x="201" y="459" on="0"/>
        <pt x="209" y="388" on="0"/>
        <pt x="214" y="305" on="0"/>
        <pt x="214" y="259" on="1"/>
        <pt x="214" y="0" on="1"/>
        <pt x="65" y="0" on="1"/>
        <pt x="65" y="693" on="1"/>
        <pt x="273" y="693" on="1"/>
        <pt x="471" y="164" on="1"/>
        <pt x="475" y="164" on="1"/>
        <pt x="466" y="202" on="0"/>
        <pt x="450" y="336" on="0"/>
        <pt x="450" y="430" on="1"/>
        <pt x="450" y="693" on="1"/>
        <pt x="599" y="693" on="1"/>
        <pt x="599" y="0" on="1"/>
      </contour>
    </TTGlyph>
    <TTGlyph name="Nacute" xMin="65" yMin="0" xMax="599" yMax="971">
      <component glyphName="N" x="0" y="0" flags="0x204"/>
      <component glyphName="glyph00860" x="560" y="0" flags="0x4"/>
    </TTGlyph>
    <TTGlyph name="Ncaron" xMin="65" yMin="0" xMax="599" yMax="947">
      <component glyphName="N" x="0" y="0" flags="0x204"/>
      <component glyphName="glyph00869" x="588" y="0" flags="0x4"/>
    </TTGlyph>
    <TTGlyph name="Ntilde" xMin="65" yMin="0" xMax="599" yMax="929">
      <component glyphName="N" x="0" y="0" flags="0x204"/>
      <component glyphName="glyph00862" x="592" y="0" flags="0x4"/>
    </TTGlyph>
    <TTGlyph name="Nu" xMin="65" yMin="0" xMax="599" yMax="693">
      <component glyphName="N" x="0" y="0" flags="0x204"/>
    </TTGlyph>
    <TTGlyph name="O" xMin="35" yMin="-17" xMax="657" yMax="711">
      <contour>
        <pt x="657" y="347" on="1"/>
        <pt x="657" y="262" on="0"/>
        <pt x="615" y="127" on="0"/>
        <pt x="535" y="33" on="0"/>
        <pt x="419" y="-17" on="0"/>
        <pt x="346" y="-17" on="1"/>
        <pt x="199" y="-17" on="0"/>
        <pt x="35" y="172" on="0"/>
        <pt x="35" y="347" on="1"/>
        <pt x="35" y="432" on="0"/>
        <pt x="77" y="567" on="0"/>
        <pt x="157" y="661" on="0"/>
        <pt x="273" y="711" on="0"/>
        <pt x="346" y="711" on="1"/>
        <pt x="493" y="711" on="0"/>
        <pt x="657" y="522" on="0"/>
      </contour>
      <contour>
        <pt x="484" y="347" on="1"/>
        <pt x="484" y="413" on="0"/>
        <pt x="466" y="505" on="0"/>
        <pt x="431" y="563" on="0"/>
        <pt x="380" y="589" on="0"/>
        <pt x="346" y="589" on="1"/>
        <pt x="278" y="589" on="0"/>
        <pt x="208" y="479" on="0"/>
        <pt x="208" y="347" on="1"/>
        <pt x="208" y="215" on="0"/>
        <pt x="279" y="104" on="0"/>
        <pt x="346" y="104" on="1"/>
        <pt x="415" y="104" on="0"/>
        <pt x="484" y="215" on="0"/>
      </contour>
    </TTGlyph>
    <TTGlyph name="OE" xMin="52" yMin="-17" xMax="899" yMax="711">
      <contour>
        <pt x="488" y="347" on="1"/>
        <pt x="488" y="413" on="0"/>
        <pt x="473" y="505" on="0"/>
        <pt x="441" y="563" on="0"/>
        <pt x="392" y="589" on="0"/>
        <pt x="358" y="589" on="1"/>
        <pt x="326" y="589" on="0"/>
        <pt x="277" y="563" on="0"/>
        <pt x="243" y="505" on="0"/>
        <pt x="225" y="413" on="0"/>
        <pt x="225" y="347" on="1"/>
        <pt x="225" y="281" on="0"/>
        <pt x="243" y="189" on="0"/>
        <pt x="278" y="130" on="0"/>
        <pt x="327" y="104" on="0"/>
        <pt x="358" y="104" on="1"/>
        <pt x="393" y="104" on="0"/>
        <pt x="443" y="130" on="0"/>
        <pt x="474" y="189" on="0"/>
        <pt x="488" y="281" on="0"/>
      </contour>
      <contour>
        <pt x="598" y="575" on="1"/>
        <pt x="618" y="542" on="0"/>
        <pt x="643" y="461" on="0"/>
        <pt x="647" y="410" on="1"/>
        <pt x="851" y="410" on="1"/>
        <pt x="851" y="292" on="1"/>
        <pt x="648" y="292" on="1"/>
        <pt x="643" y="239" on="0"/>
        <pt x="619" y="153" on="0"/>
        <pt x="596" y="119" on="1"/>
        <pt x="898" y="119" on="1"/>
        <pt x="898" y="0" on="1"/>
        <pt x="459" y="0" on="1"/>
        <pt x="411" y="-17" on="0"/>
        <pt x="358" y="-17" on="1"/>
        <pt x="286" y="-17" on="0"/>
        <pt x="173" y="31" on="0"/>
        <pt x="94" y="124" on="0"/>
        <pt x="52" y="260" on="0"/>
        <pt x="52" y="347" on="1"/>
        <pt x="52" y="432" on="0"/>
        <pt x="94" y="567" on="0"/>
        <pt x="173" y="661" on="0"/>
        <pt x="287" y="711" on="0"/>
        <pt x="358" y="711" on="1"/>
        <pt x="414" y="711" on="0"/>
        <pt x="462" y="693" on="1"/>
        <pt x="899" y="693" on="1"/>
        <pt x="881" y="575" on="1"/>
      </contour>
    </TTGlyph>
    <TTGlyph name="Oacute" xMin="35" yMin="-17" xMax="657" yMax="971">
      <component glyphName="O" x="0" y="0" flags="0x204"/>
      <component glyphName="glyph00860" x="568" y="0" flags="0x4"/>
    </TTGlyph>
    <TTGlyph name="Obreve" xMin="35" yMin="-17" xMax="657" yMax="933">
      <component glyphName="O" x="0" y="0" flags="0x204"/>
      <component glyphName="glyph00864" x="591" y="0" flags="0x4"/>
    </TTGlyph>
    <TTGlyph name="Ocircumflex" xMin="35" yMin="-17" xMax="657" yMax="944">
      <component glyphName="O" x="0" y="0" flags="0x204"/>
      <component glyphName="glyph00861" x="607" y="0" flags="0x4"/>
    </TTGlyph>
    <TTGlyph name="Odieresis" xMin="35" yMin="-17" xMax="657" yMax="918">
      <component glyphName="O" x="0" y="0" flags="0x204"/>
      <component glyphName="glyph00866" x="702" y="0" flags="0x4"/>
    </TTGlyph>
    <TTGlyph name="Ograve" xMin="35" yMin="-17" xMax="657" yMax="971">
      <component glyphName="O" x="0" y="0" flags="0x204"/>
      <component glyphName="glyph00859" x="563" y="0" flags="0x4"/>
    </TTGlyph>
    <TTGlyph name="Ohungarumlaut" xMin="35" yMin="-17" xMax="657" yMax="1002">
      <component glyphName="O" x="0" y="0" flags="0x204"/>
      <component glyphName="glyph00868" x="629" y="0" flags="0x4"/>
    </TTGlyph>
    <TTGlyph name="Omacron" xMin="35" yMin="-17" xMax="657" yMax="894">
      <component glyphName="O" x="0" y="0" flags="0x204"/>
      <component glyphName="glyph00863" x="574" y="0" flags="0x4"/>
    </TTGlyph>
    <TTGlyph name="Omega" xMin="40" yMin="0" xMax="662" yMax="711">
      <contour>
        <pt x="351" y="589" on="1"/>
        <pt x="214" y="589" on="0"/>
        <pt x="214" y="378" on="1"/>
        <pt x="214" y="321" on="0"/>
        <pt x="223" y="235" on="0"/>
        <pt x="245" y="170" on="0"/>
        <pt x="284" y="125" on="0"/>
        <pt x="314" y="110" on="1"/>
        <pt x="314" y="0" on="1"/>
        <pt x="58" y="0" on="1"/>
        <pt x="58" y="118" on="1"/>
        <pt x="173" y="118" on="1"/>
        <pt x="173" y="122" on="1"/>
        <pt x="110" y="154" on="0"/>
        <pt x="40" y="284" on="0"/>
        <pt x="40" y="378" on="1"/>
        <pt x="40" y="450" on="0"/>
        <pt x="83" y="572" on="0"/>
        <pt x="163" y="661" on="0"/>
        <pt x="279" y="711" on="0"/>
        <pt x="351" y="711" on="1"/>
        <pt x="424" y="711" on="0"/>
        <pt x="539" y="661" on="0"/>
        <pt x="619" y="572" on="0"/>
        <pt x="662" y="450" on="0"/>
        <pt x="662" y="378" on="1"/>
        <pt x="662" y="284" on="0"/>
        <pt x="592" y="154" on="0"/>
        <pt x="529" y="122" on="1"/>
        <pt x="529" y="118" on="1"/>
        <pt x="645" y="118" on="1"/>
        <pt x="645" y="0" on="1"/>
        <pt x="389" y="0" on="1"/>
        <pt x="389" y="110" on="1"/>
        <pt x="419" y="125" on="0"/>
        <pt x="457" y="170" on="0"/>
        <pt x="480" y="235" on="0"/>
        <pt x="488" y="321" on="0"/>
        <pt x="488" y="378" on="1"/>
        <pt x="488" y="589" on="0"/>
      </contour>
    </TTGlyph>
    <TTGlyph name="Omegatonos" xMin="-22" yMin="0" xMax="752" yMax="720">
      <component glyphName="Omega" x="90" y="0" flags="0x4"/>
      <component glyphName="glyph00884" x="131" y="0" flags="0x4"/>
    </TTGlyph>
    <TTGlyph name="Omicron" xMin="35" yMin="-17" xMax="657" yMax="711">
      <component glyphName="O" x="0" y="0" flags="0x204"/>
    </TTGlyph>
    <TTGlyph name="Omicrontonos" xMin="-27" yMin="-17" xMax="745" yMax="720">
      <component glyphName="O" x="88" y="0" flags="0x4"/>
      <component glyphName="glyph00884" x="126" y="0" flags="0x4"/>
    </TTGlyph>
    <TTGlyph name="Oslash" xMin="35" yMin="-136" xMax="657" yMax="828">
      <contour>
        <pt x="487" y="347" on="1"/>
        <pt x="487" y="422" on="0"/>
        <pt x="467" y="516" on="0"/>
        <pt x="448" y="542" on="1"/>
        <pt x="318" y="106" on="1"/>
        <pt x="325" y="105" on="0"/>
        <pt x="338" y="104" on="0"/>
        <pt x="346" y="104" on="1"/>
        <pt x="415" y="104" on="0"/>
        <pt x="487" y="215" on="0"/>
      </contour>
      <contour>
        <pt x="205" y="347" on="1"/>
        <pt x="205" y="269" on="0"/>
        <pt x="225" y="174" on="0"/>
        <pt x="245" y="148" on="1"/>
        <pt x="375" y="587" on="1"/>
        <pt x="370" y="588" on="0"/>
        <pt x="354" y="589" on="0"/>
        <pt x="346" y="589" on="1"/>
        <pt x="312" y="589" on="0"/>
        <pt x="260" y="563" on="0"/>
        <pt x="224" y="505" on="0"/>
        <pt x="205" y="413" on="0"/>
      </contour>
      <contour>
        <pt x="657" y="347" on="1"/>
        <pt x="657" y="262" on="0"/>
        <pt x="615" y="127" on="0"/>
        <pt x="535" y="33" on="0"/>
        <pt x="419" y="-17" on="0"/>
        <pt x="346" y="-17" on="1"/>
        <pt x="321" y="-17" on="0"/>
        <pt x="302" y="-13" on="1"/>
        <pt x="265" y="-136" on="1"/>
        <pt x="140" y="-103" on="1"/>
        <pt x="180" y="25" on="1"/>
        <pt x="111" y="67" on="0"/>
        <pt x="35" y="229" on="0"/>
        <pt x="35" y="347" on="1"/>
        <pt x="35" y="432" on="0"/>
        <pt x="77" y="567" on="0"/>
        <pt x="157" y="661" on="0"/>
        <pt x="273" y="711" on="0"/>
        <pt x="346" y="711" on="1"/>
        <pt x="358" y="711" on="0"/>
        <pt x="380" y="709" on="0"/>
        <pt x="391" y="707" on="1"/>
        <pt x="428" y="828" on="1"/>
        <pt x="553" y="795" on="1"/>
        <pt x="513" y="668" on="1"/>
        <pt x="582" y="626" on="0"/>
        <pt x="657" y="464" on="0"/>
      </contour>
    </TTGlyph>
    <TTGlyph name="Oslashacute" xMin="35" yMin="-136" xMax="657" yMax="994">
      <component glyphName="Oslash" x="0" y="0" flags="0x204"/>
      <component glyphName="glyph00860" x="538" y="23" flags="0x4"/>
    </TTGlyph>
    <TTGlyph name="Otilde" xMin="35" yMin="-17" xMax="657" yMax="929">
      <component glyphName="O" x="0" y="0" flags="0x204"/>
      <component glyphName="glyph00862" x="608" y="0" flags="0x4"/>
    </TTGlyph>
    <TTGlyph name="P" xMin="65" yMin="0" xMax="581" yMax="693">
      <contour>
        <pt x="410" y="467" on="1"/>
        <pt x="410" y="575" on="0"/>
        <pt x="286" y="575" on="1"/>
        <pt x="231" y="575" on="1"/>
        <pt x="231" y="350" on="1"/>
        <pt x="292" y="350" on="1"/>
        <pt x="349" y="350" on="0"/>
        <pt x="410" y="406" on="0"/>
      </contour>
      <contour>
        <pt x="581" y="467" on="1"/>
        <pt x="581" y="406" on="0"/>
        <pt x="541" y="317" on="0"/>
        <pt x="469" y="258" on="0"/>
        <pt x="367" y="230" on="0"/>
        <pt x="306" y="230" on="1"/>
        <pt x="231" y="230" on="1"/>
        <pt x="231" y="0" on="1"/>
        <pt x="65" y="0" on="1"/>
        <pt x="65" y="693" on="1"/>
        <pt x="284" y="693" on="1"/>
        <pt x="425" y="693" on="0"/>
        <pt x="581" y="581" on="0"/>
      </contour>
    </TTGlyph>
    <TTGlyph name="Phi" xMin="16" yMin="0" xMax="829" yMax="693">
      <contour>
        <pt x="342" y="0" on="1"/>
        <pt x="342" y="77" on="1"/>
        <pt x="273" y="80" on="0"/>
        <pt x="154" y="113" on="0"/>
        <pt x="66" y="178" on="0"/>
        <pt x="16" y="279" on="0"/>
        <pt x="16" y="350" on="1"/>
        <pt x="16" y="421" on="0"/>
        <pt x="66" y="520" on="0"/>
        <pt x="153" y="583" on="0"/>
        <pt x="273" y="614" on="0"/>
        <pt x="342" y="617" on="1"/>
        <pt x="342" y="693" on="1"/>
        <pt x="503" y="693" on="1"/>
        <pt x="503" y="617" on="1"/>
        <pt x="572" y="614" on="0"/>
        <pt x="691" y="583" on="0"/>
        <pt x="779" y="520" on="0"/>
        <pt x="829" y="421" on="0"/>
        <pt x="829" y="350" on="1"/>
        <pt x="829" y="279" on="0"/>
        <pt x="778" y="178" on="0"/>
        <pt x="690" y="113" on="0"/>
        <pt x="571" y="80" on="0"/>
        <pt x="503" y="77" on="1"/>
        <pt x="503" y="0" on="1"/>
      </contour>
      <contour>
        <pt x="660" y="350" on="1"/>
        <pt x="660" y="396" on="0"/>
        <pt x="636" y="458" on="0"/>
        <pt x="592" y="497" on="0"/>
        <pt x="532" y="516" on="0"/>
        <pt x="496" y="518" on="1"/>
        <pt x="496" y="178" on="1"/>
        <pt x="533" y="181" on="0"/>
        <pt x="594" y="202" on="0"/>
        <pt x="637" y="242" on="0"/>
        <pt x="660" y="305" on="0"/>
      </contour>
      <contour>
        <pt x="185" y="350" on="1"/>
        <pt x="185" y="305" on="0"/>
        <pt x="208" y="242" on="0"/>
        <pt x="250" y="202" on="0"/>
        <pt x="311" y="181" on="0"/>
        <pt x="349" y="178" on="1"/>
        <pt x="349" y="518" on="1"/>
        <pt x="312" y="516" on="0"/>
        <pt x="252" y="497" on="0"/>
        <pt x="209" y="458" on="0"/>
        <pt x="185" y="395" on="0"/>
      </contour>
    </TTGlyph>
    <TTGlyph name="Pi" xMin="65" yMin="0" xMax="600" yMax="693">
      <contour>
        <pt x="434" y="0" on="1"/>
        <pt x="434" y="567" on="1"/>
        <pt x="231" y="567" on="1"/>
        <pt x="231" y="0" on="1"/>
        <pt x="65" y="0" on="1"/>
        <pt x="65" y="693" on="1"/>
        <pt x="600" y="693" on="1"/>
        <pt x="600" y="0" on="1"/>
      </contour>
    </TTGlyph>
    <TTGlyph name="Psi" xMin="19" yMin="0" xMax="713" yMax="693">
      <contour>
        <pt x="283" y="0" on="1"/>
        <pt x="283" y="185" on="1"/>
        <pt x="146" y="201" on="0"/>
        <pt x="19" y="335" on="0"/>
        <pt x="19" y="437" on="1"/>
        <pt x="19" y="693" on="1"/>
        <pt x="178" y="693" on="1"/>
        <pt x="178" y="433" on="1"/>
        <pt x="178" y="380" on="0"/>
        <pt x="224" y="312" on="0"/>
        <pt x="290" y="300" on="1"/>
        <pt x="290" y="693" on="1"/>
        <pt x="441" y="693" on="1"/>
        <pt x="441" y="301" on="1"/>
        <pt x="506" y="313" on="0"/>
        <pt x="554" y="381" on="0"/>
        <pt x="554" y="433" on="1"/>
        <pt x="554" y="693" on="1"/>
        <pt x="713" y="693" on="1"/>
        <pt x="713" y="437" on="1"/>
        <pt x="713" y="388" on="0"/>
        <pt x="681" y="304" on="0"/>
        <pt x="616" y="238" on="0"/>
        <pt x="517" y="194" on="0"/>
        <pt x="449" y="186" on="1"/>
        <pt x="449" y="0" on="1"/>
      </contour>
    </TTGlyph>
    <TTGlyph name="Q" xMin="35" yMin="-148" xMax="708" yMax="711">
      <contour>
        <pt x="484" y="347" on="1"/>
        <pt x="484" y="413" on="0"/>
        <pt x="466" y="505" on="0"/>
        <pt x="431" y="563" on="0"/>
        <pt x="380" y="589" on="0"/>
        <pt x="346" y="589" on="1"/>
        <pt x="278" y="589" on="0"/>
        <pt x="208" y="479" on="0"/>
        <pt x="208" y="347" on="1"/>
        <pt x="208" y="215" on="0"/>
        <pt x="279" y="104" on="0"/>
        <pt x="346" y="104" on="1"/>
        <pt x="415" y="104" on="0"/>
        <pt x="484" y="215" on="0"/>
      </contour>
      <contour>
        <pt x="657" y="347" on="1"/>
        <pt x="657" y="247" on="0"/>
        <pt x="581" y="91" on="0"/>
        <pt x="505" y="49" on="1"/>
        <pt x="506" y="45" on="1"/>
        <pt x="572" y="45" on="0"/>
        <pt x="666" y="13" on="0"/>
        <pt x="708" y="-18" on="1"/>
        <pt x="609" y="-148" on="1"/>
        <pt x="585" y="-121" on="0"/>
        <pt x="531" y="-72" on="0"/>
        <pt x="465" y="-36" on="0"/>
        <pt x="386" y="-14" on="0"/>
        <pt x="338" y="-14" on="1"/>
        <pt x="193" y="-14" on="0"/>
        <pt x="35" y="172" on="0"/>
        <pt x="35" y="347" on="1"/>
        <pt x="35" y="432" on="0"/>
        <pt x="77" y="567" on="0"/>
        <pt x="157" y="661" on="0"/>
        <pt x="273" y="711" on="0"/>
        <pt x="346" y="711" on="1"/>
        <pt x="493" y="711" on="0"/>
        <pt x="657" y="522" on="0"/>
      </contour>
    </TTGlyph>
    <TTGlyph name="R" xMin="65" yMin="0" xMax="623" yMax="693">
      <contour>
        <pt x="579" y="482" on="1"/>
        <pt x="579" y="445" on="0"/>
        <pt x="558" y="385" on="0"/>
        <pt x="520" y="338" on="0"/>
        <pt x="470" y="304" on="0"/>
        <pt x="441" y="292" on="1"/>
        <pt x="623" y="0" on="1"/>
        <pt x="436" y="0" on="1"/>
        <pt x="287" y="264" on="1"/>
        <pt x="231" y="264" on="1"/>
        <pt x="231" y="0" on="1"/>
        <pt x="65" y="0" on="1"/>
        <pt x="65" y="693" on="1"/>
        <pt x="294" y="693" on="1"/>
        <pt x="437" y="693" on="0"/>
        <pt x="579" y="591" on="0"/>
      </contour>
      <contour>
        <pt x="409" y="482" on="1"/>
        <pt x="409" y="532" on="0"/>
        <pt x="351" y="577" on="0"/>
        <pt x="294" y="577" on="1"/>
        <pt x="231" y="577" on="1"/>
        <pt x="231" y="378" on="1"/>
        <pt x="300" y="378" on="1"/>
        <pt x="354" y="378" on="0"/>
        <pt x="409" y="427" on="0"/>
      </contour>
    </TTGlyph>
    <TTGlyph name="Racute" xMin="65" yMin="0" xMax="623" yMax="971">
      <component glyphName="R" x="0" y="0" flags="0x204"/>
      <component glyphName="glyph00860" x="521" y="0" flags="0x4"/>
    </TTGlyph>
    <TTGlyph name="Rcaron" xMin="65" yMin="0" xMax="623" yMax="947">
      <component glyphName="R" x="0" y="0" flags="0x204"/>
      <component glyphName="glyph00869" x="558" y="0" flags="0x4"/>
    </TTGlyph>
    <TTGlyph name="Rho" xMin="65" yMin="0" xMax="581" yMax="693">
      <component glyphName="P" x="0" y="0" flags="0x204"/>
    </TTGlyph>
    <TTGlyph name="S" xMin="3" yMin="-17" xMax="548" yMax="711">
      <contour>
        <pt x="548" y="203" on="1"/>
        <pt x="548" y="154" on="0"/>
        <pt x="510" y="73" on="0"/>
        <pt x="440" y="15" on="0"/>
        <pt x="337" y="-17" on="0"/>
        <pt x="273" y="-17" on="1"/>
        <pt x="181" y="-17" on="0"/>
        <pt x="46" y="41" on="0"/>
        <pt x="3" y="83" on="1"/>
        <pt x="88" y="176" on="1"/>
        <pt x="126" y="142" on="0"/>
        <pt x="215" y="106" on="0"/>
        <pt x="266" y="106" on="1"/>
        <pt x="317" y="106" on="0"/>
        <pt x="375" y="151" on="0"/>
        <pt x="375" y="190" on="1"/>
        <pt x="375" y="209" on="0"/>
        <pt x="364" y="237" on="0"/>
        <pt x="336" y="261" on="0"/>
        <pt x="289" y="282" on="0"/>
        <pt x="253" y="293" on="1"/>
        <pt x="193" y="312" on="0"/>
        <pt x="112" y="355" on="0"/>
        <pt x="62" y="407" on="0"/>
        <pt x="40" y="470" on="0"/>
        <pt x="40" y="509" on="1"/>
        <pt x="40" y="557" on="0"/>
        <pt x="80" y="632" on="0"/>
        <pt x="150" y="684" on="0"/>
        <pt x="242" y="711" on="0"/>
        <pt x="295" y="711" on="1"/>
        <pt x="373" y="711" on="0"/>
        <pt x="490" y="665" on="0"/>
        <pt x="536" y="621" on="1"/>
        <pt x="458" y="531" on="1"/>
        <pt x="388" y="589" on="0"/>
        <pt x="309" y="589" on="1"/>
        <pt x="264" y="589" on="0"/>
        <pt x="212" y="554" on="0"/>
        <pt x="212" y="522" on="1"/>
        <pt x="212" y="505" on="0"/>
        <pt x="223" y="481" on="0"/>
        <pt x="251" y="460" on="0"/>
        <pt x="302" y="440" on="0"/>
        <pt x="342" y="427" on="1"/>
        <pt x="391" y="411" on="0"/>
        <pt x="468" y="373" on="0"/>
        <pt x="520" y="320" on="0"/>
        <pt x="548" y="251" on="0"/>
      </contour>
    </TTGlyph>
    <TTGlyph name="Sacute" xMin="3" yMin="-17" xMax="548" yMax="971">
      <component glyphName="S" x="0" y="0" flags="0x204"/>
      <component glyphName="glyph00860" x="501" y="0" flags="0x4"/>
    </TTGlyph>
    <TTGlyph name="Scaron" xMin="3" yMin="-17" xMax="548" yMax="947">
      <component glyphName="S" x="0" y="0" flags="0x204"/>
      <component glyphName="glyph00869" x="551" y="0" flags="0x4"/>
    </TTGlyph>
    <TTGlyph name="Scedilla" xMin="3" yMin="-263" xMax="548" yMax="711">
      <contour>
        <pt x="548" y="203" on="1"/>
        <pt x="548" y="115" on="0"/>
        <pt x="432" y="-1" on="0"/>
        <pt x="327" y="-14" on="1"/>
        <pt x="327" y="-48" on="1"/>
        <pt x="380" y="-54" on="0"/>
        <pt x="431" y="-106" on="0"/>
        <pt x="431" y="-147" on="1"/>
        <pt x="431" y="-198" on="0"/>
        <pt x="350" y="-263" on="0"/>
        <pt x="281" y="-263" on="1"/>
        <pt x="245" y="-263" on="0"/>
        <pt x="183" y="-244" on="0"/>
        <pt x="163" y="-232" on="1"/>
        <pt x="200" y="-159" on="1"/>
        <pt x="215" y="-167" on="0"/>
        <pt x="247" y="-176" on="0"/>
        <pt x="264" y="-176" on="1"/>
        <pt x="288" y="-176" on="0"/>
        <pt x="315" y="-162" on="0"/>
        <pt x="315" y="-145" on="1"/>
        <pt x="315" y="-125" on="0"/>
        <pt x="270" y="-112" on="0"/>
        <pt x="224" y="-112" on="1"/>
        <pt x="234" y="-15" on="1"/>
        <pt x="156" y="-9" on="0"/>
        <pt x="41" y="45" on="0"/>
        <pt x="3" y="83" on="1"/>
        <pt x="88" y="176" on="1"/>
        <pt x="126" y="142" on="0"/>
        <pt x="215" y="106" on="0"/>
        <pt x="266" y="106" on="1"/>
        <pt x="317" y="106" on="0"/>
        <pt x="375" y="151" on="0"/>
        <pt x="375" y="190" on="1"/>
        <pt x="375" y="209" on="0"/>
        <pt x="364" y="237" on="0"/>
        <pt x="336" y="261" on="0"/>
        <pt x="289" y="282" on="0"/>
        <pt x="253" y="293" on="1"/>
        <pt x="193" y="312" on="0"/>
        <pt x="112" y="355" on="0"/>
        <pt x="62" y="407" on="0"/>
        <pt x="40" y="470" on="0"/>
        <pt x="40" y="509" on="1"/>
        <pt x="40" y="557" on="0"/>
        <pt x="80" y="632" on="0"/>
        <pt x="150" y="684" on="0"/>
        <pt x="242" y="711" on="0"/>
        <pt x="295" y="711" on="1"/>
        <pt x="373" y="711" on="0"/>
        <pt x="490" y="665" on="0"/>
        <pt x="536" y="621" on="1"/>
        <pt x="458" y="531" on="1"/>
        <pt x="388" y="589" on="0"/>
        <pt x="309" y="589" on="1"/>
        <pt x="264" y="589" on="0"/>
        <pt x="212" y="554" on="0"/>
        <pt x="212" y="522" on="1"/>
        <pt x="212" y="505" on="0"/>
        <pt x="223" y="481" on="0"/>
        <pt x="251" y="460" on="0"/>
        <pt x="302" y="440" on="0"/>
        <pt x="342" y="427" on="1"/>
        <pt x="391" y="411" on="0"/>
        <pt x="468" y="373" on="0"/>
        <pt x="520" y="320" on="0"/>
        <pt x="548" y="251" on="0"/>
      </contour>
    </TTGlyph>
    <TTGlyph name="Scircumflex" xMin="3" yMin="-17" xMax="548" yMax="944">
      <component glyphName="S" x="0" y="0" flags="0x204"/>
      <component glyphName="glyph00861" x="555" y="0" flags="0x4"/>
    </TTGlyph>
    <TTGlyph name="Sigma" xMin="19" yMin="0" xMax="480" yMax="693">
      <contour>
        <pt x="358" y="311" on="1"/>
        <pt x="187" y="123" on="1"/>
        <pt x="480" y="123" on="1"/>
        <pt x="480" y="0" on="1"/>
        <pt x="19" y="0" on="1"/>
        <pt x="19" y="120" on="1"/>
        <pt x="214" y="341" on="1"/>
        <pt x="19" y="573" on="1"/>
        <pt x="19" y="693" on="1"/>
        <pt x="480" y="693" on="1"/>
        <pt x="480" y="573" on="1"/>
        <pt x="189" y="573" on="1"/>
        <pt x="358" y="376" on="1"/>
      </contour>
    </TTGlyph>
    <TTGlyph name="T" xMin="9" yMin="0" xMax="541" yMax="693">
      <contour>
        <pt x="354" y="566" on="1"/>
        <pt x="354" y="0" on="1"/>
        <pt x="188" y="0" on="1"/>
        <pt x="188" y="566" on="1"/>
        <pt x="9" y="566" on="1"/>
        <pt x="9" y="693" on="1"/>
        <pt x="541" y="693" on="1"/>
        <pt x="524" y="566" on="1"/>
      </contour>
    </TTGlyph>
    <TTGlyph name="Tau" xMin="9" yMin="0" xMax="541" yMax="693">
      <component glyphName="T" x="0" y="0" flags="0x204"/>
    </TTGlyph>
    <TTGlyph name="Tbar" xMin="9" yMin="0" xMax="541" yMax="693">
      <contour>
        <pt x="469" y="313" on="1"/>
        <pt x="354" y="313" on="1"/>
        <pt x="354" y="0" on="1"/>
        <pt x="188" y="0" on="1"/>
        <pt x="188" y="313" on="1"/>
        <pt x="73" y="313" on="1"/>
        <pt x="73" y="406" on="1"/>
        <pt x="188" y="406" on="1"/>
        <pt x="188" y="566" on="1"/>
        <pt x="9" y="566" on="1"/>
        <pt x="9" y="693" on="1"/>
        <pt x="541" y="693" on="1"/>
        <pt x="524" y="566" on="1"/>
        <pt x="354" y="566" on="1"/>
        <pt x="354" y="406" on="1"/>
        <pt x="469" y="406" on="1"/>
      </contour>
    </TTGlyph>
    <TTGlyph name="Tcaron" xMin="9" yMin="0" xMax="541" yMax="947">
      <component glyphName="T" x="0" y="0" flags="0x204"/>
      <component glyphName="glyph00869" x="527" y="0" flags="0x4"/>
    </TTGlyph>
    <TTGlyph name="Theta" xMin="35" yMin="-17" xMax="657" yMax="711">
      <contour>
        <pt x="447" y="304" on="1"/>
        <pt x="245" y="304" on="1"/>
        <pt x="245" y="399" on="1"/>
        <pt x="447" y="399" on="1"/>
      </contour>
      <contour>
        <pt x="657" y="347" on="1"/>
        <pt x="657" y="262" on="0"/>
        <pt x="615" y="127" on="0"/>
        <pt x="535" y="33" on="0"/>
        <pt x="419" y="-17" on="0"/>
        <pt x="346" y="-17" on="1"/>
        <pt x="199" y="-17" on="0"/>
        <pt x="35" y="172" on="0"/>
        <pt x="35" y="347" on="1"/>
        <pt x="35" y="432" on="0"/>
        <pt x="77" y="567" on="0"/>
        <pt x="157" y="661" on="0"/>
        <pt x="273" y="711" on="0"/>
        <pt x="346" y="711" on="1"/>
        <pt x="493" y="711" on="0"/>
        <pt x="657" y="522" on="0"/>
      </contour>
      <contour>
        <pt x="493" y="347" on="1"/>
        <pt x="493" y="413" on="0"/>
        <pt x="473" y="505" on="0"/>
        <pt x="436" y="563" on="0"/>
        <pt x="381" y="589" on="0"/>
        <pt x="346" y="589" on="1"/>
        <pt x="311" y="589" on="0"/>
        <pt x="256" y="563" on="0"/>
        <pt x="219" y="505" on="0"/>
        <pt x="199" y="413" on="0"/>
        <pt x="199" y="347" on="1"/>
        <pt x="199" y="281" on="0"/>
        <pt x="219" y="189" on="0"/>
        <pt x="257" y="130" on="0"/>
        <pt x="311" y="104" on="0"/>
        <pt x="346" y="104" on="1"/>
        <pt x="417" y="104" on="0"/>
        <pt x="493" y="215" on="0"/>
      </contour>
    </TTGlyph>
    <TTGlyph name="Thorn" xMin="65" yMin="0" xMax="583" yMax="693">
      <contour>
        <pt x="410" y="353" on="1"/>
        <pt x="410" y="411" on="0"/>
        <pt x="350" y="463" on="0"/>
        <pt x="290" y="463" on="1"/>
        <pt x="231" y="463" on="1"/>
        <pt x="231" y="236" on="1"/>
        <pt x="297" y="236" on="1"/>
        <pt x="351" y="236" on="0"/>
        <pt x="410" y="288" on="0"/>
      </contour>
      <contour>
        <pt x="583" y="354" on="1"/>
        <pt x="583" y="232" on="0"/>
        <pt x="437" y="116" on="0"/>
        <pt x="308" y="116" on="1"/>
        <pt x="231" y="116" on="1"/>
        <pt x="231" y="0" on="1"/>
        <pt x="65" y="0" on="1"/>
        <pt x="65" y="693" on="1"/>
        <pt x="231" y="693" on="1"/>
        <pt x="231" y="581" on="1"/>
        <pt x="286" y="581" on="1"/>
        <pt x="428" y="581" on="0"/>
        <pt x="583" y="469" on="0"/>
      </contour>
    </TTGlyph>
    <TTGlyph name="U" xMin="55" yMin="-17" xMax="599" yMax="693">
      <contour>
        <pt x="599" y="232" on="1"/>
        <pt x="599" y="179" on="0"/>
        <pt x="565" y="88" on="0"/>
        <pt x="497" y="21" on="0"/>
        <pt x="395" y="-17" on="0"/>
        <pt x="327" y="-17" on="1"/>
        <pt x="259" y="-17" on="0"/>
        <pt x="157" y="19" on="0"/>
        <pt x="89" y="85" on="0"/>
        <pt x="55" y="176" on="0"/>
        <pt x="55" y="232" on="1"/>
        <pt x="55" y="693" on="1"/>
        <pt x="221" y="693" on="1"/>
        <pt x="221" y="237" on="1"/>
        <pt x="221" y="171" on="0"/>
        <pt x="271" y="106" on="0"/>
        <pt x="327" y="106" on="1"/>
        <pt x="383" y="106" on="0"/>
        <pt x="433" y="171" on="0"/>
        <pt x="433" y="237" on="1"/>
        <pt x="433" y="693" on="1"/>
        <pt x="599" y="693" on="1"/>
      </contour>
    </TTGlyph>
    <TTGlyph name="Uacute" xMin="55" yMin="-17" xMax="599" yMax="971">
      <component glyphName="U" x="0" y="0" flags="0x204"/>
      <component glyphName="glyph00860" x="545" y="0" flags="0x4"/>
    </TTGlyph>
    <TTGlyph name="Ubreve" xMin="55" yMin="-17" xMax="599" yMax="933">
      <component glyphName="U" x="0" y="0" flags="0x204"/>
      <component glyphName="glyph00864" x="572" y="0" flags="0x4"/>
    </TTGlyph>
    <TTGlyph name="Ucircumflex" xMin="55" yMin="-17" xMax="599" yMax="944">
      <component glyphName="U" x="0" y="0" flags="0x204"/>
      <component glyphName="glyph00861" x="588" y="0" flags="0x4"/>
    </TTGlyph>
    <TTGlyph name="Udieresis" xMin="55" yMin="-17" xMax="599" yMax="918">
      <component glyphName="U" x="0" y="0" flags="0x204"/>
      <component glyphName="glyph00866" x="682" y="0" flags="0x4"/>
    </TTGlyph>
    <TTGlyph name="Ugrave" xMin="55" yMin="-17" xMax="599" yMax="971">
      <component glyphName="U" x="0" y="0" flags="0x204"/>
      <component glyphName="glyph00859" x="542" y="0" flags="0x4"/>
    </TTGlyph>
    <TTGlyph name="Uhungarumlaut" xMin="55" yMin="-17" xMax="599" yMax="1002">
      <component glyphName="U" x="0" y="0" flags="0x204"/>
      <component glyphName="glyph00868" x="597" y="0" flags="0x4"/>
    </TTGlyph>
    <TTGlyph name="Umacron" xMin="55" yMin="-17" xMax="599" yMax="894">
      <component glyphName="U" x="0" y="0" flags="0x204"/>
      <component glyphName="glyph00863" x="555" y="0" flags="0x4"/>
    </TTGlyph>
    <TTGlyph name="Uogonek" xMin="55" yMin="-258" xMax="599" yMax="693">
      <contour>
        <pt x="599" y="693" on="1"/>
        <pt x="599" y="232" on="1"/>
        <pt x="599" y="152" on="0"/>
        <pt x="523" y="32" on="0"/>
        <pt x="448" y="3" on="1"/>
        <pt x="418" y="-13" on="0"/>
        <pt x="379" y="-45" on="0"/>
        <pt x="358" y="-76" on="0"/>
        <pt x="350" y="-106" on="0"/>
        <pt x="350" y="-119" on="1"/>
        <pt x="350" y="-140" on="0"/>
        <pt x="376" y="-168" on="0"/>
        <pt x="403" y="-168" on="1"/>
        <pt x="423" y="-168" on="0"/>
        <pt x="457" y="-159" on="0"/>
        <pt x="468" y="-154" on="1"/>
        <pt x="500" y="-231" on="1"/>
        <pt x="475" y="-244" on="0"/>
        <pt x="417" y="-258" on="0"/>
        <pt x="387" y="-258" on="1"/>
        <pt x="321" y="-258" on="0"/>
        <pt x="241" y="-193" on="0"/>
        <pt x="241" y="-136" on="1"/>
        <pt x="241" y="-101" on="0"/>
        <pt x="284" y="-40" on="0"/>
        <pt x="325" y="-17" on="1"/>
        <pt x="192" y="-15" on="0"/>
        <pt x="55" y="117" on="0"/>
        <pt x="55" y="232" on="1"/>
        <pt x="55" y="693" on="1"/>
        <pt x="221" y="693" on="1"/>
        <pt x="221" y="237" on="1"/>
        <pt x="221" y="171" on="0"/>
        <pt x="271" y="106" on="0"/>
        <pt x="327" y="106" on="1"/>
        <pt x="383" y="106" on="0"/>
        <pt x="433" y="171" on="0"/>
        <pt x="433" y="237" on="1"/>
        <pt x="433" y="693" on="1"/>
      </contour>
    </TTGlyph>
    <TTGlyph name="Upsilon" xMin="-8" yMin="0" xMax="603" yMax="693">
      <component glyphName="Y" x="0" y="0" flags="0x204"/>
    </TTGlyph>
    <TTGlyph name="Upsilondieresis" xMin="-8" yMin="0" xMax="603" yMax="918">
      <component glyphName="Y" x="0" y="0" flags="0x204"/>
      <component glyphName="glyph00866" x="653" y="0" flags="0x4"/>
    </TTGlyph>
    <TTGlyph name="Upsilontonos" xMin="-27" yMin="0" xMax="809" yMax="720">
      <component glyphName="Y" x="206" y="0" flags="0x4"/>
      <component glyphName="glyph00884" x="126" y="0" flags="0x4"/>
    </TTGlyph>
    <TTGlyph name="Uring" xMin="55" yMin="-17" xMax="599" yMax="1002">
      <component glyphName="U" x="0" y="0" flags="0x204"/>
      <component glyphName="glyph00867" x="558" y="0" flags="0x4"/>
    </TTGlyph>
    <TTGlyph name="Utilde" xMin="55" yMin="-17" xMax="599" yMax="929">
      <component glyphName="U" x="0" y="0" flags="0x204"/>
      <component glyphName="glyph00862" x="588" y="0" flags="0x4"/>
    </TTGlyph>
    <TTGlyph name="V" xMin="-1" yMin="0" xMax="601" yMax="693">
      <contour>
        <pt x="305" y="138" on="1"/>
        <pt x="432" y="693" on="1"/>
        <pt x="601" y="693" on="1"/>
        <pt x="404" y="0" on="1"/>
        <pt x="197" y="0" on="1"/>
        <pt x="-1" y="693" on="1"/>
        <pt x="175" y="693" on="1"/>
        <pt x="300" y="138" on="1"/>
      </contour>
    </TTGlyph>
    <TTGlyph name="W" xMin="9" yMin="0" xMax="840" yMax="693">
      <contour>
        <pt x="725" y="0" on="1"/>
        <pt x="508" y="0" on="1"/>
        <pt x="425" y="512" on="1"/>
        <pt x="421" y="512" on="1"/>
        <pt x="332" y="0" on="1"/>
        <pt x="121" y="0" on="1"/>
        <pt x="9" y="693" on="1"/>
        <pt x="174" y="693" on="1"/>
        <pt x="240" y="139" on="1"/>
        <pt x="244" y="139" on="1"/>
        <pt x="338" y="693" on="1"/>
        <pt x="512" y="693" on="1"/>
        <pt x="600" y="140" on="1"/>
        <pt x="604" y="140" on="1"/>
        <pt x="682" y="693" on="1"/>
        <pt x="840" y="693" on="1"/>
      </contour>
    </TTGlyph>
    <TTGlyph name="Wcircumflex" xMin="9" yMin="0" xMax="840" yMax="944">
      <component glyphName="W" x="0" y="0" flags="0x204"/>
      <component glyphName="glyph00861" x="685" y="0" flags="0x4"/>
    </TTGlyph>
    <TTGlyph name="X" xMin="-5" yMin="0" xMax="592" yMax="693">
      <contour>
        <pt x="10" y="693" on="1"/>
        <pt x="191" y="693" on="1"/>
        <pt x="290" y="477" on="1"/>
        <pt x="294" y="477" on="1"/>
        <pt x="399" y="693" on="1"/>
        <pt x="575" y="693" on="1"/>
        <pt x="389" y="375" on="1"/>
        <pt x="592" y="0" on="1"/>
        <pt x="411" y="0" on="1"/>
        <pt x="292" y="257" on="1"/>
        <pt x="288" y="257" on="1"/>
        <pt x="172" y="0" on="1"/>
        <pt x="-5" y="0" on="1"/>
        <pt x="191" y="368" on="1"/>
      </contour>
    </TTGlyph>
    <TTGlyph name="Xi" xMin="34" yMin="0" xMax="501" yMax="693">
      <contour>
        <pt x="34" y="137" on="1"/>
        <pt x="496" y="137" on="1"/>
        <pt x="496" y="0" on="1"/>
        <pt x="34" y="0" on="1"/>
      </contour>
      <contour>
        <pt x="34" y="693" on="1"/>
        <pt x="501" y="693" on="1"/>
        <pt x="482" y="561" on="1"/>
        <pt x="34" y="561" on="1"/>
      </contour>
      <contour>
        <pt x="98" y="414" on="1"/>
        <pt x="434" y="414" on="1"/>
        <pt x="434" y="290" on="1"/>
        <pt x="98" y="290" on="1"/>
      </contour>
    </TTGlyph>
    <TTGlyph name="Y" xMin="-8" yMin="0" xMax="603" yMax="693">
      <contour>
        <pt x="380" y="260" on="1"/>
        <pt x="380" y="0" on="1"/>
        <pt x="214" y="0" on="1"/>
        <pt x="214" y="259" on="1"/>
        <pt x="-8" y="693" on="1"/>
        <pt x="174" y="693" on="1"/>
        <pt x="298" y="394" on="1"/>
        <pt x="302" y="394" on="1"/>
        <pt x="427" y="693" on="1"/>
        <pt x="603" y="693" on="1"/>
      </contour>
    </TTGlyph>
    <TTGlyph name="Yacute" xMin="-8" yMin="0" xMax="603" yMax="971">
      <component glyphName="Y" x="0" y="0" flags="0x204"/>
      <component glyphName="glyph00860" x="516" y="0" flags="0x4"/>
    </TTGlyph>
    <TTGlyph name="Ycircumflex" xMin="-8" yMin="0" xMax="603" yMax="944">
      <component glyphName="Y" x="0" y="0" flags="0x204"/>
      <component glyphName="glyph00861" x="560" y="0" flags="0x4"/>
    </TTGlyph>
    <TTGlyph name="Ydieresis" xMin="-8" yMin="0" xMax="603" yMax="918">
      <component glyphName="Y" x="0" y="0" flags="0x204"/>
      <component glyphName="glyph00866" x="654" y="0" flags="0x4"/>
    </TTGlyph>
    <TTGlyph name="Z" xMin="18" yMin="0" xMax="519" yMax="693">
      <contour>
        <pt x="213" y="132" on="1"/>
        <pt x="519" y="132" on="1"/>
        <pt x="502" y="0" on="1"/>
        <pt x="18" y="0" on="1"/>
        <pt x="18" y="124" on="1"/>
        <pt x="324" y="565" on="1"/>
        <pt x="48" y="565" on="1"/>
        <pt x="48" y="693" on="1"/>
        <pt x="513" y="693" on="1"/>
        <pt x="513" y="568" on="1"/>
      </contour>
    </TTGlyph>
    <TTGlyph name="Zacute" xMin="18" yMin="0" xMax="519" yMax="971">
      <component glyphName="Z" x="0" y="0" flags="0x204"/>
      <component glyphName="glyph00860" x="517" y="0" flags="0x4"/>
    </TTGlyph>
    <TTGlyph name="Zcaron" xMin="18" yMin="0" xMax="519" yMax="947">
      <component glyphName="Z" x="0" y="0" flags="0x204"/>
      <component glyphName="glyph00869" x="544" y="0" flags="0x4"/>
    </TTGlyph>
    <TTGlyph name="Zdotaccent" xMin="18" yMin="0" xMax="519" yMax="937">
      <component glyphName="Z" x="0" y="0" flags="0x204"/>
      <component glyphName="glyph00865" x="485" y="0" flags="0x4"/>
    </TTGlyph>
    <TTGlyph name="Zeta" xMin="18" yMin="0" xMax="519" yMax="693">
      <component glyphName="Z" x="0" y="0" flags="0x204"/>
    </TTGlyph>
    <TTGlyph name="a" xMin="19" yMin="-17" xMax="522" yMax="549">
      <contour>
        <pt x="488" y="154" on="1"/>
        <pt x="488" y="124" on="0"/>
        <pt x="503" y="97" on="0"/>
        <pt x="522" y="90" on="1"/>
        <pt x="489" y="-15" on="1"/>
        <pt x="441" y="-10" on="0"/>
        <pt x="378" y="21" on="0"/>
        <pt x="359" y="54" on="1"/>
        <pt x="330" y="17" on="0"/>
        <pt x="244" y="-17" on="0"/>
        <pt x="196" y="-17" on="1"/>
        <pt x="155" y="-17" on="0"/>
        <pt x="89" y="8" on="0"/>
        <pt x="43" y="52" on="0"/>
        <pt x="19" y="113" on="0"/>
        <pt x="19" y="150" on="1"/>
        <pt x="19" y="237" on="0"/>
        <pt x="149" y="331" on="0"/>
        <pt x="273" y="331" on="1"/>
        <pt x="334" y="331" on="1"/>
        <pt x="334" y="350" on="1"/>
        <pt x="334" y="397" on="0"/>
        <pt x="291" y="431" on="0"/>
        <pt x="237" y="431" on="1"/>
        <pt x="213" y="431" on="0"/>
        <pt x="140" y="417" on="0"/>
        <pt x="99" y="403" on="1"/>
        <pt x="63" y="509" on="1"/>
        <pt x="114" y="529" on="0"/>
        <pt x="220" y="549" on="0"/>
        <pt x="262" y="549" on="1"/>
        <pt x="383" y="549" on="0"/>
        <pt x="488" y="454" on="0"/>
        <pt x="488" y="361" on="1"/>
      </contour>
      <contour>
        <pt x="249" y="97" on="1"/>
        <pt x="275" y="97" on="0"/>
        <pt x="319" y="127" on="0"/>
        <pt x="334" y="155" on="1"/>
        <pt x="334" y="240" on="1"/>
        <pt x="306" y="240" on="1"/>
        <pt x="240" y="240" on="0"/>
        <pt x="188" y="200" on="0"/>
        <pt x="188" y="161" on="1"/>
        <pt x="188" y="131" on="0"/>
        <pt x="218" y="97" on="0"/>
      </contour>
    </TTGlyph>
    <TTGlyph name="aacute" xMin="19" yMin="-17" xMax="522" yMax="833">
      <component glyphName="a" x="0" y="0" flags="0x204"/>
      <component glyphName="acutecomb" x="475" y="0" flags="0x4"/>
    </TTGlyph>
    <TTGlyph name="abreve" xMin="19" yMin="-17" xMax="522" yMax="802">
      <component glyphName="a" x="0" y="0" flags="0x204"/>
      <component glyphName="uni0306" x="498" y="0" flags="0x4"/>
    </TTGlyph>
    <TTGlyph name="acircumflex" xMin="19" yMin="-17" xMax="522" yMax="816">
      <component glyphName="a" x="0" y="0" flags="0x204"/>
      <component glyphName="uni0302" x="517" y="0" flags="0x4"/>
    </TTGlyph>
    <TTGlyph name="acute" xMin="24" yMin="639" xMax="310" yMax="859">
      <contour>
        <pt x="24" y="720" on="1"/>
        <pt x="240" y="859" on="1"/>
        <pt x="310" y="741" on="1"/>
        <pt x="71" y="639" on="1"/>
      </contour>
    </TTGlyph>
    <TTGlyph name="acutecomb" xMin="-344" yMin="608" xMax="-58" yMax="833">
      <contour>
        <pt x="-344" y="689" on="1"/>
        <pt x="-128" y="833" on="1"/>
        <pt x="-58" y="714" on="1"/>
        <pt x="-295" y="608" on="1"/>
      </contour>
    </TTGlyph>
    <TTGlyph name="adieresis" xMin="19" yMin="-17" xMax="522" yMax="798">
      <component glyphName="a" x="0" y="0" flags="0x204"/>
      <component glyphName="uni0308" x="521" y="0" flags="0x4"/>
    </TTGlyph>
    <TTGlyph name="ae" xMin="19" yMin="-17" xMax="813" yMax="549">
      <contour>
        <pt x="481" y="226" on="1"/>
        <pt x="488" y="158" on="0"/>
        <pt x="553" y="105" on="0"/>
        <pt x="603" y="105" on="1"/>
        <pt x="634" y="105" on="0"/>
        <pt x="693" y="127" on="0"/>
        <pt x="728" y="152" on="1"/>
        <pt x="794" y="56" on="1"/>
        <pt x="755" y="25" on="0"/>
        <pt x="653" y="-17" on="0"/>
        <pt x="590" y="-17" on="1"/>
        <pt x="518" y="-17" on="0"/>
        <pt x="421" y="28" on="0"/>
        <pt x="392" y="68" on="1"/>
        <pt x="363" y="27" on="0"/>
        <pt x="265" y="-17" on="0"/>
        <pt x="207" y="-17" on="1"/>
        <pt x="163" y="-17" on="0"/>
        <pt x="93" y="8" on="0"/>
        <pt x="45" y="53" on="0"/>
        <pt x="19" y="115" on="0"/>
        <pt x="19" y="152" on="1"/>
        <pt x="19" y="237" on="0"/>
        <pt x="149" y="327" on="0"/>
        <pt x="273" y="327" on="1"/>
        <pt x="334" y="327" on="1"/>
        <pt x="334" y="350" on="1"/>
        <pt x="334" y="396" on="0"/>
        <pt x="291" y="431" on="0"/>
        <pt x="237" y="431" on="1"/>
        <pt x="213" y="431" on="0"/>
        <pt x="140" y="417" on="0"/>
        <pt x="99" y="403" on="1"/>
        <pt x="63" y="509" on="1"/>
        <pt x="114" y="529" on="0"/>
        <pt x="220" y="549" on="0"/>
        <pt x="262" y="549" on="1"/>
        <pt x="326" y="549" on="0"/>
        <pt x="402" y="511" on="0"/>
        <pt x="423" y="479" on="1"/>
        <pt x="449" y="511" on="0"/>
        <pt x="525" y="549" on="0"/>
        <pt x="576" y="549" on="1"/>
        <pt x="687" y="549" on="0"/>
        <pt x="813" y="407" on="0"/>
        <pt x="813" y="276" on="1"/>
        <pt x="813" y="250" on="0"/>
        <pt x="810" y="226" on="1"/>
      </contour>
      <contour>
        <pt x="250" y="97" on="1"/>
        <pt x="277" y="97" on="0"/>
        <pt x="324" y="128" on="0"/>
        <pt x="340" y="158" on="1"/>
        <pt x="334" y="194" on="0"/>
        <pt x="334" y="235" on="1"/>
        <pt x="317" y="235" on="1"/>
        <pt x="244" y="235" on="0"/>
        <pt x="187" y="201" on="0"/>
        <pt x="187" y="159" on="1"/>
        <pt x="187" y="97" on="0"/>
      </contour>
      <contour>
        <pt x="571" y="436" on="1"/>
        <pt x="533" y="436" on="0"/>
        <pt x="487" y="381" on="0"/>
        <pt x="481" y="319" on="1"/>
        <pt x="656" y="319" on="1"/>
        <pt x="654" y="376" on="0"/>
        <pt x="616" y="436" on="0"/>
      </contour>
    </TTGlyph>
    <TTGlyph name="aeacute" xMin="19" yMin="-17" xMax="813" yMax="833">
      <component glyphName="ae" x="0" y="0" flags="0x204"/>
      <component glyphName="acutecomb" x="671" y="0" flags="0x4"/>
    </TTGlyph>
    <TTGlyph name="agrave" xMin="19" yMin="-17" xMax="522" yMax="833">
      <component glyphName="a" x="0" y="0" flags="0x204"/>
      <component glyphName="gravecomb" x="472" y="0" flags="0x4"/>
    </TTGlyph>
    <TTGlyph name="alpha" xMin="31" yMin="-17" xMax="582" yMax="549">
      <contour>
        <pt x="264" y="99" on="1"/>
        <pt x="277" y="99" on="0"/>
        <pt x="303" y="114" on="0"/>
        <pt x="327" y="151" on="0"/>
        <pt x="348" y="216" on="0"/>
        <pt x="357" y="266" on="1"/>
        <pt x="342" y="357" on="0"/>
        <pt x="300" y="432" on="0"/>
        <pt x="268" y="432" on="1"/>
        <pt x="233" y="432" on="0"/>
        <pt x="193" y="351" on="0"/>
        <pt x="193" y="263" on="1"/>
        <pt x="193" y="174" on="0"/>
        <pt x="233" y="99" on="0"/>
      </contour>
      <contour>
        <pt x="530" y="-17" on="1"/>
        <pt x="497" y="-11" on="0"/>
        <pt x="457" y="10" on="0"/>
        <pt x="432" y="43" on="0"/>
        <pt x="419" y="89" on="0"/>
        <pt x="413" y="119" on="1"/>
        <pt x="409" y="119" on="1"/>
        <pt x="386" y="53" on="0"/>
        <pt x="304" y="-17" on="0"/>
        <pt x="234" y="-17" on="1"/>
        <pt x="139" y="-17" on="0"/>
        <pt x="31" y="129" on="0"/>
        <pt x="31" y="263" on="1"/>
        <pt x="31" y="325" on="0"/>
        <pt x="62" y="430" on="0"/>
        <pt x="118" y="506" on="0"/>
        <pt x="197" y="549" on="0"/>
        <pt x="245" y="549" on="1"/>
        <pt x="322" y="549" on="0"/>
        <pt x="402" y="479" on="0"/>
        <pt x="420" y="416" on="1"/>
        <pt x="424" y="416" on="1"/>
        <pt x="450" y="541" on="1"/>
        <pt x="579" y="505" on="1"/>
        <pt x="489" y="271" on="1"/>
        <pt x="522" y="170" on="1"/>
        <pt x="533" y="137" on="0"/>
        <pt x="557" y="108" on="0"/>
        <pt x="582" y="103" on="1"/>
      </contour>
    </TTGlyph>
    <TTGlyph name="alphatonos" xMin="31" yMin="-17" xMax="582" yMax="854">
      <component glyphName="alpha" x="0" y="0" flags="0x204"/>
      <component glyphName="tonos" x="348" y="0" flags="0x4"/>
    </TTGlyph>
    <TTGlyph name="amacron" xMin="19" yMin="-17" xMax="522" yMax="768">
      <component glyphName="a" x="0" y="0" flags="0x204"/>
      <component glyphName="uni0304" x="481" y="0" flags="0x4"/>
    </TTGlyph>
    <TTGlyph name="ampersand" xMin="46" yMin="-17" xMax="765" yMax="711">
      <contour>
        <pt x="696" y="339" on="1"/>
        <pt x="676" y="281" on="0"/>
        <pt x="629" y="188" on="0"/>
        <pt x="603" y="150" on="1"/>
        <pt x="765" y="0" on="1"/>
        <pt x="572" y="0" on="1"/>
        <pt x="510" y="57" on="1"/>
        <pt x="459" y="17" on="0"/>
        <pt x="351" y="-17" on="0"/>
        <pt x="294" y="-17" on="1"/>
        <pt x="236" y="-17" on="0"/>
        <pt x="144" y="11" on="0"/>
        <pt x="80" y="62" on="0"/>
        <pt x="46" y="135" on="0"/>
        <pt x="46" y="180" on="1"/>
        <pt x="46" y="240" on="0"/>
        <pt x="110" y="329" on="0"/>
        <pt x="176" y="373" on="1"/>
        <pt x="149" y="398" on="0"/>
        <pt x="112" y="441" on="0"/>
        <pt x="88" y="481" on="0"/>
        <pt x="77" y="521" on="0"/>
        <pt x="77" y="545" on="1"/>
        <pt x="77" y="578" on="0"/>
        <pt x="103" y="639" on="0"/>
        <pt x="157" y="684" on="0"/>
        <pt x="238" y="711" on="0"/>
        <pt x="293" y="711" on="1"/>
        <pt x="344" y="711" on="0"/>
        <pt x="425" y="686" on="0"/>
        <pt x="481" y="642" on="0"/>
        <pt x="510" y="583" on="0"/>
        <pt x="510" y="549" on="1"/>
        <pt x="510" y="517" on="0"/>
        <pt x="490" y="465" on="0"/>
        <pt x="456" y="420" on="0"/>
        <pt x="407" y="381" on="0"/>
        <pt x="379" y="362" on="1"/>
        <pt x="513" y="233" on="1"/>
        <pt x="529" y="263" on="0"/>
        <pt x="553" y="336" on="0"/>
        <pt x="563" y="378" on="1"/>
      </contour>
      <contour>
        <pt x="317" y="96" on="1"/>
        <pt x="380" y="96" on="0"/>
        <pt x="429" y="133" on="1"/>
        <pt x="268" y="287" on="1"/>
        <pt x="239" y="265" on="0"/>
        <pt x="214" y="219" on="0"/>
        <pt x="214" y="191" on="1"/>
        <pt x="214" y="147" on="0"/>
        <pt x="266" y="96" on="0"/>
      </contour>
      <contour>
        <pt x="231" y="542" on="1"/>
        <pt x="231" y="517" on="0"/>
        <pt x="257" y="476" on="0"/>
        <pt x="290" y="444" on="1"/>
        <pt x="324" y="467" on="0"/>
        <pt x="357" y="514" on="0"/>
        <pt x="357" y="545" on="1"/>
        <pt x="357" y="574" on="0"/>
        <pt x="324" y="608" on="0"/>
        <pt x="295" y="608" on="1"/>
        <pt x="264" y="608" on="0"/>
        <pt x="231" y="574" on="0"/>
      </contour>
    </TTGlyph>
    <TTGlyph name="aogonek" xMin="19" yMin="-258" xMax="567" yMax="549">
      <contour>
        <pt x="488" y="154" on="1"/>
        <pt x="488" y="124" on="0"/>
        <pt x="503" y="97" on="0"/>
        <pt x="522" y="90" on="1"/>
        <pt x="489" y="-15" on="1"/>
        <pt x="467" y="-27" on="0"/>
        <pt x="439" y="-55" on="0"/>
        <pt x="423" y="-82" on="0"/>
        <pt x="417" y="-108" on="0"/>
        <pt x="417" y="-119" on="1"/>
        <pt x="417" y="-140" on="0"/>
        <pt x="443" y="-168" on="0"/>
        <pt x="470" y="-168" on="1"/>
        <pt x="490" y="-168" on="0"/>
        <pt x="524" y="-159" on="0"/>
        <pt x="535" y="-154" on="1"/>
        <pt x="567" y="-231" on="1"/>
        <pt x="542" y="-244" on="0"/>
        <pt x="484" y="-258" on="0"/>
        <pt x="454" y="-258" on="1"/>
        <pt x="388" y="-258" on="0"/>
        <pt x="308" y="-193" on="0"/>
        <pt x="308" y="-136" on="1"/>
        <pt x="308" y="-95" on="0"/>
        <pt x="365" y="-24" on="0"/>
        <pt x="416" y="1" on="1"/>
        <pt x="398" y="9" on="0"/>
        <pt x="369" y="35" on="0"/>
        <pt x="359" y="54" on="1"/>
        <pt x="330" y="17" on="0"/>
        <pt x="244" y="-17" on="0"/>
        <pt x="196" y="-17" on="1"/>
        <pt x="155" y="-17" on="0"/>
        <pt x="89" y="8" on="0"/>
        <pt x="43" y="52" on="0"/>
        <pt x="19" y="113" on="0"/>
        <pt x="19" y="150" on="1"/>
        <pt x="19" y="237" on="0"/>
        <pt x="149" y="331" on="0"/>
        <pt x="273" y="331" on="1"/>
        <pt x="334" y="331" on="1"/>
        <pt x="334" y="350" on="1"/>
        <pt x="334" y="397" on="0"/>
        <pt x="291" y="431" on="0"/>
        <pt x="237" y="431" on="1"/>
        <pt x="213" y="431" on="0"/>
        <pt x="140" y="417" on="0"/>
        <pt x="99" y="403" on="1"/>
        <pt x="63" y="509" on="1"/>
        <pt x="114" y="529" on="0"/>
        <pt x="220" y="549" on="0"/>
        <pt x="262" y="549" on="1"/>
        <pt x="383" y="549" on="0"/>
        <pt x="488" y="454" on="0"/>
        <pt x="488" y="361" on="1"/>
      </contour>
      <contour>
        <pt x="249" y="97" on="1"/>
        <pt x="275" y="97" on="0"/>
        <pt x="320" y="127" on="0"/>
        <pt x="334" y="155" on="1"/>
        <pt x="334" y="240" on="1"/>
        <pt x="306" y="240" on="1"/>
        <pt x="240" y="240" on="0"/>
        <pt x="187" y="200" on="0"/>
        <pt x="187" y="161" on="1"/>
        <pt x="187" y="131" on="0"/>
        <pt x="218" y="97" on="0"/>
      </contour>
    </TTGlyph>
    <TTGlyph name="approxequal" xMin="38" yMin="127" xMax="521" yMax="513">
      <component glyphName="glyph00795" x="20" y="0" flags="0x4"/>
    </TTGlyph>
    <TTGlyph name="aring" xMin="19" yMin="-17" xMax="522" yMax="866">
      <component glyphName="a" x="0" y="0" flags="0x204"/>
      <component glyphName="uni030A" x="487" y="0" flags="0x4"/>
    </TTGlyph>
    <TTGlyph name="arrowboth" xMin="77" yMin="-8" xMax="1203" yMax="666">
      <contour>
        <pt x="302" y="264" on="1"/>
        <pt x="301" y="261" on="1"/>
        <pt x="328" y="244" on="0"/>
        <pt x="379" y="197" on="0"/>
        <pt x="409" y="165" on="1"/>
        <pt x="485" y="82" on="1"/>
        <pt x="381" y="-8" on="1"/>
        <pt x="77" y="329" on="1"/>
        <pt x="381" y="666" on="1"/>
        <pt x="485" y="576" on="1"/>
        <pt x="392" y="475" on="1"/>
        <pt x="366" y="446" on="0"/>
        <pt x="324" y="411" on="0"/>
        <pt x="301" y="397" on="1"/>
        <pt x="302" y="394" on="1"/>
        <pt x="978" y="394" on="1"/>
        <pt x="979" y="397" on="1"/>
        <pt x="952" y="414" on="0"/>
        <pt x="901" y="461" on="0"/>
        <pt x="871" y="493" on="1"/>
        <pt x="795" y="576" on="1"/>
        <pt x="899" y="666" on="1"/>
        <pt x="1203" y="329" on="1"/>
        <pt x="899" y="-8" on="1"/>
        <pt x="795" y="82" on="1"/>
        <pt x="888" y="183" on="1"/>
        <pt x="914" y="212" on="0"/>
        <pt x="956" y="247" on="0"/>
        <pt x="979" y="261" on="1"/>
        <pt x="978" y="264" on="1"/>
      </contour>
    </TTGlyph>
    <TTGlyph name="arrowdown" xMin="109" yMin="-25" xMax="791" yMax="705">
      <contour>
        <pt x="524" y="204" on="1"/>
        <pt x="527" y="203" on="1"/>
        <pt x="543" y="230" on="0"/>
        <pt x="584" y="278" on="0"/>
        <pt x="617" y="307" on="1"/>
        <pt x="698" y="381" on="1"/>
        <pt x="791" y="282" on="1"/>
        <pt x="450" y="-25" on="1"/>
        <pt x="109" y="282" on="1"/>
        <pt x="202" y="381" on="1"/>
        <pt x="301" y="290" on="1"/>
        <pt x="329" y="264" on="0"/>
        <pt x="359" y="226" on="0"/>
        <pt x="373" y="203" on="1"/>
        <pt x="376" y="204" on="1"/>
        <pt x="376" y="705" on="1"/>
        <pt x="524" y="705" on="1"/>
      </contour>
    </TTGlyph>
    <TTGlyph name="arrowleft" xMin="81" yMin="-8" xMax="819" yMax="666">
      <contour>
        <pt x="306" y="264" on="1"/>
        <pt x="305" y="261" on="1"/>
        <pt x="332" y="244" on="0"/>
        <pt x="384" y="197" on="0"/>
        <pt x="413" y="165" on="1"/>
        <pt x="489" y="82" on="1"/>
        <pt x="384" y="-8" on="1"/>
        <pt x="81" y="329" on="1"/>
        <pt x="384" y="666" on="1"/>
        <pt x="489" y="576" on="1"/>
        <pt x="413" y="493" on="1"/>
        <pt x="384" y="461" on="0"/>
        <pt x="332" y="414" on="0"/>
        <pt x="305" y="397" on="1"/>
        <pt x="306" y="394" on="1"/>
        <pt x="819" y="394" on="1"/>
        <pt x="819" y="264" on="1"/>
      </contour>
    </TTGlyph>
    <TTGlyph name="arrowright" xMin="81" yMin="-8" xMax="819" yMax="666">
      <contour>
        <pt x="81" y="264" on="1"/>
        <pt x="81" y="394" on="1"/>
        <pt x="594" y="394" on="1"/>
        <pt x="595" y="397" on="1"/>
        <pt x="569" y="413" on="0"/>
        <pt x="518" y="461" on="0"/>
        <pt x="486" y="495" on="1"/>
        <pt x="411" y="576" on="1"/>
        <pt x="516" y="666" on="1"/>
        <pt x="819" y="329" on="1"/>
        <pt x="516" y="-8" on="1"/>
        <pt x="411" y="82" on="1"/>
        <pt x="504" y="183" on="1"/>
        <pt x="530" y="212" on="0"/>
        <pt x="572" y="247" on="0"/>
        <pt x="595" y="261" on="1"/>
        <pt x="594" y="264" on="1"/>
      </contour>
    </TTGlyph>
    <TTGlyph name="arrowup" xMin="109" yMin="0" xMax="791" yMax="731">
      <contour>
        <pt x="524" y="0" on="1"/>
        <pt x="376" y="0" on="1"/>
        <pt x="376" y="501" on="1"/>
        <pt x="373" y="502" on="1"/>
        <pt x="356" y="475" on="0"/>
        <pt x="315" y="426" on="0"/>
        <pt x="282" y="397" on="1"/>
        <pt x="202" y="324" on="1"/>
        <pt x="109" y="422" on="1"/>
        <pt x="450" y="731" on="1"/>
        <pt x="791" y="422" on="1"/>
        <pt x="698" y="324" on="1"/>
        <pt x="599" y="415" on="1"/>
        <pt x="570" y="440" on="0"/>
        <pt x="541" y="479" on="0"/>
        <pt x="527" y="502" on="1"/>
        <pt x="524" y="501" on="1"/>
      </contour>
    </TTGlyph>
    <TTGlyph name="arrowupdn" xMin="109" yMin="-224" xMax="791" yMax="892">
      <contour>
        <pt x="524" y="6" on="1"/>
        <pt x="527" y="5" on="1"/>
        <pt x="543" y="31" on="0"/>
        <pt x="585" y="79" on="0"/>
        <pt x="617" y="109" on="1"/>
        <pt x="698" y="183" on="1"/>
        <pt x="791" y="84" on="1"/>
        <pt x="450" y="-224" on="1"/>
        <pt x="109" y="84" on="1"/>
        <pt x="202" y="183" on="1"/>
        <pt x="283" y="109" on="1"/>
        <pt x="317" y="77" on="0"/>
        <pt x="358" y="31" on="0"/>
        <pt x="373" y="5" on="1"/>
        <pt x="376" y="6" on="1"/>
        <pt x="376" y="663" on="1"/>
        <pt x="373" y="664" on="1"/>
        <pt x="356" y="636" on="0"/>
        <pt x="315" y="589" on="0"/>
        <pt x="283" y="560" on="1"/>
        <pt x="202" y="485" on="1"/>
        <pt x="109" y="584" on="1"/>
        <pt x="450" y="892" on="1"/>
        <pt x="791" y="584" on="1"/>
        <pt x="698" y="485" on="1"/>
        <pt x="617" y="560" on="1"/>
        <pt x="584" y="590" on="0"/>
        <pt x="544" y="636" on="0"/>
        <pt x="527" y="664" on="1"/>
        <pt x="524" y="663" on="1"/>
      </contour>
    </TTGlyph>
    <TTGlyph name="asciicircum" xMin="14" yMin="527" xMax="538" yMax="844">
      <contour>
        <pt x="203" y="844" on="1"/>
        <pt x="349" y="844" on="1"/>
        <pt x="538" y="527" on="1"/>
        <pt x="382" y="527" on="1"/>
        <pt x="275" y="725" on="1"/>
        <pt x="172" y="527" on="1"/>
        <pt x="14" y="527" on="1"/>
      </contour>
    </TTGlyph>
    <TTGlyph name="asciitilde" xMin="38" yMin="231" xMax="521" yMax="409">
      <component glyphName="glyph00771" x="20" y="0" flags="0x4"/>
    </TTGlyph>
    <TTGlyph name="asterisk" xMin="9" yMin="334" xMax="435" yMax="743">
      <contour>
        <pt x="268" y="602" on="1"/>
        <pt x="394" y="664" on="1"/>
        <pt x="435" y="538" on="1"/>
        <pt x="297" y="514" on="1"/>
        <pt x="398" y="415" on="1"/>
        <pt x="288" y="335" on="1"/>
        <pt x="221" y="459" on="1"/>
        <pt x="157" y="334" on="1"/>
        <pt x="47" y="414" on="1"/>
        <pt x="146" y="515" on="1"/>
        <pt x="9" y="538" on="1"/>
        <pt x="49" y="664" on="1"/>
        <pt x="175" y="603" on="1"/>
        <pt x="153" y="743" on="1"/>
        <pt x="290" y="743" on="1"/>
      </contour>
    </TTGlyph>
    <TTGlyph name="at" xMin="48" yMin="-222" xMax="972" yMax="711">
      <contour>
        <pt x="762" y="-180" on="1"/>
        <pt x="714" y="-198" on="0"/>
        <pt x="589" y="-222" on="0"/>
        <pt x="526" y="-222" on="1"/>
        <pt x="417" y="-222" on="0"/>
        <pt x="241" y="-157" on="0"/>
        <pt x="116" y="-36" on="0"/>
        <pt x="48" y="136" on="0"/>
        <pt x="48" y="242" on="1"/>
        <pt x="48" y="344" on="0"/>
        <pt x="118" y="516" on="0"/>
        <pt x="246" y="641" on="0"/>
        <pt x="423" y="711" on="0"/>
        <pt x="530" y="711" on="1"/>
        <pt x="636" y="711" on="0"/>
        <pt x="800" y="645" on="0"/>
        <pt x="913" y="536" on="0"/>
        <pt x="972" y="393" on="0"/>
        <pt x="972" y="316" on="1"/>
        <pt x="972" y="248" on="0"/>
        <pt x="941" y="133" on="0"/>
        <pt x="884" y="50" on="0"/>
        <pt x="803" y="4" on="0"/>
        <pt x="754" y="4" on="1"/>
        <pt x="724" y="4" on="0"/>
        <pt x="677" y="22" on="0"/>
        <pt x="644" y="50" on="0"/>
        <pt x="625" y="84" on="0"/>
        <pt x="622" y="101" on="1"/>
        <pt x="618" y="101" on="1"/>
        <pt x="602" y="63" on="0"/>
        <pt x="531" y="9" on="0"/>
        <pt x="477" y="9" on="1"/>
        <pt x="429" y="9" on="0"/>
        <pt x="359" y="43" on="0"/>
        <pt x="315" y="103" on="0"/>
        <pt x="294" y="185" on="0"/>
        <pt x="294" y="233" on="1"/>
        <pt x="294" y="294" on="0"/>
        <pt x="325" y="394" on="0"/>
        <pt x="384" y="465" on="0"/>
        <pt x="471" y="503" on="0"/>
        <pt x="527" y="503" on="1"/>
        <pt x="569" y="503" on="0"/>
        <pt x="659" y="481" on="0"/>
        <pt x="701" y="458" on="1"/>
        <pt x="701" y="181" on="1"/>
        <pt x="701" y="136" on="0"/>
        <pt x="724" y="103" on="0"/>
        <pt x="747" y="103" on="1"/>
        <pt x="765" y="103" on="0"/>
        <pt x="795" y="123" on="0"/>
        <pt x="816" y="172" on="0"/>
        <pt x="828" y="253" on="0"/>
        <pt x="828" y="314" on="1"/>
        <pt x="828" y="379" on="0"/>
        <pt x="792" y="483" on="0"/>
        <pt x="718" y="555" on="0"/>
        <pt x="605" y="594" on="0"/>
        <pt x="529" y="594" on="1"/>
        <pt x="446" y="594" on="0"/>
        <pt x="320" y="543" on="0"/>
        <pt x="235" y="450" on="0"/>
        <pt x="192" y="321" on="0"/>
        <pt x="192" y="243" on="1"/>
        <pt x="192" y="163" on="0"/>
        <pt x="235" y="34" on="0"/>
        <pt x="320" y="-56" on="0"/>
        <pt x="445" y="-104" on="0"/>
        <pt x="527" y="-104" on="1"/>
        <pt x="579" y="-104" on="0"/>
        <pt x="685" y="-84" on="0"/>
        <pt x="724" y="-70" on="1"/>
      </contour>
      <contour>
        <pt x="521" y="402" on="1"/>
        <pt x="502" y="402" on="0"/>
        <pt x="472" y="385" on="0"/>
        <pt x="450" y="346" on="0"/>
        <pt x="438" y="280" on="0"/>
        <pt x="438" y="232" on="1"/>
        <pt x="438" y="164" on="0"/>
        <pt x="466" y="109" on="0"/>
        <pt x="498" y="109" on="1"/>
        <pt x="526" y="109" on="0"/>
        <pt x="557" y="141" on="0"/>
        <pt x="565" y="158" on="1"/>
        <pt x="565" y="392" on="1"/>
        <pt x="554" y="397" on="0"/>
        <pt x="535" y="402" on="0"/>
      </contour>
    </TTGlyph>
    <TTGlyph name="atilde" xMin="19" yMin="-17" xMax="522" yMax="790">
      <component glyphName="a" x="0" y="0" flags="0x204"/>
      <component glyphName="tildecomb" x="512" y="0" flags="0x4"/>
    </TTGlyph>
    <TTGlyph name="b" xMin="62" yMin="-17" xMax="562" yMax="759">
      <contour>
        <pt x="222" y="477" on="1"/>
        <pt x="246" y="510" on="0"/>
        <pt x="321" y="549" on="0"/>
        <pt x="361" y="549" on="1"/>
        <pt x="413" y="549" on="0"/>
        <pt x="489" y="510" on="0"/>
        <pt x="539" y="436" on="0"/>
        <pt x="562" y="332" on="0"/>
        <pt x="562" y="267" on="1"/>
        <pt x="562" y="205" on="0"/>
        <pt x="533" y="101" on="0"/>
        <pt x="478" y="26" on="0"/>
        <pt x="396" y="-17" on="0"/>
        <pt x="344" y="-17" on="1"/>
        <pt x="304" y="-17" on="0"/>
        <pt x="234" y="17" on="0"/>
        <pt x="210" y="50" on="1"/>
        <pt x="204" y="0" on="1"/>
        <pt x="62" y="0" on="1"/>
        <pt x="62" y="742" on="1"/>
        <pt x="222" y="759" on="1"/>
      </contour>
      <contour>
        <pt x="301" y="99" on="1"/>
        <pt x="345" y="99" on="0"/>
        <pt x="396" y="176" on="0"/>
        <pt x="396" y="265" on="1"/>
        <pt x="396" y="314" on="0"/>
        <pt x="384" y="379" on="0"/>
        <pt x="362" y="416" on="0"/>
        <pt x="330" y="431" on="0"/>
        <pt x="310" y="431" on="1"/>
        <pt x="284" y="431" on="0"/>
        <pt x="239" y="399" on="0"/>
        <pt x="222" y="370" on="1"/>
        <pt x="222" y="147" on="1"/>
        <pt x="251" y="99" on="0"/>
      </contour>
    </TTGlyph>
    <TTGlyph name="backslash" xMin="72" yMin="-112" xMax="448" yMax="818">
      <contour>
        <pt x="72" y="786" on="1"/>
        <pt x="212" y="818" on="1"/>
        <pt x="448" y="-80" on="1"/>
        <pt x="307" y="-112" on="1"/>
      </contour>
    </TTGlyph>
    <TTGlyph name="bar" xMin="113" yMin="-105" xMax="262" yMax="810">
      <contour>
        <pt x="113" y="810" on="1"/>
        <pt x="262" y="810" on="1"/>
        <pt x="262" y="-105" on="1"/>
        <pt x="113" y="-105" on="1"/>
      </contour>
    </TTGlyph>
    <TTGlyph name="beta" xMin="37" yMin="-17" xMax="531" yMax="759">
      <contour>
        <pt x="37" y="348" on="1"/>
        <pt x="37" y="446" on="0"/>
        <pt x="78" y="599" on="0"/>
        <pt x="153" y="704" on="0"/>
        <pt x="256" y="759" on="0"/>
        <pt x="318" y="759" on="1"/>
        <pt x="364" y="759" on="0"/>
        <pt x="432" y="734" on="0"/>
        <pt x="475" y="692" on="0"/>
        <pt x="496" y="637" on="0"/>
        <pt x="496" y="607" on="1"/>
        <pt x="496" y="545" on="0"/>
        <pt x="424" y="464" on="0"/>
        <pt x="362" y="441" on="1"/>
        <pt x="362" y="437" on="1"/>
        <pt x="441" y="430" on="0"/>
        <pt x="531" y="323" on="0"/>
        <pt x="531" y="221" on="1"/>
        <pt x="531" y="170" on="0"/>
        <pt x="498" y="83" on="0"/>
        <pt x="435" y="19" on="0"/>
        <pt x="343" y="-17" on="0"/>
        <pt x="285" y="-17" on="1"/>
        <pt x="217" y="-17" on="0"/>
        <pt x="123" y="33" on="0"/>
        <pt x="64" y="127" on="0"/>
        <pt x="37" y="262" on="0"/>
      </contour>
      <contour>
        <pt x="283" y="99" on="1"/>
        <pt x="321" y="99" on="0"/>
        <pt x="364" y="160" on="0"/>
        <pt x="364" y="223" on="1"/>
        <pt x="364" y="289" on="0"/>
        <pt x="329" y="360" on="0"/>
        <pt x="281" y="360" on="1"/>
        <pt x="264" y="360" on="0"/>
        <pt x="226" y="347" on="0"/>
        <pt x="200" y="335" on="1"/>
        <pt x="200" y="270" on="0"/>
        <pt x="209" y="180" on="0"/>
        <pt x="229" y="124" on="0"/>
        <pt x="260" y="99" on="0"/>
      </contour>
      <contour>
        <pt x="306" y="647" on="1"/>
        <pt x="287" y="647" on="0"/>
        <pt x="251" y="626" on="0"/>
        <pt x="222" y="577" on="0"/>
        <pt x="203" y="497" on="0"/>
        <pt x="201" y="439" on="1"/>
        <pt x="274" y="471" on="0"/>
        <pt x="351" y="545" on="0"/>
        <pt x="351" y="598" on="1"/>
        <pt x="351" y="621" on="0"/>
        <pt x="328" y="647" on="0"/>
      </contour>
    </TTGlyph>
    <TTGlyph name="braceleft" xMin="9" yMin="-140" xMax="300" yMax="840">
      <contour>
        <pt x="224" y="28" on="1"/>
        <pt x="224" y="-4" on="0"/>
        <pt x="254" y="-29" on="0"/>
        <pt x="300" y="-29" on="1"/>
        <pt x="300" y="-140" on="1"/>
        <pt x="234" y="-140" on="0"/>
        <pt x="147" y="-119" on="0"/>
        <pt x="96" y="-77" on="0"/>
        <pt x="75" y="-15" on="0"/>
        <pt x="75" y="25" on="1"/>
        <pt x="75" y="215" on="1"/>
        <pt x="75" y="252" on="0"/>
        <pt x="47" y="285" on="0"/>
        <pt x="9" y="285" on="1"/>
        <pt x="9" y="415" on="1"/>
        <pt x="49" y="415" on="0"/>
        <pt x="75" y="451" on="0"/>
        <pt x="75" y="492" on="1"/>
        <pt x="75" y="675" on="1"/>
        <pt x="75" y="715" on="0"/>
        <pt x="96" y="777" on="0"/>
        <pt x="147" y="819" on="0"/>
        <pt x="234" y="840" on="0"/>
        <pt x="300" y="840" on="1"/>
        <pt x="300" y="729" on="1"/>
        <pt x="254" y="729" on="0"/>
        <pt x="224" y="704" on="0"/>
        <pt x="224" y="672" on="1"/>
        <pt x="224" y="477" on="1"/>
        <pt x="224" y="446" on="0"/>
        <pt x="209" y="403" on="0"/>
        <pt x="181" y="374" on="0"/>
        <pt x="143" y="356" on="0"/>
        <pt x="119" y="352" on="1"/>
        <pt x="119" y="348" on="1"/>
        <pt x="142" y="343" on="0"/>
        <pt x="181" y="326" on="0"/>
        <pt x="209" y="298" on="0"/>
        <pt x="224" y="258" on="0"/>
        <pt x="224" y="230" on="1"/>
      </contour>
    </TTGlyph>
    <TTGlyph name="braceright" xMin="25" yMin="-140" xMax="316" yMax="840">
      <contour>
        <pt x="101" y="230" on="1"/>
        <pt x="101" y="286" on="0"/>
        <pt x="159" y="338" on="0"/>
        <pt x="206" y="348" on="1"/>
        <pt x="206" y="352" on="1"/>
        <pt x="182" y="356" on="0"/>
        <pt x="144" y="374" on="0"/>
        <pt x="116" y="403" on="0"/>
        <pt x="101" y="446" on="0"/>
        <pt x="101" y="477" on="1"/>
        <pt x="101" y="672" on="1"/>
        <pt x="101" y="704" on="0"/>
        <pt x="71" y="729" on="0"/>
        <pt x="25" y="729" on="1"/>
        <pt x="25" y="840" on="1"/>
        <pt x="91" y="840" on="0"/>
        <pt x="178" y="819" on="0"/>
        <pt x="229" y="777" on="0"/>
        <pt x="250" y="715" on="0"/>
        <pt x="250" y="675" on="1"/>
        <pt x="250" y="492" on="1"/>
        <pt x="250" y="451" on="0"/>
        <pt x="276" y="415" on="0"/>
        <pt x="316" y="415" on="1"/>
        <pt x="316" y="285" on="1"/>
        <pt x="278" y="285" on="0"/>
        <pt x="250" y="252" on="0"/>
        <pt x="250" y="215" on="1"/>
        <pt x="250" y="25" on="1"/>
        <pt x="250" y="-15" on="0"/>
        <pt x="229" y="-77" on="0"/>
        <pt x="178" y="-119" on="0"/>
        <pt x="91" y="-140" on="0"/>
        <pt x="25" y="-140" on="1"/>
        <pt x="25" y="-29" on="1"/>
        <pt x="71" y="-29" on="0"/>
        <pt x="101" y="-4" on="0"/>
        <pt x="101" y="28" on="1"/>
      </contour>
    </TTGlyph>
    <TTGlyph name="bracketleft" xMin="31" yMin="-123" xMax="297" yMax="823">
      <contour>
        <pt x="31" y="-123" on="1"/>
        <pt x="31" y="823" on="1"/>
        <pt x="297" y="823" on="1"/>
        <pt x="297" y="704" on="1"/>
        <pt x="182" y="704" on="1"/>
        <pt x="182" y="-5" on="1"/>
        <pt x="297" y="-5" on="1"/>
        <pt x="297" y="-123" on="1"/>
      </contour>
    </TTGlyph>
    <TTGlyph name="bracketright" xMin="28" yMin="-123" xMax="294" yMax="823">
      <contour>
        <pt x="28" y="-123" on="1"/>
        <pt x="28" y="-4" on="1"/>
        <pt x="143" y="-4" on="1"/>
        <pt x="143" y="704" on="1"/>
        <pt x="28" y="704" on="1"/>
        <pt x="28" y="823" on="1"/>
        <pt x="294" y="823" on="1"/>
        <pt x="294" y="-123" on="1"/>
      </contour>
    </TTGlyph>
    <TTGlyph name="breve" xMin="24" yMin="639" xMax="369" yMax="821">
      <contour>
        <pt x="196" y="639" on="1"/>
        <pt x="155" y="639" on="0"/>
        <pt x="93" y="666" on="0"/>
        <pt x="51" y="712" on="0"/>
        <pt x="27" y="772" on="0"/>
        <pt x="24" y="805" on="1"/>
        <pt x="111" y="821" on="1"/>
        <pt x="122" y="786" on="0"/>
        <pt x="161" y="749" on="0"/>
        <pt x="196" y="749" on="1"/>
        <pt x="231" y="749" on="0"/>
        <pt x="271" y="786" on="0"/>
        <pt x="282" y="821" on="1"/>
        <pt x="369" y="805" on="1"/>
        <pt x="366" y="772" on="0"/>
        <pt x="342" y="712" on="0"/>
        <pt x="300" y="666" on="0"/>
        <pt x="238" y="639" on="0"/>
      </contour>
    </TTGlyph>
    <TTGlyph name="brokenbar" xMin="113" yMin="-105" xMax="262" yMax="810">
      <contour>
        <pt x="113" y="810" on="1"/>
        <pt x="262" y="810" on="1"/>
        <pt x="262" y="446" on="1"/>
        <pt x="113" y="446" on="1"/>
      </contour>
      <contour>
        <pt x="113" y="259" on="1"/>
        <pt x="262" y="259" on="1"/>
        <pt x="262" y="-105" on="1"/>
        <pt x="113" y="-105" on="1"/>
      </contour>
    </TTGlyph>
    <TTGlyph name="bullet" xMin="44" yMin="199" xMax="330" yMax="484">
      <contour>
        <pt x="187" y="199" on="1"/>
        <pt x="156" y="199" on="0"/>
        <pt x="104" y="221" on="0"/>
        <pt x="66" y="259" on="0"/>
        <pt x="44" y="312" on="0"/>
        <pt x="44" y="342" on="1"/>
        <pt x="44" y="373" on="0"/>
        <pt x="66" y="425" on="0"/>
        <pt x="104" y="463" on="0"/>
        <pt x="156" y="484" on="0"/>
        <pt x="187" y="484" on="1"/>
        <pt x="218" y="484" on="0"/>
        <pt x="270" y="462" on="0"/>
        <pt x="308" y="424" on="0"/>
        <pt x="330" y="372" on="0"/>
        <pt x="330" y="341" on="1"/>
        <pt x="330" y="310" on="0"/>
        <pt x="308" y="258" on="0"/>
        <pt x="270" y="220" on="0"/>
        <pt x="218" y="199" on="0"/>
      </contour>
    </TTGlyph>
    <TTGlyph name="c" xMin="31" yMin="-17" xMax="476" yMax="549">
      <contour>
        <pt x="305" y="109" on="1"/>
        <pt x="331" y="109" on="0"/>
        <pt x="375" y="127" on="0"/>
        <pt x="404" y="148" on="1"/>
        <pt x="476" y="46" on="1"/>
        <pt x="438" y="16" on="0"/>
        <pt x="351" y="-17" on="0"/>
        <pt x="299" y="-17" on="1"/>
        <pt x="235" y="-17" on="0"/>
        <pt x="135" y="23" on="0"/>
        <pt x="67" y="97" on="0"/>
        <pt x="31" y="200" on="0"/>
        <pt x="31" y="262" on="1"/>
        <pt x="31" y="324" on="0"/>
        <pt x="67" y="429" on="0"/>
        <pt x="135" y="506" on="0"/>
        <pt x="232" y="549" on="0"/>
        <pt x="294" y="549" on="1"/>
        <pt x="349" y="549" on="0"/>
        <pt x="438" y="515" on="0"/>
        <pt x="476" y="483" on="1"/>
        <pt x="407" y="387" on="1"/>
        <pt x="380" y="409" on="0"/>
        <pt x="332" y="426" on="0"/>
        <pt x="306" y="426" on="1"/>
        <pt x="255" y="426" on="0"/>
        <pt x="199" y="351" on="0"/>
        <pt x="199" y="262" on="1"/>
        <pt x="199" y="218" on="0"/>
        <pt x="214" y="159" on="0"/>
        <pt x="242" y="124" on="0"/>
        <pt x="281" y="109" on="0"/>
      </contour>
    </TTGlyph>
    <TTGlyph name="cacute" xMin="31" yMin="-17" xMax="476" yMax="833">
      <component glyphName="c" x="0" y="0" flags="0x204"/>
      <component glyphName="acutecomb" x="469" y="0" flags="0x4"/>
    </TTGlyph>
    <TTGlyph name="caron" xMin="24" yMin="639" xMax="404" yMax="835">
      <contour>
        <pt x="214" y="750" on="1"/>
        <pt x="347" y="835" on="1"/>
        <pt x="404" y="770" on="1"/>
        <pt x="263" y="639" on="1"/>
        <pt x="165" y="639" on="1"/>
        <pt x="24" y="770" on="1"/>
        <pt x="81" y="835" on="1"/>
      </contour>
    </TTGlyph>
    <TTGlyph name="ccaron" xMin="31" yMin="-17" xMax="476" yMax="816">
      <component glyphName="c" x="0" y="0" flags="0x204"/>
      <component glyphName="uni030C" x="520" y="0" flags="0x4"/>
    </TTGlyph>
    <TTGlyph name="ccedilla" xMin="31" yMin="-263" xMax="476" yMax="549">
      <contour>
        <pt x="305" y="-145" on="1"/>
        <pt x="305" y="-125" on="0"/>
        <pt x="260" y="-112" on="0"/>
        <pt x="214" y="-112" on="1"/>
        <pt x="225" y="-9" on="1"/>
        <pt x="131" y="12" on="0"/>
        <pt x="31" y="156" on="0"/>
        <pt x="31" y="262" on="1"/>
        <pt x="31" y="324" on="0"/>
        <pt x="67" y="429" on="0"/>
        <pt x="135" y="506" on="0"/>
        <pt x="232" y="549" on="0"/>
        <pt x="294" y="549" on="1"/>
        <pt x="349" y="549" on="0"/>
        <pt x="438" y="515" on="0"/>
        <pt x="476" y="483" on="1"/>
        <pt x="407" y="387" on="1"/>
        <pt x="380" y="409" on="0"/>
        <pt x="332" y="426" on="0"/>
        <pt x="306" y="426" on="1"/>
        <pt x="255" y="426" on="0"/>
        <pt x="199" y="351" on="0"/>
        <pt x="199" y="262" on="1"/>
        <pt x="199" y="218" on="0"/>
        <pt x="214" y="159" on="0"/>
        <pt x="242" y="124" on="0"/>
        <pt x="281" y="109" on="0"/>
        <pt x="305" y="109" on="1"/>
        <pt x="331" y="109" on="0"/>
        <pt x="375" y="127" on="0"/>
        <pt x="404" y="148" on="1"/>
        <pt x="476" y="46" on="1"/>
        <pt x="441" y="18" on="0"/>
        <pt x="363" y="-13" on="0"/>
        <pt x="317" y="-16" on="1"/>
        <pt x="317" y="-48" on="1"/>
        <pt x="370" y="-54" on="0"/>
        <pt x="421" y="-106" on="0"/>
        <pt x="421" y="-147" on="1"/>
        <pt x="421" y="-198" on="0"/>
        <pt x="340" y="-263" on="0"/>
        <pt x="271" y="-263" on="1"/>
        <pt x="235" y="-263" on="0"/>
        <pt x="173" y="-244" on="0"/>
        <pt x="153" y="-232" on="1"/>
        <pt x="190" y="-159" on="1"/>
        <pt x="205" y="-167" on="0"/>
        <pt x="237" y="-176" on="0"/>
        <pt x="254" y="-176" on="1"/>
        <pt x="278" y="-176" on="0"/>
        <pt x="305" y="-162" on="0"/>
      </contour>
    </TTGlyph>
    <TTGlyph name="ccircumflex" xMin="31" yMin="-17" xMax="476" yMax="816">
      <component glyphName="c" x="0" y="0" flags="0x204"/>
      <component glyphName="uni0302" x="517" y="0" flags="0x4"/>
    </TTGlyph>
    <TTGlyph name="cdotaccent" xMin="31" yMin="-17" xMax="476" yMax="810">
      <component glyphName="c" x="0" y="0" flags="0x204"/>
      <component glyphName="uni0307" x="451" y="0" flags="0x4"/>
    </TTGlyph>
    <TTGlyph name="cedilla" xMin="24" yMin="-263" xMax="292" yMax="16">
      <contour>
        <pt x="176" y="-145" on="1"/>
        <pt x="176" y="-125" on="0"/>
        <pt x="131" y="-112" on="0"/>
        <pt x="85" y="-112" on="1"/>
        <pt x="99" y="16" on="1"/>
        <pt x="187" y="16" on="1"/>
        <pt x="187" y="-48" on="1"/>
        <pt x="241" y="-54" on="0"/>
        <pt x="292" y="-106" on="0"/>
        <pt x="292" y="-147" on="1"/>
        <pt x="292" y="-198" on="0"/>
        <pt x="211" y="-263" on="0"/>
        <pt x="142" y="-263" on="1"/>
        <pt x="106" y="-263" on="0"/>
        <pt x="44" y="-244" on="0"/>
        <pt x="24" y="-232" on="1"/>
        <pt x="61" y="-159" on="1"/>
        <pt x="76" y="-167" on="0"/>
        <pt x="108" y="-176" on="0"/>
        <pt x="125" y="-176" on="1"/>
        <pt x="149" y="-176" on="0"/>
        <pt x="176" y="-162" on="0"/>
      </contour>
    </TTGlyph>
    <TTGlyph name="cent" xMin="55" yMin="-161" xMax="499" yMax="692">
      <contour>
        <pt x="328" y="109" on="1"/>
        <pt x="354" y="109" on="0"/>
        <pt x="398" y="127" on="0"/>
        <pt x="427" y="148" on="1"/>
        <pt x="499" y="46" on="1"/>
        <pt x="441" y="0" on="0"/>
        <pt x="370" y="-12" on="1"/>
        <pt x="370" y="-161" on="1"/>
        <pt x="255" y="-161" on="1"/>
        <pt x="255" y="-9" on="1"/>
        <pt x="158" y="10" on="0"/>
        <pt x="55" y="154" on="0"/>
        <pt x="55" y="262" on="1"/>
        <pt x="55" y="371" on="0"/>
        <pt x="160" y="521" on="0"/>
        <pt x="256" y="541" on="1"/>
        <pt x="256" y="692" on="1"/>
        <pt x="370" y="692" on="1"/>
        <pt x="370" y="543" on="1"/>
        <pt x="442" y="531" on="0"/>
        <pt x="499" y="483" on="1"/>
        <pt x="430" y="387" on="1"/>
        <pt x="403" y="409" on="0"/>
        <pt x="355" y="426" on="0"/>
        <pt x="329" y="426" on="1"/>
        <pt x="278" y="426" on="0"/>
        <pt x="222" y="351" on="0"/>
        <pt x="222" y="262" on="1"/>
        <pt x="222" y="218" on="0"/>
        <pt x="237" y="159" on="0"/>
        <pt x="265" y="124" on="0"/>
        <pt x="304" y="109" on="0"/>
      </contour>
    </TTGlyph>
    <TTGlyph name="chi" xMin="-21" yMin="-222" xMax="511" yMax="548">
      <contour>
        <pt x="252" y="278" on="1"/>
        <pt x="343" y="547" on="1"/>
        <pt x="495" y="514" on="1"/>
        <pt x="338" y="181" on="1"/>
        <pt x="511" y="-178" on="1"/>
        <pt x="354" y="-222" on="1"/>
        <pt x="249" y="81" on="1"/>
        <pt x="245" y="81" on="1"/>
        <pt x="142" y="-222" on="1"/>
        <pt x="-10" y="-190" on="1"/>
        <pt x="161" y="184" on="1"/>
        <pt x="125" y="287" on="0"/>
        <pt x="33" y="443" on="0"/>
        <pt x="-21" y="494" on="1"/>
        <pt x="133" y="548" on="1"/>
        <pt x="172" y="496" on="0"/>
        <pt x="228" y="370" on="0"/>
        <pt x="248" y="278" on="1"/>
      </contour>
    </TTGlyph>
    <TTGlyph name="circumflex" xMin="24" yMin="636" xMax="404" yMax="832">
      <contour>
        <pt x="81" y="636" on="1"/>
        <pt x="24" y="701" on="1"/>
        <pt x="165" y="832" on="1"/>
        <pt x="263" y="832" on="1"/>
        <pt x="404" y="701" on="1"/>
        <pt x="347" y="636" on="1"/>
        <pt x="214" y="721" on="1"/>
      </contour>
    </TTGlyph>
    <TTGlyph name="colon" xMin="34" yMin="-17" xMax="215" yMax="512">
      <contour>
        <pt x="34" y="74" on="1"/>
        <pt x="34" y="112" on="0"/>
        <pt x="86" y="165" on="0"/>
        <pt x="124" y="165" on="1"/>
        <pt x="143" y="165" on="0"/>
        <pt x="176" y="151" on="0"/>
        <pt x="201" y="126" on="0"/>
        <pt x="215" y="93" on="0"/>
        <pt x="215" y="74" on="1"/>
        <pt x="215" y="55" on="0"/>
        <pt x="201" y="22" on="0"/>
        <pt x="176" y="-3" on="0"/>
        <pt x="143" y="-17" on="0"/>
        <pt x="124" y="-17" on="1"/>
        <pt x="86" y="-17" on="0"/>
        <pt x="34" y="36" on="0"/>
      </contour>
      <contour>
        <pt x="34" y="421" on="1"/>
        <pt x="34" y="458" on="0"/>
        <pt x="86" y="512" on="0"/>
        <pt x="124" y="512" on="1"/>
        <pt x="143" y="512" on="0"/>
        <pt x="176" y="497" on="0"/>
        <pt x="201" y="472" on="0"/>
        <pt x="215" y="439" on="0"/>
        <pt x="215" y="421" on="1"/>
        <pt x="215" y="402" on="0"/>
        <pt x="201" y="369" on="0"/>
        <pt x="176" y="344" on="0"/>
        <pt x="143" y="330" on="0"/>
        <pt x="124" y="330" on="1"/>
        <pt x="86" y="330" on="0"/>
        <pt x="34" y="383" on="0"/>
      </contour>
    </TTGlyph>
    <TTGlyph name="comma" xMin="31" yMin="-178" xMax="215" yMax="165">
      <contour>
        <pt x="34" y="75" on="1"/>
        <pt x="34" y="94" on="0"/>
        <pt x="48" y="127" on="0"/>
        <pt x="72" y="151" on="0"/>
        <pt x="105" y="165" on="0"/>
        <pt x="124" y="165" on="1"/>
        <pt x="163" y="165" on="0"/>
        <pt x="215" y="112" on="0"/>
        <pt x="215" y="74" on="1"/>
        <pt x="215" y="51" on="0"/>
        <pt x="200" y="5" on="0"/>
        <pt x="183" y="-33" on="1"/>
        <pt x="120" y="-178" on="1"/>
        <pt x="31" y="-178" on="1"/>
        <pt x="73" y="-1" on="1"/>
        <pt x="34" y="26" on="0"/>
      </contour>
    </TTGlyph>
    <TTGlyph name="copyright" xMin="65" yMin="99" xMax="742" yMax="767">
      <contour>
        <pt x="415" y="324" on="1"/>
        <pt x="439" y="324" on="0"/>
        <pt x="477" y="339" on="0"/>
        <pt x="496" y="355" on="1"/>
        <pt x="541" y="289" on="1"/>
        <pt x="515" y="265" on="0"/>
        <pt x="447" y="235" on="0"/>
        <pt x="406" y="235" on="1"/>
        <pt x="325" y="235" on="0"/>
        <pt x="228" y="337" on="0"/>
        <pt x="228" y="433" on="1"/>
        <pt x="228" y="479" on="0"/>
        <pt x="255" y="552" on="0"/>
        <pt x="302" y="603" on="0"/>
        <pt x="367" y="630" on="0"/>
        <pt x="405" y="630" on="1"/>
        <pt x="482" y="630" on="0"/>
        <pt x="536" y="579" on="1"/>
        <pt x="487" y="517" on="1"/>
        <pt x="467" y="532" on="0"/>
        <pt x="436" y="543" on="0"/>
        <pt x="417" y="543" on="1"/>
        <pt x="385" y="543" on="0"/>
        <pt x="342" y="493" on="0"/>
        <pt x="342" y="433" on="1"/>
        <pt x="342" y="373" on="0"/>
        <pt x="383" y="324" on="0"/>
      </contour>
      <contour>
        <pt x="404" y="179" on="1"/>
        <pt x="457" y="179" on="0"/>
        <pt x="547" y="218" on="0"/>
        <pt x="613" y="287" on="0"/>
        <pt x="650" y="379" on="0"/>
        <pt x="650" y="432" on="1"/>
        <pt x="650" y="485" on="0"/>
        <pt x="613" y="578" on="0"/>
        <pt x="547" y="647" on="0"/>
        <pt x="457" y="686" on="0"/>
        <pt x="404" y="686" on="1"/>
        <pt x="351" y="686" on="0"/>
        <pt x="261" y="647" on="0"/>
        <pt x="195" y="578" on="0"/>
        <pt x="158" y="485" on="0"/>
        <pt x="158" y="432" on="1"/>
        <pt x="158" y="379" on="0"/>
        <pt x="195" y="287" on="0"/>
        <pt x="261" y="218" on="0"/>
        <pt x="351" y="179" on="0"/>
      </contour>
      <contour>
        <pt x="404" y="99" on="1"/>
        <pt x="333" y="99" on="0"/>
        <pt x="210" y="151" on="0"/>
        <pt x="118" y="241" on="0"/>
        <pt x="65" y="362" on="0"/>
        <pt x="65" y="432" on="1"/>
        <pt x="65" y="502" on="0"/>
        <pt x="118" y="624" on="0"/>
        <pt x="210" y="715" on="0"/>
        <pt x="333" y="767" on="0"/>
        <pt x="404" y="767" on="1"/>
        <pt x="475" y="767" on="0"/>
        <pt x="598" y="715" on="0"/>
        <pt x="690" y="624" on="0"/>
        <pt x="742" y="502" on="0"/>
        <pt x="742" y="432" on="1"/>
        <pt x="742" y="362" on="0"/>
        <pt x="690" y="241" on="0"/>
        <pt x="598" y="151" on="0"/>
        <pt x="475" y="99" on="0"/>
      </contour>
    </TTGlyph>
    <TTGlyph name="currency" xMin="11" yMin="71" xMax="549" yMax="612">
      <component glyphName="glyph00774" x="0" y="0" flags="0x204"/>
    </TTGlyph>
    <TTGlyph name="d" xMin="34" yMin="-17" xMax="536" yMax="759">
      <contour>
        <pt x="297" y="432" on="1"/>
        <pt x="253" y="432" on="0"/>
        <pt x="200" y="355" on="0"/>
        <pt x="200" y="266" on="1"/>
        <pt x="200" y="216" on="0"/>
        <pt x="212" y="152" on="0"/>
        <pt x="235" y="115" on="0"/>
        <pt x="268" y="100" on="0"/>
        <pt x="288" y="100" on="1"/>
        <pt x="314" y="100" on="0"/>
        <pt x="359" y="132" on="0"/>
        <pt x="376" y="161" on="1"/>
        <pt x="376" y="389" on="1"/>
        <pt x="359" y="409" on="0"/>
        <pt x="322" y="432" on="0"/>
      </contour>
      <contour>
        <pt x="255" y="549" on="1"/>
        <pt x="290" y="549" on="0"/>
        <pt x="352" y="523" on="0"/>
        <pt x="376" y="500" on="1"/>
        <pt x="376" y="759" on="1"/>
        <pt x="536" y="742" on="1"/>
        <pt x="536" y="0" on="1"/>
        <pt x="395" y="0" on="1"/>
        <pt x="387" y="58" on="1"/>
        <pt x="364" y="27" on="0"/>
        <pt x="289" y="-17" on="0"/>
        <pt x="236" y="-17" on="1"/>
        <pt x="184" y="-17" on="0"/>
        <pt x="108" y="23" on="0"/>
        <pt x="58" y="98" on="0"/>
        <pt x="34" y="202" on="0"/>
        <pt x="34" y="267" on="1"/>
        <pt x="34" y="328" on="0"/>
        <pt x="64" y="432" on="0"/>
        <pt x="121" y="507" on="0"/>
        <pt x="203" y="549" on="0"/>
      </contour>
    </TTGlyph>
    <TTGlyph name="dagger" xMin="31" yMin="0" xMax="516" yMax="711">
      <contour>
        <pt x="348" y="426" on="1"/>
        <pt x="348" y="0" on="1"/>
        <pt x="199" y="0" on="1"/>
        <pt x="199" y="426" on="1"/>
        <pt x="31" y="426" on="1"/>
        <pt x="31" y="555" on="1"/>
        <pt x="199" y="555" on="1"/>
        <pt x="199" y="711" on="1"/>
        <pt x="348" y="711" on="1"/>
        <pt x="348" y="555" on="1"/>
        <pt x="516" y="555" on="1"/>
        <pt x="516" y="426" on="1"/>
      </contour>
    </TTGlyph>
    <TTGlyph name="daggerdbl" xMin="31" yMin="0" xMax="516" yMax="711">
      <contour>
        <pt x="516" y="286" on="1"/>
        <pt x="516" y="156" on="1"/>
        <pt x="348" y="156" on="1"/>
        <pt x="348" y="0" on="1"/>
        <pt x="199" y="0" on="1"/>
        <pt x="199" y="156" on="1"/>
        <pt x="31" y="156" on="1"/>
        <pt x="31" y="286" on="1"/>
        <pt x="199" y="286" on="1"/>
        <pt x="199" y="426" on="1"/>
        <pt x="31" y="426" on="1"/>
        <pt x="31" y="555" on="1"/>
        <pt x="199" y="555" on="1"/>
        <pt x="199" y="711" on="1"/>
        <pt x="348" y="711" on="1"/>
        <pt x="348" y="555" on="1"/>
        <pt x="516" y="555" on="1"/>
        <pt x="516" y="426" on="1"/>
        <pt x="348" y="426" on="1"/>
        <pt x="348" y="286" on="1"/>
      </contour>
    </TTGlyph>
    <TTGlyph name="dcaron" xMin="34" yMin="-17" xMax="732" yMax="834">
      <component glyphName="d" x="0" y="0" flags="0x4"/>
      <component glyphName="uni0313" x="931" y="-45" flags="0x4"/>
    </TTGlyph>
    <TTGlyph name="dcroat" xMin="34" yMin="-17" xMax="603" yMax="759">
      <contour>
        <pt x="297" y="432" on="1"/>
        <pt x="253" y="432" on="0"/>
        <pt x="200" y="355" on="0"/>
        <pt x="200" y="266" on="1"/>
        <pt x="200" y="217" on="0"/>
        <pt x="212" y="153" on="0"/>
        <pt x="235" y="115" on="0"/>
        <pt x="268" y="100" on="0"/>
        <pt x="288" y="100" on="1"/>
        <pt x="314" y="100" on="0"/>
        <pt x="359" y="132" on="0"/>
        <pt x="376" y="161" on="1"/>
        <pt x="376" y="389" on="1"/>
        <pt x="359" y="409" on="0"/>
        <pt x="322" y="432" on="0"/>
      </contour>
      <contour>
        <pt x="255" y="549" on="1"/>
        <pt x="290" y="549" on="0"/>
        <pt x="352" y="523" on="0"/>
        <pt x="376" y="500" on="1"/>
        <pt x="376" y="593" on="1"/>
        <pt x="242" y="593" on="1"/>
        <pt x="242" y="686" on="1"/>
        <pt x="376" y="686" on="1"/>
        <pt x="376" y="759" on="1"/>
        <pt x="536" y="742" on="1"/>
        <pt x="536" y="686" on="1"/>
        <pt x="603" y="686" on="1"/>
        <pt x="603" y="593" on="1"/>
        <pt x="536" y="593" on="1"/>
        <pt x="536" y="0" on="1"/>
        <pt x="395" y="0" on="1"/>
        <pt x="387" y="58" on="1"/>
        <pt x="364" y="27" on="0"/>
        <pt x="289" y="-17" on="0"/>
        <pt x="236" y="-17" on="1"/>
        <pt x="183" y="-17" on="0"/>
        <pt x="107" y="23" on="0"/>
        <pt x="58" y="98" on="0"/>
        <pt x="34" y="202" on="0"/>
        <pt x="34" y="267" on="1"/>
        <pt x="34" y="328" on="0"/>
        <pt x="64" y="432" on="0"/>
        <pt x="121" y="507" on="0"/>
        <pt x="203" y="549" on="0"/>
      </contour>
    </TTGlyph>
    <TTGlyph name="degree" xMin="55" yMin="419" xMax="412" yMax="759">
      <contour>
        <pt x="233" y="512" on="1"/>
        <pt x="265" y="512" on="0"/>
        <pt x="303" y="555" on="0"/>
        <pt x="303" y="590" on="1"/>
        <pt x="303" y="625" on="0"/>
        <pt x="265" y="667" on="0"/>
        <pt x="233" y="667" on="1"/>
        <pt x="202" y="667" on="0"/>
        <pt x="164" y="625" on="0"/>
        <pt x="164" y="590" on="1"/>
        <pt x="164" y="555" on="0"/>
        <pt x="202" y="512" on="0"/>
      </contour>
      <contour>
        <pt x="233" y="419" on="1"/>
        <pt x="200" y="419" on="0"/>
        <pt x="136" y="442" on="0"/>
        <pt x="86" y="486" on="0"/>
        <pt x="55" y="550" on="0"/>
        <pt x="55" y="590" on="1"/>
        <pt x="55" y="630" on="0"/>
        <pt x="86" y="693" on="0"/>
        <pt x="136" y="736" on="0"/>
        <pt x="200" y="759" on="0"/>
        <pt x="233" y="759" on="1"/>
        <pt x="266" y="759" on="0"/>
        <pt x="331" y="736" on="0"/>
        <pt x="381" y="693" on="0"/>
        <pt x="412" y="630" on="0"/>
        <pt x="412" y="590" on="1"/>
        <pt x="412" y="550" on="0"/>
        <pt x="381" y="486" on="0"/>
        <pt x="331" y="442" on="0"/>
        <pt x="266" y="419" on="0"/>
      </contour>
    </TTGlyph>
    <TTGlyph name="delta" xMin="30" yMin="-17" xMax="548" yMax="759">
      <contour>
        <pt x="30" y="242" on="1"/>
        <pt x="30" y="319" on="0"/>
        <pt x="109" y="432" on="0"/>
        <pt x="183" y="465" on="1"/>
        <pt x="127" y="495" on="0"/>
        <pt x="86" y="558" on="0"/>
        <pt x="86" y="605" on="1"/>
        <pt x="86" y="673" on="0"/>
        <pt x="195" y="759" on="0"/>
        <pt x="307" y="759" on="1"/>
        <pt x="369" y="759" on="0"/>
        <pt x="464" y="723" on="0"/>
        <pt x="499" y="696" on="1"/>
        <pt x="423" y="609" on="1"/>
        <pt x="396" y="628" on="0"/>
        <pt x="344" y="645" on="0"/>
        <pt x="313" y="645" on="1"/>
        <pt x="278" y="645" on="0"/>
        <pt x="245" y="621" on="0"/>
        <pt x="245" y="602" on="1"/>
        <pt x="245" y="590" on="0"/>
        <pt x="252" y="572" on="0"/>
        <pt x="273" y="555" on="0"/>
        <pt x="308" y="537" on="0"/>
        <pt x="337" y="525" on="1"/>
        <pt x="392" y="503" on="0"/>
        <pt x="472" y="452" on="0"/>
        <pt x="523" y="387" on="0"/>
        <pt x="548" y="303" on="0"/>
        <pt x="548" y="248" on="1"/>
        <pt x="548" y="188" on="0"/>
        <pt x="511" y="90" on="0"/>
        <pt x="444" y="21" on="0"/>
        <pt x="348" y="-17" on="0"/>
        <pt x="289" y="-17" on="1"/>
        <pt x="228" y="-17" on="0"/>
        <pt x="132" y="20" on="0"/>
        <pt x="65" y="88" on="0"/>
        <pt x="30" y="184" on="0"/>
      </contour>
      <contour>
        <pt x="382" y="249" on="1"/>
        <pt x="382" y="286" on="0"/>
        <pt x="372" y="339" on="0"/>
        <pt x="347" y="379" on="0"/>
        <pt x="304" y="410" on="0"/>
        <pt x="271" y="425" on="1"/>
        <pt x="248" y="408" on="0"/>
        <pt x="218" y="370" on="0"/>
        <pt x="201" y="327" on="0"/>
        <pt x="194" y="277" on="0"/>
        <pt x="194" y="249" on="1"/>
        <pt x="194" y="100" on="0"/>
        <pt x="288" y="100" on="1"/>
        <pt x="334" y="100" on="0"/>
        <pt x="382" y="171" on="0"/>
      </contour>
    </TTGlyph>
    <TTGlyph name="dieresis" xMin="24" yMin="644" xMax="422" yMax="806">
      <contour>
        <pt x="107" y="644" on="1"/>
        <pt x="72" y="644" on="0"/>
        <pt x="24" y="691" on="0"/>
        <pt x="24" y="726" on="1"/>
        <pt x="24" y="760" on="0"/>
        <pt x="72" y="806" on="0"/>
        <pt x="107" y="806" on="1"/>
        <pt x="142" y="806" on="0"/>
        <pt x="189" y="760" on="0"/>
        <pt x="189" y="726" on="1"/>
        <pt x="189" y="691" on="0"/>
        <pt x="142" y="644" on="0"/>
      </contour>
      <contour>
        <pt x="339" y="644" on="1"/>
        <pt x="304" y="644" on="0"/>
        <pt x="256" y="691" on="0"/>
        <pt x="256" y="726" on="1"/>
        <pt x="256" y="760" on="0"/>
        <pt x="304" y="806" on="0"/>
        <pt x="339" y="806" on="1"/>
        <pt x="374" y="806" on="0"/>
        <pt x="422" y="760" on="0"/>
        <pt x="422" y="726" on="1"/>
        <pt x="422" y="691" on="0"/>
        <pt x="374" y="644" on="0"/>
      </contour>
    </TTGlyph>
    <TTGlyph name="dieresistonos" xMin="-505" yMin="608" xMax="-80" yMax="952">
      <contour>
        <pt x="-424" y="608" on="1"/>
        <pt x="-458" y="608" on="0"/>
        <pt x="-505" y="653" on="0"/>
        <pt x="-505" y="686" on="1"/>
        <pt x="-505" y="718" on="0"/>
        <pt x="-458" y="763" on="0"/>
        <pt x="-424" y="763" on="1"/>
        <pt x="-391" y="763" on="0"/>
        <pt x="-345" y="718" on="0"/>
        <pt x="-345" y="686" on="1"/>
        <pt x="-345" y="653" on="0"/>
        <pt x="-391" y="608" on="0"/>
      </contour>
      <contour>
        <pt x="-159" y="608" on="1"/>
        <pt x="-193" y="608" on="0"/>
        <pt x="-240" y="653" on="0"/>
        <pt x="-240" y="686" on="1"/>
        <pt x="-240" y="718" on="0"/>
        <pt x="-193" y="763" on="0"/>
        <pt x="-159" y="763" on="1"/>
        <pt x="-126" y="763" on="0"/>
        <pt x="-80" y="718" on="0"/>
        <pt x="-80" y="686" on="1"/>
        <pt x="-80" y="653" on="0"/>
        <pt x="-126" y="608" on="0"/>
      </contour>
      <contour>
        <pt x="-177" y="926" on="1"/>
        <pt x="-249" y="736" on="1"/>
        <pt x="-341" y="753" on="1"/>
        <pt x="-310" y="952" on="1"/>
      </contour>
    </TTGlyph>
    <TTGlyph name="divide" xMin="62" yMin="13" xMax="498" yMax="624">
      <component glyphName="glyph00781" x="20" y="0" flags="0x4"/>
    </TTGlyph>
    <TTGlyph name="dollar" xMin="22" yMin="-161" xMax="537" yMax="857">
      <contour>
        <pt x="537" y="204" on="1"/>
        <pt x="537" y="120" on="0"/>
        <pt x="436" y="7" on="0"/>
        <pt x="342" y="-9" on="1"/>
        <pt x="342" y="-161" on="1"/>
        <pt x="225" y="-161" on="1"/>
        <pt x="225" y="-13" on="1"/>
        <pt x="161" y="-6" on="0"/>
        <pt x="58" y="41" on="0"/>
        <pt x="22" y="76" on="1"/>
        <pt x="103" y="171" on="1"/>
        <pt x="140" y="140" on="0"/>
        <pt x="215" y="107" on="0"/>
        <pt x="266" y="107" on="1"/>
        <pt x="314" y="107" on="0"/>
        <pt x="369" y="154" on="0"/>
        <pt x="369" y="191" on="1"/>
        <pt x="369" y="209" on="0"/>
        <pt x="360" y="238" on="0"/>
        <pt x="334" y="264" on="0"/>
        <pt x="289" y="287" on="0"/>
        <pt x="253" y="298" on="1"/>
        <pt x="140" y="333" on="0"/>
        <pt x="47" y="438" on="0"/>
        <pt x="47" y="511" on="1"/>
        <pt x="47" y="550" on="0"/>
        <pt x="73" y="613" on="0"/>
        <pt x="120" y="662" on="0"/>
        <pt x="185" y="694" on="0"/>
        <pt x="224" y="702" on="1"/>
        <pt x="224" y="857" on="1"/>
        <pt x="341" y="857" on="1"/>
        <pt x="341" y="707" on="1"/>
        <pt x="398" y="702" on="0"/>
        <pt x="485" y="662" on="0"/>
        <pt x="522" y="630" on="1"/>
        <pt x="443" y="543" on="1"/>
        <pt x="411" y="569" on="0"/>
        <pt x="345" y="591" on="0"/>
        <pt x="310" y="591" on="1"/>
        <pt x="264" y="591" on="0"/>
        <pt x="215" y="555" on="0"/>
        <pt x="215" y="523" on="1"/>
        <pt x="215" y="508" on="0"/>
        <pt x="226" y="483" on="0"/>
        <pt x="255" y="461" on="0"/>
        <pt x="305" y="439" on="0"/>
        <pt x="345" y="426" on="1"/>
        <pt x="394" y="410" on="0"/>
        <pt x="466" y="370" on="0"/>
        <pt x="514" y="317" on="0"/>
        <pt x="537" y="248" on="0"/>
      </contour>
    </TTGlyph>
    <TTGlyph name="dotaccent" xMin="24" yMin="645" xMax="212" yMax="825">
      <contour>
        <pt x="212" y="735" on="1"/>
        <pt x="212" y="697" on="0"/>
        <pt x="160" y="645" on="0"/>
        <pt x="118" y="645" on="1"/>
        <pt x="76" y="645" on="0"/>
        <pt x="24" y="697" on="0"/>
        <pt x="24" y="735" on="1"/>
        <pt x="24" y="773" on="0"/>
        <pt x="76" y="825" on="0"/>
        <pt x="118" y="825" on="1"/>
        <pt x="160" y="825" on="0"/>
        <pt x="212" y="773" on="0"/>
      </contour>
    </TTGlyph>
    <TTGlyph name="dotlessi" xMin="60" yMin="0" xMax="220" yMax="531">
      <contour>
        <pt x="60" y="0" on="1"/>
        <pt x="60" y="531" on="1"/>
        <pt x="220" y="531" on="1"/>
        <pt x="220" y="0" on="1"/>
      </contour>
    </TTGlyph>
    <TTGlyph name="dotmath" xMin="34" yMin="237" xMax="215" yMax="419">
      <component glyphName="periodcentered" x="0" y="0" flags="0x204"/>
    </TTGlyph>
    <TTGlyph name="e" xMin="31" yMin="-17" xMax="526" yMax="549">
      <contour>
        <pt x="195" y="219" on="1"/>
        <pt x="203" y="154" on="0"/>
        <pt x="266" y="99" on="0"/>
        <pt x="314" y="99" on="1"/>
        <pt x="346" y="99" on="0"/>
        <pt x="405" y="121" on="0"/>
        <pt x="439" y="147" on="1"/>
        <pt x="506" y="56" on="1"/>
        <pt x="467" y="25" on="0"/>
        <pt x="364" y="-17" on="0"/>
        <pt x="301" y="-17" on="1"/>
        <pt x="233" y="-17" on="0"/>
        <pt x="131" y="25" on="0"/>
        <pt x="64" y="100" on="0"/>
        <pt x="31" y="203" on="0"/>
        <pt x="31" y="265" on="1"/>
        <pt x="31" y="324" on="0"/>
        <pt x="63" y="427" on="0"/>
        <pt x="127" y="504" on="0"/>
        <pt x="220" y="549" on="0"/>
        <pt x="282" y="549" on="1"/>
        <pt x="396" y="549" on="0"/>
        <pt x="526" y="406" on="0"/>
        <pt x="526" y="276" on="1"/>
        <pt x="526" y="262" on="0"/>
        <pt x="525" y="231" on="0"/>
        <pt x="523" y="219" on="1"/>
      </contour>
      <contour>
        <pt x="283" y="442" on="1"/>
        <pt x="245" y="442" on="0"/>
        <pt x="198" y="381" on="0"/>
        <pt x="193" y="315" on="1"/>
        <pt x="369" y="315" on="1"/>
        <pt x="369" y="343" on="0"/>
        <pt x="360" y="390" on="0"/>
        <pt x="340" y="423" on="0"/>
        <pt x="307" y="442" on="0"/>
      </contour>
    </TTGlyph>
    <TTGlyph name="eacute" xMin="31" yMin="-17" xMax="526" yMax="833">
      <component glyphName="e" x="0" y="0" flags="0x204"/>
      <component glyphName="acutecomb" x="486" y="0" flags="0x4"/>
    </TTGlyph>
    <TTGlyph name="ebreve" xMin="31" yMin="-17" xMax="526" yMax="802">
      <component glyphName="e" x="0" y="0" flags="0x204"/>
      <component glyphName="uni0306" x="509" y="0" flags="0x4"/>
    </TTGlyph>
    <TTGlyph name="ecaron" xMin="31" yMin="-17" xMax="526" yMax="816">
      <component glyphName="e" x="0" y="0" flags="0x204"/>
      <component glyphName="uni030C" x="525" y="0" flags="0x4"/>
    </TTGlyph>
    <TTGlyph name="ecircumflex" xMin="31" yMin="-17" xMax="526" yMax="816">
      <component glyphName="e" x="0" y="0" flags="0x204"/>
      <component glyphName="uni0302" x="528" y="0" flags="0x4"/>
    </TTGlyph>
    <TTGlyph name="edieresis" xMin="31" yMin="-17" xMax="526" yMax="798">
      <component glyphName="e" x="0" y="0" flags="0x204"/>
      <component glyphName="uni0308" x="530" y="0" flags="0x4"/>
    </TTGlyph>
    <TTGlyph name="edotaccent" xMin="31" yMin="-17" xMax="526" yMax="810">
      <component glyphName="e" x="0" y="0" flags="0x204"/>
      <component glyphName="uni0307" x="461" y="0" flags="0x4"/>
    </TTGlyph>
    <TTGlyph name="egrave" xMin="31" yMin="-17" xMax="526" yMax="833">
      <component glyphName="e" x="0" y="0" flags="0x204"/>
      <component glyphName="gravecomb" x="483" y="0" flags="0x4"/>
    </TTGlyph>
    <TTGlyph name="eight" xMin="22" yMin="-17" xMax="538" yMax="711">
      <contour>
        <pt x="511" y="532" on="1"/>
        <pt x="511" y="490" on="0"/>
        <pt x="460" y="409" on="0"/>
        <pt x="404" y="377" on="1"/>
        <pt x="474" y="342" on="0"/>
        <pt x="538" y="247" on="0"/>
        <pt x="538" y="188" on="1"/>
        <pt x="538" y="148" on="0"/>
        <pt x="505" y="74" on="0"/>
        <pt x="440" y="17" on="0"/>
        <pt x="342" y="-17" on="0"/>
        <pt x="277" y="-17" on="1"/>
        <pt x="213" y="-17" on="0"/>
        <pt x="118" y="16" on="0"/>
        <pt x="54" y="71" on="0"/>
        <pt x="22" y="144" on="0"/>
        <pt x="22" y="184" on="1"/>
        <pt x="22" y="244" on="0"/>
        <pt x="90" y="331" on="0"/>
        <pt x="149" y="357" on="1"/>
        <pt x="95" y="391" on="0"/>
        <pt x="49" y="477" on="0"/>
        <pt x="49" y="525" on="1"/>
        <pt x="49" y="567" on="0"/>
        <pt x="84" y="636" on="0"/>
        <pt x="147" y="684" on="0"/>
        <pt x="232" y="711" on="0"/>
        <pt x="282" y="711" on="1"/>
        <pt x="333" y="711" on="0"/>
        <pt x="417" y="687" on="0"/>
        <pt x="478" y="641" on="0"/>
        <pt x="511" y="574" on="0"/>
      </contour>
      <contour>
        <pt x="377" y="189" on="1"/>
        <pt x="377" y="214" on="0"/>
        <pt x="363" y="250" on="0"/>
        <pt x="331" y="278" on="0"/>
        <pt x="282" y="301" on="0"/>
        <pt x="247" y="314" on="1"/>
        <pt x="217" y="294" on="0"/>
        <pt x="182" y="235" on="0"/>
        <pt x="182" y="194" on="1"/>
        <pt x="182" y="151" on="0"/>
        <pt x="231" y="97" on="0"/>
        <pt x="281" y="97" on="1"/>
        <pt x="332" y="97" on="0"/>
        <pt x="377" y="152" on="0"/>
      </contour>
      <contour>
        <pt x="201" y="523" on="1"/>
        <pt x="201" y="484" on="0"/>
        <pt x="250" y="436" on="0"/>
        <pt x="302" y="416" on="1"/>
        <pt x="336" y="441" on="0"/>
        <pt x="359" y="494" on="0"/>
        <pt x="359" y="523" on="1"/>
        <pt x="359" y="558" on="0"/>
        <pt x="321" y="602" on="0"/>
        <pt x="281" y="602" on="1"/>
        <pt x="243" y="602" on="0"/>
        <pt x="201" y="561" on="0"/>
      </contour>
    </TTGlyph>
    <TTGlyph name="ellipsis" xMin="34" yMin="-17" xMax="713" yMax="165">
      <contour>
        <pt x="282" y="74" on="1"/>
        <pt x="282" y="112" on="0"/>
        <pt x="335" y="165" on="0"/>
        <pt x="373" y="165" on="1"/>
        <pt x="392" y="165" on="0"/>
        <pt x="425" y="151" on="0"/>
        <pt x="450" y="126" on="0"/>
        <pt x="464" y="93" on="0"/>
        <pt x="464" y="74" on="1"/>
        <pt x="464" y="55" on="0"/>
        <pt x="450" y="22" on="0"/>
        <pt x="425" y="-3" on="0"/>
        <pt x="392" y="-17" on="0"/>
        <pt x="373" y="-17" on="1"/>
        <pt x="335" y="-17" on="0"/>
        <pt x="282" y="36" on="0"/>
      </contour>
      <contour>
        <pt x="531" y="74" on="1"/>
        <pt x="531" y="93" on="0"/>
        <pt x="545" y="126" on="0"/>
        <pt x="570" y="151" on="0"/>
        <pt x="603" y="165" on="0"/>
        <pt x="622" y="165" on="1"/>
        <pt x="641" y="165" on="0"/>
        <pt x="674" y="151" on="0"/>
        <pt x="699" y="126" on="0"/>
        <pt x="713" y="93" on="0"/>
        <pt x="713" y="74" on="1"/>
        <pt x="713" y="55" on="0"/>
        <pt x="699" y="22" on="0"/>
        <pt x="674" y="-3" on="0"/>
        <pt x="641" y="-17" on="0"/>
        <pt x="622" y="-17" on="1"/>
        <pt x="603" y="-17" on="0"/>
        <pt x="570" y="-3" on="0"/>
        <pt x="545" y="22" on="0"/>
        <pt x="531" y="55" on="0"/>
      </contour>
      <contour>
        <pt x="34" y="74" on="1"/>
        <pt x="34" y="112" on="0"/>
        <pt x="87" y="165" on="0"/>
        <pt x="125" y="165" on="1"/>
        <pt x="144" y="165" on="0"/>
        <pt x="177" y="151" on="0"/>
        <pt x="202" y="126" on="0"/>
        <pt x="216" y="93" on="0"/>
        <pt x="216" y="74" on="1"/>
        <pt x="216" y="55" on="0"/>
        <pt x="202" y="22" on="0"/>
        <pt x="177" y="-3" on="0"/>
        <pt x="144" y="-17" on="0"/>
        <pt x="125" y="-17" on="1"/>
        <pt x="87" y="-17" on="0"/>
        <pt x="34" y="36" on="0"/>
      </contour>
    </TTGlyph>
    <TTGlyph name="emacron" xMin="31" yMin="-17" xMax="526" yMax="768">
      <component glyphName="e" x="0" y="0" flags="0x204"/>
      <component glyphName="uni0304" x="491" y="0" flags="0x4"/>
    </TTGlyph>
    <TTGlyph name="emdash" xMin="21" yMin="251" xMax="775" yMax="375">
      <contour>
        <pt x="21" y="251" on="1"/>
        <pt x="21" y="375" on="1"/>
        <pt x="775" y="375" on="1"/>
        <pt x="775" y="251" on="1"/>
      </contour>
    </TTGlyph>
    <TTGlyph name="endash" xMin="21" yMin="251" xMax="499" yMax="375">
      <contour>
        <pt x="21" y="251" on="1"/>
        <pt x="21" y="375" on="1"/>
        <pt x="499" y="375" on="1"/>
        <pt x="499" y="251" on="1"/>
      </contour>
    </TTGlyph>
    <TTGlyph name="eng" xMin="62" yMin="-222" xMax="521" yMax="549">
      <contour>
        <pt x="521" y="61" on="1"/>
        <pt x="521" y="-5" on="0"/>
        <pt x="491" y="-95" on="0"/>
        <pt x="435" y="-158" on="0"/>
        <pt x="356" y="-203" on="0"/>
        <pt x="308" y="-222" on="1"/>
        <pt x="252" y="-105" on="1"/>
        <pt x="278" y="-94" on="0"/>
        <pt x="318" y="-69" on="0"/>
        <pt x="346" y="-34" on="0"/>
        <pt x="361" y="15" on="0"/>
        <pt x="361" y="51" on="1"/>
        <pt x="361" y="365" on="1"/>
        <pt x="361" y="402" on="0"/>
        <pt x="337" y="431" on="0"/>
        <pt x="312" y="431" on="1"/>
        <pt x="288" y="431" on="0"/>
        <pt x="244" y="397" on="0"/>
        <pt x="222" y="367" on="1"/>
        <pt x="222" y="0" on="1"/>
        <pt x="62" y="0" on="1"/>
        <pt x="62" y="531" on="1"/>
        <pt x="201" y="531" on="1"/>
        <pt x="213" y="470" on="1"/>
        <pt x="283" y="549" on="0"/>
        <pt x="377" y="549" on="1"/>
        <pt x="448" y="549" on="0"/>
        <pt x="521" y="466" on="0"/>
        <pt x="521" y="390" on="1"/>
      </contour>
    </TTGlyph>
    <TTGlyph name="eogonek" xMin="31" yMin="-258" xMax="526" yMax="549">
      <contour>
        <pt x="428" y="7" on="1"/>
        <pt x="369" y="-25" on="0"/>
        <pt x="327" y="-88" on="0"/>
        <pt x="327" y="-119" on="1"/>
        <pt x="327" y="-140" on="0"/>
        <pt x="353" y="-168" on="0"/>
        <pt x="379" y="-168" on="1"/>
        <pt x="399" y="-168" on="0"/>
        <pt x="433" y="-159" on="0"/>
        <pt x="444" y="-154" on="1"/>
        <pt x="476" y="-231" on="1"/>
        <pt x="452" y="-244" on="0"/>
        <pt x="394" y="-258" on="0"/>
        <pt x="363" y="-258" on="1"/>
        <pt x="297" y="-258" on="0"/>
        <pt x="218" y="-193" on="0"/>
        <pt x="218" y="-136" on="1"/>
        <pt x="218" y="-102" on="0"/>
        <pt x="265" y="-35" on="0"/>
        <pt x="312" y="-11" on="1"/>
        <pt x="305" y="-12" on="0"/>
        <pt x="288" y="-13" on="0"/>
        <pt x="281" y="-13" on="1"/>
        <pt x="218" y="-13" on="0"/>
        <pt x="125" y="30" on="0"/>
        <pt x="62" y="105" on="0"/>
        <pt x="31" y="206" on="0"/>
        <pt x="31" y="265" on="1"/>
        <pt x="31" y="324" on="0"/>
        <pt x="63" y="427" on="0"/>
        <pt x="127" y="504" on="0"/>
        <pt x="220" y="549" on="0"/>
        <pt x="282" y="549" on="1"/>
        <pt x="396" y="549" on="0"/>
        <pt x="526" y="406" on="0"/>
        <pt x="526" y="276" on="1"/>
        <pt x="526" y="262" on="0"/>
        <pt x="525" y="231" on="0"/>
        <pt x="523" y="219" on="1"/>
        <pt x="195" y="219" on="1"/>
        <pt x="203" y="154" on="0"/>
        <pt x="266" y="99" on="0"/>
        <pt x="314" y="99" on="1"/>
        <pt x="346" y="99" on="0"/>
        <pt x="405" y="121" on="0"/>
        <pt x="439" y="147" on="1"/>
        <pt x="506" y="56" on="1"/>
        <pt x="489" y="42" on="0"/>
        <pt x="451" y="19" on="0"/>
      </contour>
      <contour>
        <pt x="283" y="442" on="1"/>
        <pt x="245" y="442" on="0"/>
        <pt x="198" y="381" on="0"/>
        <pt x="193" y="315" on="1"/>
        <pt x="369" y="315" on="1"/>
        <pt x="369" y="343" on="0"/>
        <pt x="360" y="390" on="0"/>
        <pt x="340" y="423" on="0"/>
        <pt x="307" y="442" on="0"/>
      </contour>
    </TTGlyph>
    <TTGlyph name="epsilon" xMin="31" yMin="-17" xMax="504" yMax="549">
      <contour>
        <pt x="339" y="222" on="1"/>
        <pt x="280" y="222" on="1"/>
        <pt x="235" y="221" on="0"/>
        <pt x="198" y="191" on="0"/>
        <pt x="198" y="162" on="1"/>
        <pt x="198" y="131" on="0"/>
        <pt x="241" y="97" on="0"/>
        <pt x="287" y="97" on="1"/>
        <pt x="327" y="97" on="0"/>
        <pt x="395" y="119" on="0"/>
        <pt x="430" y="142" on="1"/>
        <pt x="504" y="53" on="1"/>
        <pt x="460" y="21" on="0"/>
        <pt x="348" y="-17" on="0"/>
        <pt x="277" y="-17" on="1"/>
        <pt x="223" y="-17" on="0"/>
        <pt x="132" y="4" on="0"/>
        <pt x="67" y="46" on="0"/>
        <pt x="31" y="108" on="0"/>
        <pt x="31" y="149" on="1"/>
        <pt x="31" y="207" on="0"/>
        <pt x="104" y="273" on="0"/>
        <pt x="163" y="281" on="1"/>
        <pt x="163" y="285" on="1"/>
        <pt x="112" y="298" on="0"/>
        <pt x="52" y="360" on="0"/>
        <pt x="52" y="405" on="1"/>
        <pt x="52" y="439" on="0"/>
        <pt x="84" y="493" on="0"/>
        <pt x="141" y="530" on="0"/>
        <pt x="219" y="549" on="0"/>
        <pt x="264" y="549" on="1"/>
        <pt x="321" y="549" on="0"/>
        <pt x="427" y="520" on="0"/>
        <pt x="472" y="488" on="1"/>
        <pt x="400" y="402" on="1"/>
        <pt x="372" y="421" on="0"/>
        <pt x="313" y="438" on="0"/>
        <pt x="283" y="438" on="1"/>
        <pt x="213" y="438" on="0"/>
        <pt x="213" y="383" on="1"/>
        <pt x="213" y="357" on="0"/>
        <pt x="251" y="324" on="0"/>
        <pt x="287" y="324" on="1"/>
        <pt x="354" y="324" on="1"/>
      </contour>
    </TTGlyph>
    <TTGlyph name="epsilontonos" xMin="31" yMin="-17" xMax="504" yMax="854">
      <component glyphName="tonos" x="329" y="0" flags="0x4"/>
      <component glyphName="epsilon" x="0" y="0" flags="0x4"/>
    </TTGlyph>
    <TTGlyph name="equal" xMin="62" yMin="150" xMax="498" yMax="485">
      <component glyphName="glyph00769" x="20" y="0" flags="0x4"/>
    </TTGlyph>
    <TTGlyph name="estimated" xMin="78" yMin="-12" xMax="867" yMax="702">
      <contour>
        <pt x="223" y="334" on="1"/>
        <pt x="223" y="122" on="1"/>
        <pt x="238" y="99" on="0"/>
        <pt x="294" y="63" on="0"/>
        <pt x="363" y="39" on="0"/>
        <pt x="438" y="27" on="0"/>
        <pt x="473" y="27" on="1"/>
        <pt x="507" y="27" on="0"/>
        <pt x="580" y="39" on="0"/>
        <pt x="648" y="63" on="0"/>
        <pt x="707" y="99" on="0"/>
        <pt x="728" y="123" on="1"/>
        <pt x="785" y="123" on="1"/>
        <pt x="731" y="60" on="0"/>
        <pt x="575" y="-12" on="0"/>
        <pt x="472" y="-12" on="1"/>
        <pt x="388" y="-12" on="0"/>
        <pt x="244" y="41" on="0"/>
        <pt x="138" y="135" on="0"/>
        <pt x="78" y="265" on="0"/>
        <pt x="78" y="342" on="1"/>
        <pt x="78" y="419" on="0"/>
        <pt x="140" y="551" on="0"/>
        <pt x="247" y="647" on="0"/>
        <pt x="391" y="702" on="0"/>
        <pt x="472" y="702" on="1"/>
        <pt x="551" y="702" on="0"/>
        <pt x="694" y="649" on="0"/>
        <pt x="803" y="552" on="0"/>
        <pt x="867" y="416" on="0"/>
        <pt x="867" y="334" on="1"/>
      </contour>
      <contour>
        <pt x="722" y="564" on="1"/>
        <pt x="680" y="609" on="0"/>
        <pt x="560" y="663" on="0"/>
        <pt x="473" y="663" on="1"/>
        <pt x="386" y="663" on="0"/>
        <pt x="261" y="610" on="0"/>
        <pt x="223" y="564" on="1"/>
        <pt x="223" y="373" on="1"/>
        <pt x="722" y="373" on="1"/>
      </contour>
    </TTGlyph>
    <TTGlyph name="eta" xMin="46" yMin="-222" xMax="527" yMax="549">
      <contour>
        <pt x="527" y="-205" on="1"/>
        <pt x="367" y="-222" on="1"/>
        <pt x="367" y="351" on="1"/>
        <pt x="367" y="396" on="0"/>
        <pt x="347" y="431" on="0"/>
        <pt x="319" y="431" on="1"/>
        <pt x="294" y="431" on="0"/>
        <pt x="250" y="397" on="0"/>
        <pt x="228" y="367" on="1"/>
        <pt x="228" y="0" on="1"/>
        <pt x="68" y="0" on="1"/>
        <pt x="68" y="383" on="1"/>
        <pt x="68" y="423" on="0"/>
        <pt x="54" y="499" on="0"/>
        <pt x="46" y="525" on="1"/>
        <pt x="194" y="545" on="1"/>
        <pt x="210" y="517" on="0"/>
        <pt x="218" y="469" on="1"/>
        <pt x="289" y="549" on="0"/>
        <pt x="383" y="549" on="1"/>
        <pt x="454" y="549" on="0"/>
        <pt x="527" y="466" on="0"/>
        <pt x="527" y="390" on="1"/>
      </contour>
    </TTGlyph>
    <TTGlyph name="etatonos" xMin="46" yMin="-222" xMax="527" yMax="854">
      <component glyphName="eta" x="0" y="0" flags="0x204"/>
      <component glyphName="tonos" x="354" y="0" flags="0x4"/>
    </TTGlyph>
    <TTGlyph name="eth" xMin="31" yMin="-17" xMax="543" yMax="798">
      <contour>
        <pt x="113" y="571" on="1"/>
        <pt x="170" y="631" on="1"/>
        <pt x="150" y="638" on="0"/>
        <pt x="106" y="649" on="0"/>
        <pt x="82" y="654" on="1"/>
        <pt x="114" y="758" on="1"/>
        <pt x="196" y="746" on="0"/>
        <pt x="258" y="722" on="1"/>
        <pt x="331" y="798" on="1"/>
        <pt x="413" y="727" on="1"/>
        <pt x="360" y="673" on="1"/>
        <pt x="457" y="610" on="0"/>
        <pt x="543" y="412" on="0"/>
        <pt x="543" y="277" on="1"/>
        <pt x="543" y="215" on="0"/>
        <pt x="508" y="108" on="0"/>
        <pt x="442" y="29" on="0"/>
        <pt x="345" y="-17" on="0"/>
        <pt x="283" y="-17" on="1"/>
        <pt x="230" y="-17" on="0"/>
        <pt x="138" y="17" on="0"/>
        <pt x="70" y="81" on="0"/>
        <pt x="31" y="174" on="0"/>
        <pt x="31" y="234" on="1"/>
        <pt x="31" y="289" on="0"/>
        <pt x="65" y="381" on="0"/>
        <pt x="123" y="446" on="0"/>
        <pt x="198" y="482" on="0"/>
        <pt x="239" y="482" on="1"/>
        <pt x="281" y="482" on="0"/>
        <pt x="343" y="458" on="0"/>
        <pt x="366" y="440" on="1"/>
        <pt x="369" y="441" on="1"/>
        <pt x="339" y="529" on="0"/>
        <pt x="270" y="581" on="1"/>
        <pt x="215" y="525" on="1"/>
      </contour>
      <contour>
        <pt x="380" y="256" on="1"/>
        <pt x="380" y="293" on="1"/>
        <pt x="380" y="311" on="0"/>
        <pt x="379" y="328" on="1"/>
        <pt x="340" y="370" on="0"/>
        <pt x="283" y="370" on="1"/>
        <pt x="242" y="370" on="0"/>
        <pt x="194" y="305" on="0"/>
        <pt x="194" y="236" on="1"/>
        <pt x="194" y="163" on="0"/>
        <pt x="243" y="99" on="0"/>
        <pt x="285" y="99" on="1"/>
        <pt x="380" y="99" on="0"/>
      </contour>
    </TTGlyph>
    <TTGlyph name="exclam" xMin="34" yMin="-17" xMax="215" yMax="693">
      <contour>
        <pt x="34" y="74" on="1"/>
        <pt x="34" y="112" on="0"/>
        <pt x="86" y="165" on="0"/>
        <pt x="124" y="165" on="1"/>
        <pt x="143" y="165" on="0"/>
        <pt x="176" y="151" on="0"/>
        <pt x="201" y="126" on="0"/>
        <pt x="215" y="93" on="0"/>
        <pt x="215" y="74" on="1"/>
        <pt x="215" y="55" on="0"/>
        <pt x="201" y="22" on="0"/>
        <pt x="176" y="-3" on="0"/>
        <pt x="143" y="-17" on="0"/>
        <pt x="124" y="-17" on="1"/>
        <pt x="86" y="-17" on="0"/>
        <pt x="34" y="36" on="0"/>
      </contour>
      <contour>
        <pt x="60" y="256" on="1"/>
        <pt x="39" y="693" on="1"/>
        <pt x="209" y="693" on="1"/>
        <pt x="189" y="256" on="1"/>
      </contour>
    </TTGlyph>
    <TTGlyph name="exclamdown" xMin="34" yMin="-204" xMax="215" yMax="512">
      <contour>
        <pt x="215" y="420" on="1"/>
        <pt x="215" y="402" on="0"/>
        <pt x="201" y="369" on="0"/>
        <pt x="176" y="344" on="0"/>
        <pt x="143" y="330" on="0"/>
        <pt x="124" y="330" on="1"/>
        <pt x="86" y="330" on="0"/>
        <pt x="34" y="383" on="0"/>
        <pt x="34" y="420" on="1"/>
        <pt x="34" y="458" on="0"/>
        <pt x="86" y="512" on="0"/>
        <pt x="124" y="512" on="1"/>
        <pt x="143" y="512" on="0"/>
        <pt x="176" y="497" on="0"/>
        <pt x="201" y="472" on="0"/>
        <pt x="215" y="439" on="0"/>
      </contour>
      <contour>
        <pt x="188" y="239" on="1"/>
        <pt x="210" y="-204" on="1"/>
        <pt x="39" y="-204" on="1"/>
        <pt x="60" y="239" on="1"/>
      </contour>
    </TTGlyph>
    <TTGlyph name="f" xMin="2" yMin="0" xMax="444" yMax="759">
      <contour>
        <pt x="288" y="759" on="1"/>
        <pt x="334" y="759" on="0"/>
        <pt x="412" y="740" on="0"/>
        <pt x="444" y="726" on="1"/>
        <pt x="400" y="621" on="1"/>
        <pt x="374" y="632" on="0"/>
        <pt x="333" y="641" on="0"/>
        <pt x="313" y="641" on="1"/>
        <pt x="272" y="641" on="0"/>
        <pt x="244" y="609" on="0"/>
        <pt x="244" y="571" on="1"/>
        <pt x="244" y="531" on="1"/>
        <pt x="369" y="531" on="1"/>
        <pt x="351" y="420" on="1"/>
        <pt x="244" y="420" on="1"/>
        <pt x="244" y="0" on="1"/>
        <pt x="84" y="0" on="1"/>
        <pt x="84" y="420" on="1"/>
        <pt x="2" y="420" on="1"/>
        <pt x="2" y="531" on="1"/>
        <pt x="84" y="531" on="1"/>
        <pt x="84" y="577" on="1"/>
        <pt x="84" y="615" on="0"/>
        <pt x="109" y="682" on="0"/>
        <pt x="160" y="731" on="0"/>
        <pt x="237" y="759" on="0"/>
      </contour>
    </TTGlyph>
    <TTGlyph name="figuredash" xMin="12" yMin="257" xMax="548" yMax="381">
      <component glyphName="glyph00783" x="0" y="0" flags="0x204"/>
    </TTGlyph>
    <TTGlyph name="five" xMin="21" yMin="-17" xMax="525" yMax="693">
      <contour>
        <pt x="525" y="228" on="1"/>
        <pt x="525" y="175" on="0"/>
        <pt x="486" y="85" on="0"/>
        <pt x="414" y="20" on="0"/>
        <pt x="313" y="-17" on="0"/>
        <pt x="252" y="-17" on="1"/>
        <pt x="176" y="-17" on="0"/>
        <pt x="59" y="39" on="0"/>
        <pt x="21" y="87" on="1"/>
        <pt x="113" y="171" on="1"/>
        <pt x="138" y="139" on="0"/>
        <pt x="203" y="105" on="0"/>
        <pt x="239" y="105" on="1"/>
        <pt x="294" y="105" on="0"/>
        <pt x="360" y="171" on="0"/>
        <pt x="360" y="225" on="1"/>
        <pt x="360" y="289" on="0"/>
        <pt x="304" y="343" on="0"/>
        <pt x="262" y="343" on="1"/>
        <pt x="243" y="343" on="0"/>
        <pt x="201" y="333" on="0"/>
        <pt x="178" y="320" on="1"/>
        <pt x="70" y="320" on="1"/>
        <pt x="70" y="693" on="1"/>
        <pt x="494" y="693" on="1"/>
        <pt x="476" y="579" on="1"/>
        <pt x="223" y="579" on="1"/>
        <pt x="223" y="431" on="1"/>
        <pt x="249" y="443" on="0"/>
        <pt x="302" y="453" on="0"/>
        <pt x="325" y="453" on="1"/>
        <pt x="367" y="453" on="0"/>
        <pt x="440" y="422" on="0"/>
        <pt x="494" y="364" on="0"/>
        <pt x="525" y="280" on="0"/>
      </contour>
    </TTGlyph>
    <TTGlyph name="fiveeighths" xMin="32" yMin="-88" xMax="938" yMax="762">
      <component glyphName="fraction" x="400" y="0" flags="0x4"/>
      <component glyphName="glyph00701" x="3" y="277" flags="0x4"/>
      <component glyphName="glyph00704" x="565" y="0" flags="0x4"/>
    </TTGlyph>
    <TTGlyph name="florin" xMin="-25" yMin="-222" xMax="444" yMax="759">
      <contour>
        <pt x="-25" y="-106" on="1"/>
        <pt x="0" y="-94" on="0"/>
        <pt x="41" y="-69" on="0"/>
        <pt x="69" y="-34" on="0"/>
        <pt x="84" y="15" on="0"/>
        <pt x="84" y="51" on="1"/>
        <pt x="84" y="420" on="1"/>
        <pt x="2" y="420" on="1"/>
        <pt x="2" y="531" on="1"/>
        <pt x="84" y="531" on="1"/>
        <pt x="84" y="577" on="1"/>
        <pt x="84" y="615" on="0"/>
        <pt x="109" y="682" on="0"/>
        <pt x="160" y="731" on="0"/>
        <pt x="237" y="759" on="0"/>
        <pt x="288" y="759" on="1"/>
        <pt x="334" y="759" on="0"/>
        <pt x="412" y="740" on="0"/>
        <pt x="444" y="725" on="1"/>
        <pt x="400" y="621" on="1"/>
        <pt x="374" y="632" on="0"/>
        <pt x="333" y="641" on="0"/>
        <pt x="313" y="641" on="1"/>
        <pt x="272" y="641" on="0"/>
        <pt x="243" y="609" on="0"/>
        <pt x="243" y="571" on="1"/>
        <pt x="243" y="531" on="1"/>
        <pt x="369" y="531" on="1"/>
        <pt x="351" y="420" on="1"/>
        <pt x="243" y="420" on="1"/>
        <pt x="243" y="64" on="1"/>
        <pt x="243" y="-2" on="0"/>
        <pt x="212" y="-96" on="0"/>
        <pt x="155" y="-161" on="0"/>
        <pt x="77" y="-205" on="0"/>
        <pt x="31" y="-222" on="1"/>
      </contour>
    </TTGlyph>
    <TTGlyph name="four" xMin="24" yMin="0" xMax="534" yMax="711">
      <contour>
        <pt x="465" y="145" on="1"/>
        <pt x="465" y="0" on="1"/>
        <pt x="309" y="0" on="1"/>
        <pt x="309" y="145" on="1"/>
        <pt x="24" y="145" on="1"/>
        <pt x="24" y="251" on="1"/>
        <pt x="216" y="711" on="1"/>
        <pt x="352" y="661" on="1"/>
        <pt x="189" y="265" on="1"/>
        <pt x="309" y="265" on="1"/>
        <pt x="327" y="431" on="1"/>
        <pt x="465" y="431" on="1"/>
        <pt x="465" y="265" on="1"/>
        <pt x="534" y="265" on="1"/>
        <pt x="534" y="145" on="1"/>
      </contour>
    </TTGlyph>
    <TTGlyph name="fraction" xMin="-169" yMin="-88" xMax="335" yMax="762">
      <contour>
        <pt x="-71" y="-88" on="1"/>
        <pt x="-169" y="-40" on="1"/>
        <pt x="237" y="762" on="1"/>
        <pt x="335" y="713" on="1"/>
      </contour>
    </TTGlyph>
    <TTGlyph name="g" xMin="7" yMin="-222" xMax="559" yMax="618">
      <contour>
        <pt x="150" y="-50" on="1"/>
        <pt x="150" y="-88" on="0"/>
        <pt x="202" y="-116" on="0"/>
        <pt x="265" y="-116" on="1"/>
        <pt x="302" y="-116" on="0"/>
        <pt x="349" y="-106" on="0"/>
        <pt x="375" y="-90" on="0"/>
        <pt x="384" y="-69" on="0"/>
        <pt x="384" y="-57" on="1"/>
        <pt x="384" y="-36" on="0"/>
        <pt x="353" y="-5" on="0"/>
        <pt x="308" y="-5" on="1"/>
        <pt x="229" y="-5" on="1"/>
        <pt x="143" y="-5" on="0"/>
        <pt x="63" y="55" on="0"/>
        <pt x="63" y="100" on="1"/>
        <pt x="63" y="129" on="0"/>
        <pt x="96" y="182" on="0"/>
        <pt x="123" y="200" on="1"/>
        <pt x="105" y="210" on="0"/>
        <pt x="72" y="238" on="0"/>
        <pt x="48" y="274" on="0"/>
        <pt x="33" y="321" on="0"/>
        <pt x="33" y="350" on="1"/>
        <pt x="33" y="399" on="0"/>
        <pt x="68" y="474" on="0"/>
        <pt x="131" y="524" on="0"/>
        <pt x="215" y="549" on="0"/>
        <pt x="265" y="549" on="1"/>
        <pt x="351" y="549" on="0"/>
        <pt x="473" y="590" on="0"/>
        <pt x="519" y="618" on="1"/>
        <pt x="559" y="499" on="1"/>
        <pt x="530" y="487" on="0"/>
        <pt x="452" y="479" on="0"/>
        <pt x="407" y="479" on="1"/>
        <pt x="407" y="475" on="1"/>
        <pt x="451" y="457" on="0"/>
        <pt x="499" y="392" on="0"/>
        <pt x="499" y="341" on="1"/>
        <pt x="499" y="303" on="0"/>
        <pt x="468" y="238" on="0"/>
        <pt x="410" y="191" on="0"/>
        <pt x="328" y="164" on="0"/>
        <pt x="276" y="164" on="1"/>
        <pt x="260" y="164" on="0"/>
        <pt x="227" y="167" on="0"/>
        <pt x="210" y="171" on="1"/>
        <pt x="199" y="158" on="0"/>
        <pt x="199" y="142" on="1"/>
        <pt x="199" y="125" on="0"/>
        <pt x="224" y="108" on="0"/>
        <pt x="268" y="108" on="1"/>
        <pt x="333" y="108" on="1"/>
        <pt x="383" y="108" on="0"/>
        <pt x="462" y="85" on="0"/>
        <pt x="516" y="44" on="0"/>
        <pt x="545" y="-13" on="0"/>
        <pt x="545" y="-47" on="1"/>
        <pt x="545" y="-132" on="0"/>
        <pt x="397" y="-222" on="0"/>
        <pt x="261" y="-222" on="1"/>
        <pt x="188" y="-222" on="0"/>
        <pt x="90" y="-198" on="0"/>
        <pt x="32" y="-154" on="0"/>
        <pt x="7" y="-92" on="0"/>
        <pt x="7" y="-53" on="1"/>
        <pt x="7" y="-50" on="1"/>
      </contour>
      <contour>
        <pt x="193" y="356" on="1"/>
        <pt x="193" y="314" on="0"/>
        <pt x="235" y="269" on="0"/>
        <pt x="271" y="269" on="1"/>
        <pt x="346" y="269" on="0"/>
        <pt x="346" y="358" on="1"/>
        <pt x="346" y="441" on="0"/>
        <pt x="271" y="441" on="1"/>
        <pt x="234" y="441" on="0"/>
        <pt x="193" y="396" on="0"/>
      </contour>
    </TTGlyph>
    <TTGlyph name="gamma" xMin="-13" yMin="-220" xMax="533" yMax="547">
      <contour>
        <pt x="185" y="13" on="1"/>
        <pt x="165" y="92" on="0"/>
        <pt x="123" y="230" on="0"/>
        <pt x="75" y="348" on="0"/>
        <pt x="20" y="448" on="0"/>
        <pt x="-13" y="490" on="1"/>
        <pt x="145" y="547" on="1"/>
        <pt x="187" y="481" on="0"/>
        <pt x="245" y="279" on="0"/>
        <pt x="261" y="150" on="1"/>
        <pt x="265" y="150" on="1"/>
        <pt x="373" y="545" on="1"/>
        <pt x="533" y="508" on="1"/>
        <pt x="336" y="26" on="1"/>
        <pt x="322" y="-9" on="0"/>
        <pt x="308" y="-71" on="0"/>
        <pt x="308" y="-105" on="1"/>
        <pt x="308" y="-128" on="0"/>
        <pt x="314" y="-178" on="0"/>
        <pt x="319" y="-207" on="1"/>
        <pt x="193" y="-220" on="1"/>
        <pt x="163" y="-159" on="0"/>
        <pt x="163" y="-100" on="1"/>
        <pt x="163" y="-47" on="0"/>
      </contour>
    </TTGlyph>
    <TTGlyph name="gbreve" xMin="7" yMin="-222" xMax="559" yMax="802">
      <component glyphName="g" x="0" y="0" flags="0x204"/>
      <component glyphName="uni0306" x="496" y="0" flags="0x4"/>
    </TTGlyph>
    <TTGlyph name="gcircumflex" xMin="7" yMin="-222" xMax="559" yMax="822">
      <component glyphName="g" x="0" y="0" flags="0x204"/>
      <component glyphName="uni0302" x="509" y="6" flags="0x4"/>
    </TTGlyph>
    <TTGlyph name="gdotaccent" xMin="7" yMin="-222" xMax="559" yMax="810">
      <component glyphName="g" x="0" y="0" flags="0x204"/>
      <component glyphName="uni0307" x="447" y="0" flags="0x4"/>
    </TTGlyph>
    <TTGlyph name="germandbls" xMin="62" yMin="-17" xMax="594" yMax="759">
      <contour>
        <pt x="62" y="531" on="1"/>
        <pt x="62" y="639" on="0"/>
        <pt x="184" y="759" on="0"/>
        <pt x="300" y="759" on="1"/>
        <pt x="350" y="759" on="0"/>
        <pt x="427" y="735" on="0"/>
        <pt x="480" y="693" on="0"/>
        <pt x="507" y="636" on="0"/>
        <pt x="507" y="603" on="1"/>
        <pt x="507" y="569" on="0"/>
        <pt x="475" y="524" on="0"/>
        <pt x="438" y="488" on="0"/>
        <pt x="406" y="455" on="0"/>
        <pt x="406" y="432" on="1"/>
        <pt x="406" y="413" on="0"/>
        <pt x="434" y="383" on="0"/>
        <pt x="476" y="354" on="0"/>
        <pt x="524" y="320" on="0"/>
        <pt x="566" y="274" on="0"/>
        <pt x="594" y="211" on="0"/>
        <pt x="594" y="168" on="1"/>
        <pt x="594" y="124" on="0"/>
        <pt x="562" y="55" on="0"/>
        <pt x="507" y="8" on="0"/>
        <pt x="431" y="-17" on="0"/>
        <pt x="388" y="-17" on="1"/>
        <pt x="350" y="-17" on="0"/>
        <pt x="285" y="0" on="0"/>
        <pt x="259" y="14" on="1"/>
        <pt x="309" y="121" on="1"/>
        <pt x="339" y="106" on="0"/>
        <pt x="367" y="106" on="1"/>
        <pt x="428" y="106" on="0"/>
        <pt x="428" y="167" on="1"/>
        <pt x="428" y="195" on="0"/>
        <pt x="404" y="233" on="0"/>
        <pt x="368" y="263" on="0"/>
        <pt x="327" y="291" on="0"/>
        <pt x="291" y="325" on="0"/>
        <pt x="267" y="371" on="0"/>
        <pt x="267" y="404" on="1"/>
        <pt x="267" y="443" on="0"/>
        <pt x="295" y="489" on="0"/>
        <pt x="328" y="523" on="0"/>
        <pt x="356" y="558" on="0"/>
        <pt x="356" y="587" on="1"/>
        <pt x="356" y="610" on="0"/>
        <pt x="329" y="647" on="0"/>
        <pt x="297" y="647" on="1"/>
        <pt x="222" y="647" on="0"/>
        <pt x="222" y="538" on="1"/>
        <pt x="222" y="0" on="1"/>
        <pt x="62" y="0" on="1"/>
      </contour>
    </TTGlyph>
    <TTGlyph name="glyph00677" xMin="126" yMin="-110" xMax="1074" yMax="842">
      <contour>
        <pt x="1074" y="366" on="1"/>
        <pt x="1074" y="267" on="0"/>
        <pt x="1000" y="94" on="0"/>
        <pt x="871" y="-35" on="0"/>
        <pt x="699" y="-110" on="0"/>
        <pt x="600" y="-110" on="1"/>
        <pt x="501" y="-110" on="0"/>
        <pt x="329" y="-35" on="0"/>
        <pt x="200" y="94" on="0"/>
        <pt x="126" y="267" on="0"/>
        <pt x="126" y="366" on="1"/>
        <pt x="126" y="465" on="0"/>
        <pt x="200" y="638" on="0"/>
        <pt x="329" y="767" on="0"/>
        <pt x="501" y="842" on="0"/>
        <pt x="600" y="842" on="1"/>
        <pt x="699" y="842" on="0"/>
        <pt x="871" y="767" on="0"/>
        <pt x="1000" y="638" on="0"/>
        <pt x="1074" y="465" on="0"/>
      </contour>
      <contour>
        <pt x="252" y="615" on="1"/>
        <pt x="217" y="567" on="0"/>
        <pt x="177" y="452" on="0"/>
        <pt x="174" y="389" on="1"/>
        <pt x="336" y="389" on="1"/>
        <pt x="338" y="435" on="0"/>
        <pt x="354" y="521" on="0"/>
        <pt x="367" y="561" on="1"/>
        <pt x="303" y="584" on="0"/>
      </contour>
      <contour>
        <pt x="1026" y="389" on="1"/>
        <pt x="1022" y="452" on="0"/>
        <pt x="982" y="567" on="0"/>
        <pt x="947" y="615" on="1"/>
        <pt x="897" y="584" on="0"/>
        <pt x="832" y="561" on="1"/>
        <pt x="846" y="521" on="0"/>
        <pt x="861" y="435" on="0"/>
        <pt x="863" y="389" on="1"/>
      </contour>
      <contour>
        <pt x="174" y="343" on="1"/>
        <pt x="177" y="279" on="0"/>
        <pt x="217" y="165" on="0"/>
        <pt x="252" y="116" on="1"/>
        <pt x="278" y="133" on="0"/>
        <pt x="336" y="160" on="0"/>
        <pt x="367" y="171" on="1"/>
        <pt x="354" y="211" on="0"/>
        <pt x="338" y="296" on="0"/>
        <pt x="336" y="343" on="1"/>
      </contour>
      <contour>
        <pt x="947" y="116" on="1"/>
        <pt x="982" y="165" on="0"/>
        <pt x="1022" y="279" on="0"/>
        <pt x="1026" y="343" on="1"/>
        <pt x="863" y="343" on="1"/>
        <pt x="861" y="296" on="0"/>
        <pt x="846" y="211" on="0"/>
        <pt x="832" y="171" on="1"/>
        <pt x="864" y="160" on="0"/>
        <pt x="921" y="133" on="0"/>
      </contour>
      <contour>
        <pt x="789" y="547" on="1"/>
        <pt x="748" y="536" on="0"/>
        <pt x="666" y="522" on="0"/>
        <pt x="624" y="520" on="1"/>
        <pt x="624" y="389" on="1"/>
        <pt x="817" y="389" on="1"/>
        <pt x="814" y="475" on="0"/>
      </contour>
      <contour>
        <pt x="624" y="211" on="1"/>
        <pt x="708" y="208" on="0"/>
        <pt x="789" y="184" on="1"/>
        <pt x="814" y="258" on="0"/>
        <pt x="817" y="343" on="1"/>
        <pt x="624" y="343" on="1"/>
      </contour>
      <contour>
        <pt x="574" y="520" on="1"/>
        <pt x="489" y="525" on="0"/>
        <pt x="410" y="547" on="1"/>
        <pt x="398" y="510" on="0"/>
        <pt x="384" y="431" on="0"/>
        <pt x="382" y="389" on="1"/>
        <pt x="574" y="389" on="1"/>
      </contour>
      <contour>
        <pt x="410" y="184" on="1"/>
        <pt x="450" y="195" on="0"/>
        <pt x="532" y="209" on="0"/>
        <pt x="574" y="211" on="1"/>
        <pt x="574" y="343" on="1"/>
        <pt x="382" y="343" on="1"/>
        <pt x="384" y="300" on="0"/>
        <pt x="398" y="222" on="0"/>
      </contour>
      <contour>
        <pt x="639" y="792" on="1"/>
        <pt x="629" y="792" on="0"/>
        <pt x="624" y="793" on="1"/>
        <pt x="624" y="562" on="1"/>
        <pt x="661" y="564" on="0"/>
        <pt x="737" y="576" on="0"/>
        <pt x="774" y="586" on="1"/>
        <pt x="751" y="643" on="0"/>
        <pt x="682" y="745" on="0"/>
      </contour>
      <contour>
        <pt x="624" y="-61" on="1"/>
        <pt x="629" y="-60" on="0"/>
        <pt x="639" y="-60" on="1"/>
        <pt x="682" y="-13" on="0"/>
        <pt x="751" y="88" on="0"/>
        <pt x="774" y="145" on="1"/>
        <pt x="737" y="156" on="0"/>
        <pt x="661" y="167" on="0"/>
        <pt x="624" y="169" on="1"/>
      </contour>
      <contour>
        <pt x="574" y="793" on="1"/>
        <pt x="569" y="792" on="0"/>
        <pt x="561" y="792" on="1"/>
        <pt x="517" y="745" on="0"/>
        <pt x="449" y="643" on="0"/>
        <pt x="425" y="586" on="1"/>
        <pt x="462" y="576" on="0"/>
        <pt x="537" y="564" on="0"/>
        <pt x="574" y="562" on="1"/>
      </contour>
      <contour>
        <pt x="561" y="-60" on="1"/>
        <pt x="569" y="-60" on="0"/>
        <pt x="574" y="-61" on="1"/>
        <pt x="574" y="169" on="1"/>
        <pt x="498" y="166" on="0"/>
        <pt x="425" y="145" on="1"/>
        <pt x="449" y="88" on="0"/>
        <pt x="517" y="-13" on="0"/>
      </contour>
      <contour>
        <pt x="499" y="782" on="1"/>
        <pt x="433" y="766" on="0"/>
        <pt x="322" y="698" on="0"/>
        <pt x="279" y="649" on="1"/>
        <pt x="326" y="619" on="0"/>
        <pt x="382" y="600" on="1"/>
        <pt x="404" y="653" on="0"/>
        <pt x="463" y="744" on="0"/>
      </contour>
      <contour>
        <pt x="701" y="-50" on="1"/>
        <pt x="766" y="-34" on="0"/>
        <pt x="877" y="34" on="0"/>
        <pt x="920" y="82" on="1"/>
        <pt x="898" y="97" on="0"/>
        <pt x="847" y="121" on="0"/>
        <pt x="818" y="132" on="1"/>
        <pt x="796" y="79" on="0"/>
        <pt x="736" y="-12" on="0"/>
      </contour>
      <contour>
        <pt x="279" y="82" on="1"/>
        <pt x="322" y="34" on="0"/>
        <pt x="433" y="-34" on="0"/>
        <pt x="499" y="-50" on="1"/>
        <pt x="463" y="-12" on="0"/>
        <pt x="404" y="79" on="0"/>
        <pt x="382" y="132" on="1"/>
        <pt x="353" y="121" on="0"/>
        <pt x="302" y="97" on="0"/>
      </contour>
      <contour>
        <pt x="920" y="649" on="1"/>
        <pt x="877" y="698" on="0"/>
        <pt x="766" y="766" on="0"/>
        <pt x="701" y="782" on="1"/>
        <pt x="736" y="744" on="0"/>
        <pt x="796" y="653" on="0"/>
        <pt x="818" y="600" on="1"/>
        <pt x="875" y="619" on="0"/>
      </contour>
    </TTGlyph>
    <TTGlyph name="glyph00678" xMin="104" yMin="142" xMax="295" yMax="798">
      <component glyphName="glyph00693" x="0" y="277" flags="0x204"/>
    </TTGlyph>
    <TTGlyph name="glyph00679" xMin="104" yMin="142" xMax="295" yMax="798">
      <component glyphName="glyph00694" x="0" y="277" flags="0x204"/>
    </TTGlyph>
    <TTGlyph name="glyph00680" xMin="60" yMin="345" xMax="340" yMax="613">
      <component glyphName="glyph00695" x="0" y="277" flags="0x204"/>
    </TTGlyph>
    <TTGlyph name="glyph00681" xMin="33" yMin="270" xMax="367" yMax="712">
      <component glyphName="glyph00696" x="0" y="277" flags="0x204"/>
    </TTGlyph>
    <TTGlyph name="glyph00682" xMin="45" yMin="277" xMax="300" yMax="704">
      <component glyphName="glyph00697" x="0" y="277" flags="0x204"/>
    </TTGlyph>
    <TTGlyph name="glyph00683" xMin="35" yMin="277" xMax="362" yMax="712">
      <component glyphName="glyph00698" x="0" y="277" flags="0x204"/>
    </TTGlyph>
    <TTGlyph name="glyph00684" xMin="20" yMin="270" xMax="354" yMax="712">
      <component glyphName="glyph00699" x="0" y="277" flags="0x204"/>
    </TTGlyph>
    <TTGlyph name="glyph00685" xMin="29" yMin="277" xMax="371" yMax="713">
      <component glyphName="glyph00700" x="0" y="277" flags="0x204"/>
    </TTGlyph>
    <TTGlyph name="glyph00686" xMin="29" yMin="270" xMax="355" yMax="704">
      <component glyphName="glyph00701" x="0" y="277" flags="0x204"/>
    </TTGlyph>
    <TTGlyph name="glyph00687" xMin="35" yMin="270" xMax="371" yMax="712">
      <component glyphName="glyph00702" x="0" y="277" flags="0x204"/>
    </TTGlyph>
    <TTGlyph name="glyph00688" xMin="46" yMin="266" xMax="352" yMax="704">
      <component glyphName="glyph00703" x="0" y="277" flags="0x204"/>
    </TTGlyph>
    <TTGlyph name="glyph00689" xMin="27" yMin="270" xMax="373" yMax="712">
      <component glyphName="glyph00704" x="0" y="277" flags="0x204"/>
    </TTGlyph>
    <TTGlyph name="glyph00690" xMin="28" yMin="261" xMax="363" yMax="712">
      <component glyphName="glyph00705" x="0" y="277" flags="0x204"/>
    </TTGlyph>
    <TTGlyph name="glyph00691" xMin="60" yMin="369" xMax="340" yMax="589">
      <component glyphName="glyph00706" x="0" y="278" flags="0x204"/>
    </TTGlyph>
    <TTGlyph name="glyph00692" xMin="60" yMin="436" xMax="340" yMax="523">
      <component glyphName="glyph00707" x="0" y="278" flags="0x204"/>
    </TTGlyph>
    <TTGlyph name="glyph00693" xMin="104" yMin="-135" xMax="295" yMax="521">
      <contour>
        <pt x="217" y="193" on="1"/>
        <pt x="217" y="103" on="0"/>
        <pt x="256" y="-29" on="0"/>
        <pt x="295" y="-88" on="1"/>
        <pt x="224" y="-135" on="1"/>
        <pt x="200" y="-102" on="0"/>
        <pt x="156" y="-33" on="0"/>
        <pt x="123" y="45" on="0"/>
        <pt x="104" y="137" on="0"/>
        <pt x="104" y="193" on="1"/>
        <pt x="104" y="250" on="0"/>
        <pt x="123" y="342" on="0"/>
        <pt x="156" y="420" on="0"/>
        <pt x="200" y="488" on="0"/>
        <pt x="224" y="521" on="1"/>
        <pt x="295" y="474" on="1"/>
        <pt x="275" y="444" on="0"/>
        <pt x="246" y="383" on="0"/>
        <pt x="227" y="315" on="0"/>
        <pt x="217" y="238" on="0"/>
      </contour>
    </TTGlyph>
    <TTGlyph name="glyph00694" xMin="104" yMin="-135" xMax="295" yMax="521">
      <contour>
        <pt x="182" y="193" on="1"/>
        <pt x="182" y="238" on="0"/>
        <pt x="172" y="315" on="0"/>
        <pt x="153" y="383" on="0"/>
        <pt x="123" y="444" on="0"/>
        <pt x="104" y="474" on="1"/>
        <pt x="175" y="521" on="1"/>
        <pt x="199" y="488" on="0"/>
        <pt x="242" y="420" on="0"/>
        <pt x="275" y="342" on="0"/>
        <pt x="295" y="250" on="0"/>
        <pt x="295" y="193" on="1"/>
        <pt x="295" y="137" on="0"/>
        <pt x="275" y="45" on="0"/>
        <pt x="242" y="-33" on="0"/>
        <pt x="199" y="-102" on="0"/>
        <pt x="175" y="-135" on="1"/>
        <pt x="104" y="-88" on="1"/>
        <pt x="143" y="-29" on="0"/>
        <pt x="182" y="103" on="0"/>
      </contour>
    </TTGlyph>
    <TTGlyph name="glyph00695" xMin="60" yMin="68" xMax="340" yMax="336">
      <contour>
        <pt x="149" y="245" on="1"/>
        <pt x="149" y="336" on="1"/>
        <pt x="251" y="336" on="1"/>
        <pt x="251" y="245" on="1"/>
        <pt x="340" y="245" on="1"/>
        <pt x="340" y="158" on="1"/>
        <pt x="251" y="158" on="1"/>
        <pt x="251" y="68" on="1"/>
        <pt x="149" y="68" on="1"/>
        <pt x="149" y="158" on="1"/>
        <pt x="60" y="158" on="1"/>
        <pt x="60" y="245" on="1"/>
      </contour>
    </TTGlyph>
    <TTGlyph name="glyph00696" xMin="33" yMin="-7" xMax="367" yMax="435">
      <contour>
        <pt x="248" y="215" on="1"/>
        <pt x="248" y="256" on="0"/>
        <pt x="243" y="309" on="0"/>
        <pt x="232" y="340" on="0"/>
        <pt x="214" y="352" on="0"/>
        <pt x="201" y="352" on="1"/>
        <pt x="189" y="352" on="0"/>
        <pt x="170" y="339" on="0"/>
        <pt x="158" y="307" on="0"/>
        <pt x="152" y="254" on="0"/>
        <pt x="152" y="215" on="1"/>
        <pt x="152" y="136" on="0"/>
        <pt x="177" y="76" on="0"/>
        <pt x="201" y="76" on="1"/>
        <pt x="213" y="76" on="0"/>
        <pt x="230" y="89" on="0"/>
        <pt x="242" y="121" on="0"/>
        <pt x="248" y="174" on="0"/>
      </contour>
      <contour>
        <pt x="367" y="215" on="1"/>
        <pt x="367" y="101" on="0"/>
        <pt x="282" y="-7" on="0"/>
        <pt x="201" y="-7" on="1"/>
        <pt x="120" y="-7" on="0"/>
        <pt x="33" y="101" on="0"/>
        <pt x="33" y="215" on="1"/>
        <pt x="33" y="324" on="0"/>
        <pt x="120" y="435" on="0"/>
        <pt x="201" y="435" on="1"/>
        <pt x="282" y="435" on="0"/>
        <pt x="367" y="327" on="0"/>
      </contour>
    </TTGlyph>
    <TTGlyph name="glyph00697" xMin="45" yMin="0" xMax="300" yMax="427">
      <contour>
        <pt x="186" y="0" on="1"/>
        <pt x="186" y="311" on="1"/>
        <pt x="98" y="262" on="1"/>
        <pt x="45" y="338" on="1"/>
        <pt x="203" y="427" on="1"/>
        <pt x="300" y="427" on="1"/>
        <pt x="300" y="0" on="1"/>
      </contour>
    </TTGlyph>
    <TTGlyph name="glyph00698" xMin="35" yMin="0" xMax="362" yMax="435">
      <contour>
        <pt x="346" y="309" on="1"/>
        <pt x="346" y="283" on="0"/>
        <pt x="328" y="235" on="0"/>
        <pt x="287" y="183" on="0"/>
        <pt x="223" y="123" on="0"/>
        <pt x="178" y="87" on="1"/>
        <pt x="362" y="87" on="1"/>
        <pt x="349" y="0" on="1"/>
        <pt x="44" y="0" on="1"/>
        <pt x="44" y="77" on="1"/>
        <pt x="98" y="125" on="0"/>
        <pt x="168" y="194" on="0"/>
        <pt x="209" y="244" on="0"/>
        <pt x="226" y="281" on="0"/>
        <pt x="226" y="296" on="1"/>
        <pt x="226" y="319" on="0"/>
        <pt x="199" y="345" on="0"/>
        <pt x="177" y="345" on="1"/>
        <pt x="157" y="345" on="0"/>
        <pt x="124" y="326" on="0"/>
        <pt x="107" y="304" on="1"/>
        <pt x="35" y="359" on="1"/>
        <pt x="66" y="396" on="0"/>
        <pt x="143" y="435" on="0"/>
        <pt x="195" y="435" on="1"/>
        <pt x="231" y="435" on="0"/>
        <pt x="288" y="414" on="0"/>
        <pt x="326" y="379" on="0"/>
        <pt x="346" y="333" on="0"/>
      </contour>
    </TTGlyph>
    <TTGlyph name="glyph00699" xMin="20" yMin="-7" xMax="354" yMax="435">
      <contour>
        <pt x="354" y="125" on="1"/>
        <pt x="354" y="97" on="0"/>
        <pt x="331" y="49" on="0"/>
        <pt x="286" y="13" on="0"/>
        <pt x="221" y="-7" on="0"/>
        <pt x="179" y="-7" on="1"/>
        <pt x="128" y="-7" on="0"/>
        <pt x="49" y="27" on="0"/>
        <pt x="20" y="59" on="1"/>
        <pt x="85" y="118" on="1"/>
        <pt x="126" y="77" on="0"/>
        <pt x="171" y="77" on="1"/>
        <pt x="203" y="77" on="0"/>
        <pt x="236" y="108" on="0"/>
        <pt x="236" y="131" on="1"/>
        <pt x="236" y="186" on="0"/>
        <pt x="168" y="186" on="1"/>
        <pt x="127" y="186" on="1"/>
        <pt x="141" y="265" on="1"/>
        <pt x="170" y="265" on="1"/>
        <pt x="193" y="265" on="0"/>
        <pt x="224" y="286" on="0"/>
        <pt x="224" y="309" on="1"/>
        <pt x="224" y="330" on="0"/>
        <pt x="195" y="351" on="0"/>
        <pt x="172" y="351" on="1"/>
        <pt x="151" y="351" on="0"/>
        <pt x="110" y="335" on="0"/>
        <pt x="88" y="315" on="1"/>
        <pt x="30" y="376" on="1"/>
        <pt x="62" y="405" on="0"/>
        <pt x="142" y="435" on="0"/>
        <pt x="186" y="435" on="1"/>
        <pt x="262" y="435" on="0"/>
        <pt x="340" y="371" on="0"/>
        <pt x="340" y="322" on="1"/>
        <pt x="340" y="290" on="0"/>
        <pt x="303" y="243" on="0"/>
        <pt x="261" y="231" on="1"/>
        <pt x="261" y="227" on="1"/>
        <pt x="304" y="220" on="0"/>
        <pt x="354" y="164" on="0"/>
      </contour>
    </TTGlyph>
    <TTGlyph name="glyph00700" xMin="29" yMin="0" xMax="371" yMax="436">
      <contour>
        <pt x="324" y="85" on="1"/>
        <pt x="324" y="0" on="1"/>
        <pt x="213" y="0" on="1"/>
        <pt x="213" y="85" on="1"/>
        <pt x="29" y="85" on="1"/>
        <pt x="29" y="161" on="1"/>
        <pt x="142" y="436" on="1"/>
        <pt x="238" y="403" on="1"/>
        <pt x="147" y="170" on="1"/>
        <pt x="214" y="170" on="1"/>
        <pt x="230" y="266" on="1"/>
        <pt x="324" y="266" on="1"/>
        <pt x="324" y="170" on="1"/>
        <pt x="371" y="170" on="1"/>
        <pt x="371" y="85" on="1"/>
      </contour>
    </TTGlyph>
    <TTGlyph name="glyph00701" xMin="29" yMin="-7" xMax="355" yMax="427">
      <contour>
        <pt x="355" y="144" on="1"/>
        <pt x="355" y="111" on="0"/>
        <pt x="331" y="55" on="0"/>
        <pt x="287" y="15" on="0"/>
        <pt x="224" y="-7" on="0"/>
        <pt x="185" y="-7" on="1"/>
        <pt x="131" y="-7" on="0"/>
        <pt x="57" y="30" on="0"/>
        <pt x="29" y="62" on="1"/>
        <pt x="96" y="117" on="1"/>
        <pt x="116" y="96" on="0"/>
        <pt x="151" y="79" on="0"/>
        <pt x="172" y="79" on="1"/>
        <pt x="201" y="79" on="0"/>
        <pt x="236" y="115" on="0"/>
        <pt x="236" y="144" on="1"/>
        <pt x="236" y="173" on="0"/>
        <pt x="208" y="204" on="0"/>
        <pt x="186" y="204" on="1"/>
        <pt x="166" y="204" on="0"/>
        <pt x="141" y="190" on="1"/>
        <pt x="59" y="190" on="1"/>
        <pt x="59" y="427" on="1"/>
        <pt x="336" y="427" on="1"/>
        <pt x="323" y="346" on="1"/>
        <pt x="171" y="346" on="1"/>
        <pt x="171" y="269" on="1"/>
        <pt x="185" y="276" on="0"/>
        <pt x="216" y="283" on="0"/>
        <pt x="228" y="283" on="1"/>
        <pt x="286" y="283" on="0"/>
        <pt x="355" y="212" on="0"/>
      </contour>
    </TTGlyph>
    <TTGlyph name="glyph00702" xMin="35" yMin="-7" xMax="371" yMax="435">
      <contour>
        <pt x="294" y="337" on="1"/>
        <pt x="268" y="354" on="0"/>
        <pt x="240" y="354" on="1"/>
        <pt x="208" y="354" on="0"/>
        <pt x="161" y="304" on="0"/>
        <pt x="155" y="250" on="1"/>
        <pt x="176" y="271" on="0"/>
        <pt x="222" y="288" on="0"/>
        <pt x="243" y="288" on="1"/>
        <pt x="297" y="288" on="0"/>
        <pt x="371" y="216" on="0"/>
        <pt x="371" y="147" on="1"/>
        <pt x="371" y="114" on="0"/>
        <pt x="348" y="57" on="0"/>
        <pt x="305" y="16" on="0"/>
        <pt x="244" y="-7" on="0"/>
        <pt x="207" y="-7" on="1"/>
        <pt x="161" y="-7" on="0"/>
        <pt x="96" y="25" on="0"/>
        <pt x="54" y="80" on="0"/>
        <pt x="35" y="154" on="0"/>
        <pt x="35" y="197" on="1"/>
        <pt x="35" y="250" on="0"/>
        <pt x="63" y="337" on="0"/>
        <pt x="115" y="400" on="0"/>
        <pt x="190" y="435" on="0"/>
        <pt x="237" y="435" on="1"/>
        <pt x="267" y="435" on="0"/>
        <pt x="317" y="418" on="0"/>
        <pt x="339" y="403" on="1"/>
      </contour>
      <contour>
        <pt x="211" y="211" on="1"/>
        <pt x="181" y="211" on="0"/>
        <pt x="157" y="182" on="1"/>
        <pt x="157" y="125" on="0"/>
        <pt x="182" y="73" on="0"/>
        <pt x="208" y="73" on="1"/>
        <pt x="229" y="73" on="0"/>
        <pt x="253" y="106" on="0"/>
        <pt x="253" y="142" on="1"/>
        <pt x="253" y="183" on="0"/>
        <pt x="230" y="211" on="0"/>
      </contour>
    </TTGlyph>
    <TTGlyph name="glyph00703" xMin="46" yMin="-11" xMax="352" yMax="427">
      <contour>
        <pt x="182" y="-11" on="1"/>
        <pt x="74" y="22" on="1"/>
        <pt x="234" y="341" on="1"/>
        <pt x="46" y="341" on="1"/>
        <pt x="46" y="427" on="1"/>
        <pt x="352" y="427" on="1"/>
        <pt x="352" y="357" on="1"/>
      </contour>
    </TTGlyph>
    <TTGlyph name="glyph00704" xMin="27" yMin="-7" xMax="373" yMax="435">
      <contour>
        <pt x="356" y="322" on="1"/>
        <pt x="356" y="291" on="0"/>
        <pt x="318" y="249" on="0"/>
        <pt x="283" y="232" on="1"/>
        <pt x="331" y="215" on="0"/>
        <pt x="373" y="160" on="0"/>
        <pt x="373" y="124" on="1"/>
        <pt x="373" y="98" on="0"/>
        <pt x="352" y="50" on="0"/>
        <pt x="309" y="14" on="0"/>
        <pt x="244" y="-7" on="0"/>
        <pt x="199" y="-7" on="1"/>
        <pt x="110" y="-7" on="0"/>
        <pt x="27" y="64" on="0"/>
        <pt x="27" y="120" on="1"/>
        <pt x="27" y="152" on="0"/>
        <pt x="69" y="206" on="0"/>
        <pt x="115" y="223" on="1"/>
        <pt x="82" y="237" on="0"/>
        <pt x="44" y="288" on="0"/>
        <pt x="44" y="320" on="1"/>
        <pt x="44" y="375" on="0"/>
        <pt x="131" y="435" on="0"/>
        <pt x="202" y="435" on="1"/>
        <pt x="273" y="435" on="0"/>
        <pt x="356" y="376" on="0"/>
      </contour>
      <contour>
        <pt x="257" y="121" on="1"/>
        <pt x="257" y="147" on="0"/>
        <pt x="220" y="175" on="0"/>
        <pt x="185" y="186" on="1"/>
        <pt x="167" y="175" on="0"/>
        <pt x="143" y="145" on="0"/>
        <pt x="143" y="125" on="1"/>
        <pt x="143" y="101" on="0"/>
        <pt x="174" y="74" on="0"/>
        <pt x="202" y="74" on="1"/>
        <pt x="229" y="74" on="0"/>
        <pt x="257" y="101" on="0"/>
      </contour>
      <contour>
        <pt x="157" y="321" on="1"/>
        <pt x="157" y="301" on="0"/>
        <pt x="184" y="274" on="0"/>
        <pt x="209" y="265" on="1"/>
        <pt x="229" y="278" on="0"/>
        <pt x="243" y="306" on="0"/>
        <pt x="243" y="320" on="1"/>
        <pt x="243" y="337" on="0"/>
        <pt x="225" y="359" on="0"/>
        <pt x="202" y="359" on="1"/>
        <pt x="182" y="359" on="0"/>
        <pt x="157" y="340" on="0"/>
      </contour>
    </TTGlyph>
    <TTGlyph name="glyph00705" xMin="28" yMin="-16" xMax="363" yMax="435">
      <contour>
        <pt x="60" y="65" on="1"/>
        <pt x="129" y="82" on="0"/>
        <pt x="223" y="135" on="0"/>
        <pt x="246" y="185" on="1"/>
        <pt x="243" y="187" on="1"/>
        <pt x="210" y="151" on="0"/>
        <pt x="156" y="151" on="1"/>
        <pt x="129" y="151" on="0"/>
        <pt x="83" y="169" on="0"/>
        <pt x="48" y="203" on="0"/>
        <pt x="28" y="254" on="0"/>
        <pt x="28" y="286" on="1"/>
        <pt x="28" y="321" on="0"/>
        <pt x="54" y="376" on="0"/>
        <pt x="99" y="415" on="0"/>
        <pt x="162" y="435" on="0"/>
        <pt x="198" y="435" on="1"/>
        <pt x="239" y="435" on="0"/>
        <pt x="301" y="410" on="0"/>
        <pt x="342" y="364" on="0"/>
        <pt x="363" y="300" on="0"/>
        <pt x="363" y="262" on="1"/>
        <pt x="363" y="203" on="0"/>
        <pt x="330" y="113" on="0"/>
        <pt x="262" y="47" on="0"/>
        <pt x="156" y="0" on="0"/>
        <pt x="84" y="-16" on="1"/>
      </contour>
      <contour>
        <pt x="190" y="227" on="1"/>
        <pt x="204" y="227" on="0"/>
        <pt x="232" y="239" on="0"/>
        <pt x="244" y="253" on="1"/>
        <pt x="244" y="284" on="0"/>
        <pt x="238" y="323" on="0"/>
        <pt x="226" y="345" on="0"/>
        <pt x="207" y="354" on="0"/>
        <pt x="195" y="354" on="1"/>
        <pt x="174" y="354" on="0"/>
        <pt x="146" y="324" on="0"/>
        <pt x="146" y="290" on="1"/>
        <pt x="146" y="252" on="0"/>
        <pt x="172" y="227" on="0"/>
      </contour>
    </TTGlyph>
    <TTGlyph name="glyph00706" xMin="60" yMin="91" xMax="340" yMax="311">
      <contour>
        <pt x="60" y="91" on="1"/>
        <pt x="60" y="177" on="1"/>
        <pt x="340" y="177" on="1"/>
        <pt x="340" y="91" on="1"/>
      </contour>
      <contour>
        <pt x="60" y="225" on="1"/>
        <pt x="60" y="311" on="1"/>
        <pt x="340" y="311" on="1"/>
        <pt x="340" y="225" on="1"/>
      </contour>
    </TTGlyph>
    <TTGlyph name="glyph00707" xMin="60" yMin="158" xMax="340" yMax="245">
      <contour>
        <pt x="60" y="158" on="1"/>
        <pt x="60" y="245" on="1"/>
        <pt x="340" y="245" on="1"/>
        <pt x="340" y="158" on="1"/>
      </contour>
    </TTGlyph>
    <TTGlyph name="glyph00709" xMin="11" yMin="0" xMax="541" yMax="676">
      <component glyphName="glyph00754" x="0" y="0" flags="0x204"/>
    </TTGlyph>
    <TTGlyph name="glyph00710" xMin="1" yMin="-161" xMax="539" yMax="831">
      <component glyphName="glyph00755" x="-14" y="0" flags="0x4"/>
    </TTGlyph>
    <TTGlyph name="glyph00711" xMin="40" yMin="-39" xMax="829" yMax="719">
      <component glyphName="glyph00756" x="0" y="0" flags="0x204"/>
    </TTGlyph>
    <TTGlyph name="glyph00712" xMin="42" yMin="100" xMax="477" yMax="536">
      <component glyphName="glyph00757" x="0" y="0" flags="0x204"/>
    </TTGlyph>
    <TTGlyph name="glyph00713" xMin="24" yMin="-17" xMax="598" yMax="582">
      <contour>
        <pt x="183" y="285" on="1"/>
        <pt x="183" y="233" on="0"/>
        <pt x="204" y="162" on="0"/>
        <pt x="240" y="118" on="0"/>
        <pt x="286" y="99" on="0"/>
        <pt x="311" y="99" on="1"/>
        <pt x="336" y="99" on="0"/>
        <pt x="382" y="118" on="0"/>
        <pt x="418" y="162" on="0"/>
        <pt x="439" y="233" on="0"/>
        <pt x="439" y="285" on="1"/>
        <pt x="439" y="336" on="0"/>
        <pt x="418" y="406" on="0"/>
        <pt x="382" y="448" on="0"/>
        <pt x="336" y="466" on="0"/>
        <pt x="311" y="466" on="1"/>
        <pt x="286" y="466" on="0"/>
        <pt x="240" y="448" on="0"/>
        <pt x="204" y="406" on="0"/>
        <pt x="183" y="336" on="0"/>
      </contour>
      <contour>
        <pt x="598" y="285" on="1"/>
        <pt x="598" y="217" on="0"/>
        <pt x="557" y="106" on="0"/>
        <pt x="482" y="27" on="0"/>
        <pt x="376" y="-17" on="0"/>
        <pt x="311" y="-17" on="1"/>
        <pt x="246" y="-17" on="0"/>
        <pt x="140" y="27" on="0"/>
        <pt x="65" y="106" on="0"/>
        <pt x="24" y="217" on="0"/>
        <pt x="24" y="285" on="1"/>
        <pt x="24" y="352" on="0"/>
        <pt x="64" y="462" on="0"/>
        <pt x="138" y="540" on="0"/>
        <pt x="244" y="582" on="0"/>
        <pt x="311" y="582" on="1"/>
        <pt x="378" y="582" on="0"/>
        <pt x="484" y="540" on="0"/>
        <pt x="558" y="462" on="0"/>
        <pt x="598" y="352" on="0"/>
      </contour>
    </TTGlyph>
    <TTGlyph name="glyph00714" xMin="8" yMin="0" xMax="371" yMax="579">
      <contour>
        <pt x="215" y="0" on="1"/>
        <pt x="215" y="420" on="1"/>
        <pt x="76" y="339" on="1"/>
        <pt x="8" y="444" on="1"/>
        <pt x="229" y="579" on="1"/>
        <pt x="371" y="579" on="1"/>
        <pt x="371" y="0" on="1"/>
      </contour>
    </TTGlyph>
    <TTGlyph name="glyph00715" xMin="9" yMin="0" xMax="485" yMax="582">
      <contour>
        <pt x="473" y="398" on="1"/>
        <pt x="473" y="362" on="0"/>
        <pt x="454" y="302" on="0"/>
        <pt x="400" y="240" on="0"/>
        <pt x="301" y="168" on="0"/>
        <pt x="221" y="120" on="1"/>
        <pt x="485" y="120" on="1"/>
        <pt x="469" y="0" on="1"/>
        <pt x="27" y="0" on="1"/>
        <pt x="27" y="113" on="1"/>
        <pt x="119" y="176" on="0"/>
        <pt x="231" y="259" on="0"/>
        <pt x="291" y="318" on="0"/>
        <pt x="310" y="362" on="0"/>
        <pt x="310" y="386" on="1"/>
        <pt x="310" y="421" on="0"/>
        <pt x="265" y="463" on="0"/>
        <pt x="227" y="463" on="1"/>
        <pt x="192" y="463" on="0"/>
        <pt x="132" y="431" on="0"/>
        <pt x="103" y="397" on="1"/>
        <pt x="9" y="470" on="1"/>
        <pt x="54" y="525" on="0"/>
        <pt x="169" y="582" on="0"/>
        <pt x="244" y="582" on="1"/>
        <pt x="298" y="582" on="0"/>
        <pt x="383" y="553" on="0"/>
        <pt x="442" y="503" on="0"/>
        <pt x="473" y="436" on="0"/>
      </contour>
    </TTGlyph>
    <TTGlyph name="glyph00716" xMin="-2" yMin="-124" xMax="490" yMax="582">
      <contour>
        <pt x="490" y="81" on="1"/>
        <pt x="490" y="39" on="0"/>
        <pt x="456" y="-36" on="0"/>
        <pt x="391" y="-92" on="0"/>
        <pt x="295" y="-124" on="0"/>
        <pt x="232" y="-124" on="1"/>
        <pt x="154" y="-124" on="0"/>
        <pt x="38" y="-70" on="0"/>
        <pt x="-2" y="-20" on="1"/>
        <pt x="87" y="61" on="1"/>
        <pt x="118" y="28" on="0"/>
        <pt x="182" y="-5" on="0"/>
        <pt x="222" y="-5" on="1"/>
        <pt x="270" y="-5" on="0"/>
        <pt x="327" y="46" on="0"/>
        <pt x="327" y="92" on="1"/>
        <pt x="327" y="146" on="0"/>
        <pt x="270" y="196" on="0"/>
        <pt x="216" y="196" on="1"/>
        <pt x="159" y="196" on="1"/>
        <pt x="178" y="302" on="1"/>
        <pt x="216" y="302" on="1"/>
        <pt x="261" y="302" on="0"/>
        <pt x="314" y="344" on="0"/>
        <pt x="314" y="386" on="1"/>
        <pt x="314" y="425" on="0"/>
        <pt x="264" y="466" on="0"/>
        <pt x="223" y="466" on="1"/>
        <pt x="185" y="466" on="0"/>
        <pt x="121" y="437" on="0"/>
        <pt x="91" y="408" on="1"/>
        <pt x="11" y="490" on="1"/>
        <pt x="59" y="536" on="0"/>
        <pt x="172" y="582" on="0"/>
        <pt x="241" y="582" on="1"/>
        <pt x="296" y="582" on="0"/>
        <pt x="381" y="556" on="0"/>
        <pt x="438" y="510" on="0"/>
        <pt x="468" y="447" on="0"/>
        <pt x="468" y="411" on="1"/>
        <pt x="468" y="349" on="0"/>
        <pt x="397" y="271" on="0"/>
        <pt x="338" y="256" on="1"/>
        <pt x="338" y="252" on="1"/>
        <pt x="368" y="248" on="0"/>
        <pt x="423" y="225" on="0"/>
        <pt x="465" y="183" on="0"/>
        <pt x="490" y="122" on="0"/>
      </contour>
    </TTGlyph>
    <TTGlyph name="glyph00717" xMin="27" yMin="-111" xMax="541" yMax="583">
      <contour>
        <pt x="468" y="28" on="1"/>
        <pt x="468" y="-111" on="1"/>
        <pt x="318" y="-111" on="1"/>
        <pt x="318" y="28" on="1"/>
        <pt x="27" y="28" on="1"/>
        <pt x="27" y="132" on="1"/>
        <pt x="218" y="583" on="1"/>
        <pt x="352" y="533" on="1"/>
        <pt x="190" y="146" on="1"/>
        <pt x="318" y="146" on="1"/>
        <pt x="336" y="308" on="1"/>
        <pt x="468" y="308" on="1"/>
        <pt x="468" y="146" on="1"/>
        <pt x="541" y="146" on="1"/>
        <pt x="541" y="28" on="1"/>
      </contour>
    </TTGlyph>
</ttFont>
